<svg width="55" height="55" viewBox="0 0 55 55" fill="none" xmlns="http://www.w3.org/2000/svg">
<path d="M32.0033 5.00022C36.5894 5.48345 40.8732 7.51751 44.1463 10.766C47.4193 14.0145 49.4856 18.2829 50.0033 22.8652M32.0033 14.0002C34.2162 14.4366 36.2469 15.528 37.8317 17.1329C39.4165 18.7378 40.4824 20.782 40.8908 23.0002M49.8908 38.5702V45.3202C49.8934 45.9468 49.765 46.5671 49.514 47.1413C49.263 47.7154 48.8948 48.2308 48.433 48.6544C47.9713 49.078 47.4261 49.4006 46.8325 49.6013C46.2389 49.8021 45.6099 49.8766 44.9858 49.8202C38.0622 49.0679 31.4116 46.702 25.5683 42.9127C20.132 39.4582 15.5228 34.8491 12.0683 29.4127C8.26579 23.5429 5.89939 16.86 5.16084 9.90522C5.10461 9.28302 5.17856 8.65593 5.37797 8.06387C5.57737 7.47182 5.89788 6.92777 6.31906 6.46637C6.74025 6.00496 7.2529 5.63631 7.82437 5.38389C8.39584 5.13147 9.01361 5.00081 9.63834 5.00022H16.3883C17.4803 4.98947 18.5389 5.37614 19.3668 6.08817C20.1947 6.80019 20.7355 7.78897 20.8883 8.87022C21.1732 11.0304 21.7016 13.1514 22.4633 15.1927C22.7661 15.998 22.8316 16.8733 22.6521 17.7147C22.4727 18.5561 22.0558 19.3285 21.4508 19.9402L18.5933 22.7977C21.7963 28.4307 26.4604 33.0947 32.0933 36.2977L34.9508 33.4402C35.5626 32.8353 36.3349 32.4184 37.1764 32.2389C38.0178 32.0595 38.893 32.125 39.6983 32.4277C41.7397 33.1895 43.8607 33.7178 46.0208 34.0027C47.1138 34.1569 48.112 34.7074 48.8255 35.5496C49.5391 36.3917 49.9182 37.4668 49.8908 38.5702Z" stroke="#1BBDC3" stroke-width="2.5" stroke-linecap="round" stroke-linejoin="round"/>
</svg>
