<svg width="240" height="175" viewBox="0 0 240 175" fill="none" xmlns="http://www.w3.org/2000/svg">
<g clip-path="url(#clip0_1303_13242)">
<path d="M225.372 140.201L210 117.367C210 117.367 233.28 125.494 230.638 140.201H225.372Z" fill="#E5E5E5"/>
<path d="M41.1773 140.351L40.5938 140.34C40.8194 133.852 41.5118 127.388 42.6653 120.999C45.1888 107.319 49.3849 98.3357 55.1371 94.2969L55.4722 94.7744C42.035 104.209 41.1842 139.991 41.1773 140.351Z" fill="#E5E5E5"/>
<path d="M48.4742 140.216L47.8906 140.204C47.9032 139.558 48.2679 124.327 54.264 120.117L54.5991 120.595C48.8449 124.635 48.477 140.06 48.4742 140.216Z" fill="#E5E5E5"/>
<path d="M58.7928 94.8279C60.4043 94.8279 61.7107 93.5215 61.7107 91.91C61.7107 90.2985 60.4043 88.9922 58.7928 88.9922C57.1814 88.9922 55.875 90.2985 55.875 91.91C55.875 93.5215 57.1814 94.8279 58.7928 94.8279Z" fill="#1BBEC3"/>
<path d="M57.3475 119.922C58.959 119.922 60.2654 118.615 60.2654 117.004C60.2654 115.392 58.959 114.086 57.3475 114.086C55.736 114.086 54.4297 115.392 54.4297 117.004C54.4297 118.615 55.736 119.922 57.3475 119.922Z" fill="#1BBEC3"/>
<path d="M47.1111 96.5799C47.6595 100.082 46.2302 103.215 46.2302 103.215C46.2302 103.215 43.9119 100.669 43.3636 97.1666C42.8152 93.664 44.2444 90.5312 44.2444 90.5312C44.2444 90.5312 46.5627 93.0773 47.1111 96.5799Z" fill="#E5E5E5"/>
<path d="M56.6483 105.085C53.2948 106.235 49.9609 105.374 49.9609 105.374C49.9609 105.374 52.0641 102.647 55.4175 101.497C58.771 100.347 62.1049 101.208 62.1049 101.208C62.1049 101.208 60.0017 103.935 56.6483 105.085Z" fill="#E5E5E5"/>
<path d="M56.7576 127.307C55.2398 127.783 53.6235 127.853 52.0703 127.509C53.0565 126.253 54.3847 125.31 55.895 124.792C57.4052 124.274 59.033 124.203 60.5822 124.589C59.5673 125.814 58.2484 126.751 56.7576 127.307Z" fill="#E5E5E5"/>
<path d="M238.63 141H-0.6302C-0.728277 141 -0.822332 140.947 -0.891683 140.854C-0.961034 140.76 -1 140.633 -1 140.5C-1 140.367 -0.961034 140.24 -0.891683 140.146C-0.822332 140.053 -0.728277 140 -0.6302 140H238.63C238.728 140 238.822 140.053 238.892 140.146C238.961 140.24 239 140.367 239 140.5C239 140.633 238.961 140.76 238.892 140.854C238.822 140.947 238.728 141 238.63 141Z" fill="#CBCBCB"/>
<path d="M147.57 154.239L145.182 160.452L120.082 154.201L123.605 145.031L147.57 154.239Z" fill="#FFB7B7"/>
<path d="M154.202 154.968L146.505 175.002L146.252 174.904C144.184 174.11 142.516 172.526 141.616 170.502C140.715 168.478 140.656 166.179 141.45 164.111L141.45 164.111L146.151 151.875L154.202 154.968Z" fill="#2F2E41"/>
<path d="M109.43 76.4453L98.4919 77.4695L97.9492 110.016C98.0942 111.611 98.8581 113.086 100.077 114.124C101.296 115.163 102.874 115.683 104.472 115.573L111.407 115.095L109.43 76.4453Z" fill="#E5E5E5"/>
<path d="M147.994 74.8463L140.51 74.75L140.066 113.422C141.72 113.477 143.368 113.191 144.906 112.581C146.445 111.971 147.841 111.051 149.008 109.878C150.175 108.705 151.088 107.303 151.689 105.762C152.291 104.22 152.568 102.571 152.504 100.918L147.994 74.8463Z" fill="#E5E5E5"/>
<path d="M104.565 127.155C104.387 128.277 104.13 129.384 103.795 130.469C103.417 131.531 102.834 132.513 102.489 133.586C101.388 137.006 102.914 140.82 105.351 143.46C107.464 145.74 110.193 147.36 113.206 148.124C115.405 148.677 117.691 148.757 119.957 148.833C126.231 149.046 132.666 149.236 138.612 147.22C140.49 146.567 142.304 145.743 144.031 144.758C144.577 144.498 145.057 144.12 145.438 143.651C145.891 143.005 145.949 142.168 145.945 141.379C145.932 138.719 145.393 136.073 145.521 133.416C145.591 131.945 145.867 130.474 145.731 129.007C145.544 127.341 144.846 125.774 143.733 124.52C142.62 123.265 141.147 122.386 139.515 122.001C137.829 121.639 136.079 121.836 134.362 122.001C129.905 122.43 125.43 122.63 120.952 122.601C116.377 122.572 111.831 121.873 107.279 121.8C105.933 121.779 105.96 122.194 105.531 123.497C105.137 124.696 104.814 125.917 104.565 127.155Z" fill="#2F2E41"/>
<path d="M86.6757 124.994C85.4456 124.685 84.178 124.55 82.9104 124.594C81.5784 124.668 80.2774 125.024 79.0939 125.639C77.9103 126.255 76.8713 127.115 76.046 128.163C75.2206 129.211 74.6279 130.423 74.3071 131.717C73.9863 133.012 73.9448 134.36 74.1854 135.673C74.4926 137.094 74.9947 138.466 75.6774 139.75C76.676 141.776 77.8737 143.798 79.7223 145.097C80.8038 145.856 82.0553 146.33 83.2921 146.796L93.0285 150.464C94.4609 151.003 95.8934 151.543 97.3399 152.043C104.607 154.555 112.184 156.062 119.859 156.52C122.197 156.66 124.57 156.698 126.851 156.166C127.392 156.04 127.97 155.851 128.283 155.392C128.468 155.069 128.578 154.708 128.603 154.336L129.202 150.141C129.286 149.551 129.367 148.929 129.151 148.373C128.877 147.668 128.189 147.225 127.533 146.848C121.132 143.172 113.658 141.143 108.27 136.098C107.001 134.91 105.94 133.027 104.399 132.22C102.651 131.305 100.593 130.783 98.7869 129.94C94.838 128.096 90.9556 125.978 86.6757 124.994Z" fill="#2F2E41"/>
<path opacity="0.1" d="M96.395 130.651C99.8364 131.73 114.366 139.201 116.857 141.809C116.523 141.929 105.197 135.582 104.857 135.48C101.767 134.553 98.661 133.62 95.7273 132.263C95.1371 131.99 91.8931 130.707 92.04 129.962C92.2058 129.122 95.7841 130.46 96.395 130.651Z" fill="black"/>
<path d="M117.166 65.508L107.9 72.5434C107.9 72.5434 98.1231 72.8493 98.4535 79.0993C98.7839 85.3494 102.697 114.941 102.697 114.941L103.546 125.123L119.65 129.712C128.352 132.191 137.545 132.388 146.345 130.284L144.431 120.069C144.431 120.069 152.18 73.678 147.512 71.6355C142.843 69.5931 139.925 70.1766 139.925 70.1766L134.074 65.0703L117.166 65.508Z" fill="#E5E5E5"/>
<path d="M144.592 54.1427C144.592 63.2758 136.147 61.8944 125.73 61.8944C115.312 61.8944 106.867 63.2758 106.867 54.1427C106.867 45.0095 110.992 28.8203 125.73 28.8203C140.975 28.8203 144.592 45.0095 144.592 54.1427Z" fill="#2F2E41"/>
<path d="M135.535 57.2407C140.492 52.2839 140.491 44.2473 135.535 39.2905C130.578 34.3337 122.541 34.3337 117.584 39.2905C112.628 44.2473 112.628 52.2839 117.584 57.2407C122.541 62.1975 130.578 62.1975 135.535 57.2407Z" fill="#FFB7B7"/>
<path d="M111.004 47.9441H116.024L118.239 41.7428L118.682 47.9441H121.081L122.373 44.3267L122.632 47.9441H140.461C140.461 44.3806 139.045 40.963 136.525 38.4432C134.005 35.9234 130.588 34.5078 127.024 34.5078H124.44C120.877 34.5078 117.459 35.9234 114.939 38.4432C112.42 40.963 111.004 44.3806 111.004 47.9441Z" fill="#2F2E41"/>
<path d="M114.48 153.942L116.868 160.155L141.968 153.904L138.445 144.734L114.48 153.942Z" fill="#FFB7B7"/>
<path d="M115.899 151.578L120.6 163.814L120.6 163.814C121.394 165.882 121.335 168.181 120.434 170.205C119.534 172.229 117.866 173.813 115.798 174.608L115.545 174.705L107.848 154.672L115.899 151.578Z" fill="#2F2E41"/>
<path d="M164.653 122.62C166.669 122.114 168.76 121.972 170.826 122.198C172.477 122.38 174.177 122.839 175.382 123.982C176.849 125.372 177.32 127.522 177.359 129.543C177.424 133.567 176.089 137.489 173.583 140.638C172.971 141.435 172.243 142.135 171.424 142.717C170.54 143.269 169.598 143.723 168.615 144.07L146.811 152.67C141.074 154.933 135.318 157.202 129.335 158.694C129.009 158.851 128.635 158.872 128.294 158.753C127.953 158.634 127.673 158.385 127.516 158.059C127.511 158.049 127.507 158.039 127.502 158.029C125.592 155.3 123.989 152.369 122.723 149.287C122.663 149.214 122.622 149.128 122.602 149.035C122.583 148.942 122.586 148.846 122.612 148.755C122.637 148.664 122.684 148.581 122.749 148.512C122.814 148.442 122.894 148.39 122.983 148.359L138.406 139.497C139.511 138.863 140.628 138.219 141.545 137.335C142.211 136.689 142.757 135.929 143.156 135.091C143.476 134.423 143.506 132.847 143.914 132.354C144.314 131.871 145.682 131.832 146.313 131.642C147.204 131.369 148.077 131.039 148.925 130.655C152.375 129.111 155.447 126.869 158.754 125.062C160.609 124.001 162.591 123.181 164.653 122.62Z" fill="#2F2E41"/>
<path opacity="0.1" d="M155.911 129.236C153.261 131.226 149.83 133.055 147.204 135.098C146.308 135.795 131.368 144.194 131.156 145.31C133.606 145.723 149.213 134.805 151.446 133.715C153.678 132.626 155.658 131.09 157.619 129.565C158.119 129.176 160.237 128.008 158.803 127.574C157.994 127.329 156.508 128.838 155.911 129.236Z" fill="black"/>
<path d="M203.532 52.4384C208.567 52.4384 212.649 48.3563 212.649 43.3208C212.649 38.2852 208.567 34.2031 203.532 34.2031C198.496 34.2031 194.414 38.2852 194.414 43.3208C194.414 48.3563 198.496 52.4384 203.532 52.4384Z" fill="#F1F1F1"/>
<path d="M186.658 54.0732C190.19 54.0732 193.054 51.2096 193.054 47.6772C193.054 44.1448 190.19 41.2812 186.658 41.2812C183.125 41.2812 180.262 44.1448 180.262 47.6772C180.262 51.2096 183.125 54.0732 186.658 54.0732Z" fill="#F1F1F1"/>
<path d="M69.4956 49.8974C72.3279 49.8974 74.624 47.6014 74.624 44.769C74.624 41.9367 72.3279 39.6406 69.4956 39.6406C66.6632 39.6406 64.3672 41.9367 64.3672 44.769C64.3672 47.6014 66.6632 49.8974 69.4956 49.8974Z" fill="#F1F1F1"/>
<path d="M77.9374 53.3435C79.9242 53.3435 81.5349 51.7328 81.5349 49.746C81.5349 47.7591 79.9242 46.1484 77.9374 46.1484C75.9505 46.1484 74.3398 47.7591 74.3398 49.746C74.3398 51.7328 75.9505 53.3435 77.9374 53.3435Z" fill="#F1F1F1"/>
<path d="M127.69 7.84039C129.855 7.84039 131.61 6.08526 131.61 3.9202C131.61 1.75513 129.855 0 127.69 0C125.525 0 123.77 1.75513 123.77 3.9202C123.77 6.08526 125.525 7.84039 127.69 7.84039Z" fill="#F1F1F1"/>
<path opacity="0.17" d="M104.328 86.5174L104.679 83.8125C104.679 83.8125 117.75 84.7667 115.708 87.9763C113.665 91.186 108.705 91.4777 108.705 91.4777L104.328 86.5174Z" fill="#2F2E41"/>
<path d="M114.195 74.7573C114.943 74.8397 115.665 75.0869 116.307 75.4811C116.949 75.8752 117.495 76.4066 117.907 77.0371C118.283 77.6124 118.539 78.2577 118.659 78.9342C118.779 79.6107 118.761 80.3046 118.606 80.974C118.451 81.6434 118.162 82.2746 117.757 82.8297C117.352 83.3847 116.839 83.8523 116.249 84.2041C116.033 84.3319 115.807 84.443 115.574 84.5362L107.539 109.112C107.306 109.597 106.98 110.032 106.579 110.39C106.178 110.748 105.71 111.024 105.202 111.201C104.694 111.378 104.156 111.452 103.619 111.421C103.082 111.389 102.556 111.251 102.073 111.016C101.589 110.781 101.157 110.452 100.8 110.049C100.444 109.646 100.171 109.176 99.9971 108.667C99.823 108.158 99.7512 107.62 99.7858 107.083C99.8205 106.546 99.9609 106.021 100.199 105.539L108.744 81.2357C108.511 80.4316 108.48 79.5825 108.653 78.7636C108.827 77.9446 109.2 77.1811 109.739 76.5406C110.278 75.9 110.966 75.4022 111.743 75.0912C112.521 74.7801 113.363 74.6655 114.195 74.7573Z" fill="#FFB7B7"/>
<path d="M104.447 84.0391C104.447 84.0391 109.05 91.9048 115.706 87.9724L109.256 112.657H103.821L98.1992 111.607L99.7734 101.408L104.447 84.0391Z" fill="#E5E5E5"/>
<path d="M137.318 89.4146L133.504 84.1786C133.504 84.1786 135.337 78.7476 142.444 80.7336C142.444 80.7336 146.967 90.8575 137.318 89.4146Z" fill="#E5E5E5"/>
<path opacity="0.17" d="M137.318 89.4146L133.504 84.1786C133.504 84.1786 135.337 78.7476 142.444 80.7336C142.444 80.7336 146.967 90.8575 137.318 89.4146Z" fill="#2F2E41"/>
<path d="M138.328 71.1189C139.429 71.6304 140.309 72.5199 140.809 73.6255C141.309 74.7311 141.395 75.9794 141.052 77.1433L149.597 101.447C149.835 101.929 149.975 102.454 150.01 102.991C150.045 103.527 149.973 104.066 149.799 104.575C149.625 105.084 149.352 105.553 148.995 105.956C148.639 106.36 148.207 106.688 147.723 106.924C147.24 107.159 146.714 107.297 146.177 107.329C145.64 107.36 145.102 107.285 144.594 107.109C144.086 106.932 143.618 106.656 143.217 106.298C142.816 105.939 142.489 105.505 142.257 105.02L134.222 80.4438C133.989 80.3505 133.763 80.2395 133.546 80.1117C132.956 79.7598 132.443 79.2923 132.038 78.7372C131.633 78.1822 131.345 77.5509 131.19 76.8815C131.035 76.2121 131.017 75.5183 131.137 74.8418C131.257 74.1653 131.512 73.52 131.888 72.9446C132.3 72.3142 132.847 71.7828 133.489 71.3886C134.131 70.9945 134.852 70.7473 135.601 70.6649C136.535 70.5591 137.479 70.7163 138.328 71.1189Z" fill="#FFB7B7"/>
<path d="M133.504 84.1793C133.504 84.1793 139.796 87.9974 142.444 80.7344L151.311 104.081L148.677 108.689L148.296 108.721C146.724 108.852 145.144 108.6 143.691 107.985C142.238 107.371 140.956 106.413 139.955 105.194C137.914 102.708 136.524 99.7523 135.911 96.5941L133.504 84.1793Z" fill="#E5E5E5"/>
</g>
<defs>
<clipPath id="clip0_1303_13242">
<rect width="240" height="175" fill="white"/>
</clipPath>
</defs>
</svg>
