<svg width="31" height="30" viewBox="0 0 31 30" fill="none" xmlns="http://www.w3.org/2000/svg">
<mask id="mask0_220_631" style="mask-type:luminance" maskUnits="userSpaceOnUse" x="0" y="0" width="31" height="30">
<path d="M-4.76837e-05 30L30.002 30L30.002 0L-4.76837e-05 0L-4.76837e-05 30Z" fill="white"/>
</mask>
<g mask="url(#mask0_220_631)">
<path d="M21.077 13.75L16.539 8.3C16.4338 8.17362 16.3546 8.02776 16.3059 7.87076C16.2572 7.71376 16.2399 7.54869 16.255 7.385C16.2861 7.05494 16.4468 6.7507 16.702 6.539C16.9572 6.32677 17.2864 6.22461 17.617 6.255C17.9476 6.28535 18.2526 6.44577 18.465 6.701L24.714 14.202C24.7562 14.2618 24.794 14.3246 24.827 14.39C24.8232 14.4224 24.8295 14.4551 24.8451 14.4838C24.8607 14.5124 24.8847 14.5356 24.914 14.55C24.971 14.6939 25.0009 14.8472 25.002 15.002C25.0004 15.1555 24.9705 15.3073 24.914 15.45C24.9183 15.483 24.9121 15.5165 24.8963 15.5457C24.8805 15.575 24.8559 15.5985 24.826 15.613C24.793 15.6784 24.7552 15.7412 24.713 15.801L18.462 23.301C18.3444 23.442 18.1973 23.5553 18.031 23.633C17.8653 23.7102 17.6847 23.7501 17.502 23.75C17.2098 23.7504 16.9268 23.6485 16.702 23.462C16.5754 23.3571 16.4707 23.2284 16.394 23.083C16.3173 22.9377 16.2701 22.7786 16.255 22.615C16.2398 22.4512 16.2571 22.2861 16.306 22.129C16.3547 21.9721 16.4338 21.8263 16.539 21.7L21.077 16.25L6.24995 16.25C6.08579 16.25 5.92323 16.2177 5.77155 16.1549C5.61987 16.0921 5.48205 16.0001 5.36595 15.884C5.13277 15.6497 5.00189 15.3326 5.00195 15.002C5.00192 14.8378 5.03423 14.6753 5.09703 14.5236C5.15983 14.3719 5.25189 14.2341 5.36795 14.118C5.48405 14.0019 5.62187 13.9099 5.77355 13.8471C5.92523 13.7843 6.08779 13.752 6.25195 13.752L21.077 13.75Z" fill="#CCCCCC"/>
</g>
</svg>
