<svg width="24" height="24" viewBox="0 0 24 24" fill="none" xmlns="http://www.w3.org/2000/svg">
<path d="M17.4682 10.726L13.3843 5.82136C13.2026 5.59064 13.1182 5.2981 13.149 5.00607C13.1799 4.71403 13.3235 4.44557 13.5493 4.25786C13.7752 4.07016 14.0654 3.97804 14.3581 4.00112C14.6509 4.02421 14.923 4.16069 15.1166 4.38148L20.7412 11.1309C20.7792 11.1848 20.8132 11.2413 20.8429 11.3001C20.8391 11.3296 20.8446 11.3594 20.8587 11.3856C20.8727 11.4117 20.8946 11.4328 20.9212 11.4459C21.0263 11.7057 21.0263 11.9961 20.9212 12.2559C20.9251 12.2855 20.9196 12.3157 20.9053 12.342C20.8911 12.3684 20.869 12.3895 20.842 12.4025C20.8126 12.461 20.7789 12.5173 20.7412 12.5708L15.1166 19.3203C15.0236 19.4385 14.9077 19.5369 14.776 19.6096C14.6443 19.6824 14.4993 19.728 14.3497 19.7438C14.2 19.7596 14.0488 19.7452 13.9048 19.7016C13.7607 19.658 13.6269 19.586 13.5112 19.4898C13.3955 19.3936 13.3002 19.2752 13.231 19.1416C13.1618 19.008 13.12 18.8619 13.1082 18.7119C13.0964 18.5619 13.1147 18.411 13.1621 18.2682C13.2095 18.1254 13.2851 17.9935 13.3843 17.8804L17.4682 12.9758L4.12491 12.9758C3.82657 12.9758 3.54044 12.8573 3.32948 12.6463C3.11852 12.4354 3 12.1492 3 11.8509C3 11.5525 3.11852 11.2664 3.32948 11.0555C3.54044 10.8445 3.82657 10.726 4.12491 10.726L17.4682 10.726Z" fill="white"/>
</svg>
