<svg width="31" height="30" viewBox="0 0 31 30" fill="none" xmlns="http://www.w3.org/2000/svg">
<mask id="mask0_220_443" style="mask-type:luminance" maskUnits="userSpaceOnUse" x="0" y="0" width="31" height="30">
<path d="M31 0H0.998047V30H31V0Z" fill="white"/>
</mask>
<g mask="url(#mask0_220_443)">
<path d="M9.92262 13.7501L14.4606 8.30011C14.6565 8.04319 14.7454 7.72051 14.7089 7.39952C14.6724 7.07853 14.5132 6.78408 14.2646 6.57774C14.0161 6.37139 13.6973 6.26911 13.3751 6.29229C13.0529 6.31547 12.7521 6.46231 12.5356 6.70211L6.28562 14.2021C6.24337 14.2619 6.2056 14.3247 6.17262 14.3901C6.1764 14.4225 6.17007 14.4553 6.15449 14.4839C6.13891 14.5125 6.11486 14.5357 6.08562 14.5501C5.96886 14.8387 5.96886 15.1615 6.08562 15.4501C6.08126 15.4831 6.08742 15.5166 6.10322 15.5459C6.11903 15.5751 6.14366 15.5987 6.17362 15.6131C6.20661 15.6785 6.24438 15.7413 6.28662 15.8011L12.5376 23.3011C12.6411 23.4325 12.7698 23.5418 12.9161 23.6226C13.0625 23.7034 13.2236 23.7541 13.3899 23.7717C13.5561 23.7892 13.7243 23.7733 13.8843 23.7248C14.0443 23.6763 14.193 23.5963 14.3216 23.4894C14.4502 23.3825 14.556 23.251 14.633 23.1025C14.7099 22.9541 14.7563 22.7917 14.7694 22.625C14.7826 22.4583 14.7622 22.2907 14.7095 22.132C14.6568 21.9733 14.5729 21.8268 14.4626 21.7011L9.92262 16.2501H24.7496C25.0811 16.2501 25.3991 16.1184 25.6335 15.884C25.8679 15.6496 25.9996 15.3316 25.9996 15.0001C25.9996 14.6686 25.8679 14.3506 25.6335 14.1162C25.3991 13.8818 25.0811 13.7501 24.7496 13.7501H9.92262Z" fill="#CCCCCC"/>
</g>
</svg>
