<svg width="240" height="175" viewBox="0 0 240 175" fill="none" xmlns="http://www.w3.org/2000/svg">
<g clip-path="url(#clip0_1303_13285)">
<path d="M-4 159.695C-4 160.048 -3.75603 160.331 -3.45221 160.331H242.942C243.246 160.331 243.49 160.048 243.49 159.695C243.49 159.342 243.246 159.059 242.942 159.059H-3.45221C-3.75603 159.059 -4 159.342 -4 159.695Z" fill="#E5E5E5"/>
<path d="M93.2289 13.7731L91.8896 17.1228C91.8896 17.1228 90.6554 21.8118 92.1028 23.6823C93.547 25.5496 93.8683 39.8677 92.3159 40.9239C90.7635 41.9832 111.991 31.1197 111.991 31.1197C111.991 31.1197 103.704 11.9026 103.564 11.8326C103.424 11.7627 97.9942 10.0703 97.9942 10.0703L93.2353 13.7731H93.2289Z" fill="#2F2E43"/>
<path d="M107.046 30.3303L99.9333 32.6684V22.4316H106.385L107.046 30.3303Z" fill="#F3A3A6"/>
<path d="M85.3052 88.4527C84.9203 90.7972 83.3552 92.48 81.8124 92.2096C80.2695 91.9392 79.3279 89.8174 79.716 87.4698C79.856 86.5313 80.2282 85.6406 80.8008 84.8804L82.5631 74.9648L87.3602 75.9701L85.1112 85.6375C85.407 86.5536 85.4738 87.5175 85.3052 88.4527Z" fill="#F3A3A6"/>
<path d="M104.372 144.949H97.7107V154.4H104.372V144.949Z" fill="#F3A3A6"/>
<path d="M91.2278 160.111C90.5279 160.111 89.9044 160.095 89.4336 160.05C87.6649 159.888 85.9758 158.581 85.1264 157.817C84.7447 157.473 84.6238 156.926 84.821 156.456C84.9642 156.118 85.2473 155.864 85.6004 155.765L90.2766 154.429L97.8477 149.32L97.9335 149.473C97.9654 149.53 98.7097 150.87 98.9579 151.773C99.0533 152.117 99.0279 152.403 98.8847 152.625C98.7861 152.778 98.6461 152.867 98.5348 152.918C98.6716 153.061 99.101 153.354 100.424 153.564C102.355 153.869 102.762 151.868 102.778 151.786L102.791 151.719L102.848 151.681C103.768 151.089 104.334 150.819 104.528 150.876C104.649 150.911 104.852 150.974 105.403 156.424C105.457 156.595 105.842 157.849 105.581 159.048C105.298 160.352 99.5973 159.904 98.4552 159.802C98.4234 159.805 94.1544 160.111 91.231 160.111H91.2278Z" fill="#2F2E43"/>
<path d="M123.345 137.52L117.692 141.045L122.694 149.064L128.346 145.539L123.345 137.52Z" fill="#F3A3A6"/>
<path d="M115.835 158.828C115.053 158.828 114.334 158.733 113.821 158.644C113.319 158.554 112.924 158.154 112.842 157.651C112.784 157.288 112.889 156.923 113.138 156.652L116.398 153.045L120.12 144.704L120.273 144.787C120.33 144.818 121.669 145.56 122.36 146.196C122.624 146.438 122.754 146.695 122.748 146.959C122.744 147.144 122.674 147.29 122.604 147.395C122.795 147.446 123.314 147.465 124.548 146.943C126.349 146.183 125.636 144.268 125.604 144.189L125.579 144.125L125.607 144.065C126.075 143.075 126.409 142.547 126.606 142.493C126.73 142.458 126.934 142.404 130.284 146.74C130.42 146.854 131.41 147.716 131.823 148.871C132.272 150.128 127.198 152.765 126.177 153.28C126.145 153.306 120.836 157.164 118.654 158.262C117.788 158.698 116.764 158.831 115.832 158.831L115.835 158.828Z" fill="#2F2E43"/>
<path d="M109.279 65.9082H90.6286L88.9363 83.2579L96.3419 147.364H105.863L102.055 110.339L117.499 143.766L125.961 137.843L113.902 106.636C113.902 106.636 118.209 79.4502 114.824 72.6776C111.439 65.9082 109.279 65.9082 109.279 65.9082Z" fill="#2F2E43"/>
<path d="M118.556 66.9738H86.188L97.8245 28.6797H110.73L118.556 66.9738Z" fill="#1BBEC3"/>
<path d="M99.8595 28.6779C99.8595 28.6779 91.8208 28.4647 90.9746 30.5833C90.1285 32.6988 80.1843 83.0525 80.1843 83.0525H86.7438L99.8626 28.6779H99.8595Z" fill="#1BBEC3"/>
<path d="M100.818 25.2668C104.733 25.2668 107.906 22.0936 107.906 18.1793C107.906 14.265 104.733 11.0918 100.818 11.0918C96.9039 11.0918 93.7307 14.265 93.7307 18.1793C93.7307 22.0936 96.9039 25.2668 100.818 25.2668Z" fill="#F3A3A6"/>
<path d="M102.193 7.16886C102.193 7.16886 110.725 4.98344 113.336 16.3368C113.336 16.3368 113.406 19.2984 114.889 20.4977C116.371 21.697 115.875 27.9033 115.875 27.9033C115.875 27.9033 118.697 32.5573 116.298 34.6727C116.298 34.6727 115.239 38.9736 116.791 41.4421C118.344 43.9106 124.197 57.4876 114.463 58.3147C114.463 58.3147 109.526 55.334 111.854 46.4492C114.183 37.5643 111.571 32.6559 111.571 32.6559C111.571 32.6559 104.095 29.9456 104.518 24.1623C104.942 18.3791 99.7214 12.6658 99.3714 12.739C99.0215 12.8121 95.3505 10.6935 93.7282 17.183L91.9913 16.8871C91.9913 16.8871 91.2628 5.96958 102.193 7.16886Z" fill="#2F2E43"/>
<path d="M124.082 87.3199C124.556 89.6484 123.687 91.7766 122.147 92.0724C120.608 92.3683 118.976 90.7173 118.505 88.3887C118.305 87.4598 118.336 86.4991 118.597 85.583L116.724 75.6866L121.565 74.9199L122.898 84.7559C123.499 85.5066 123.903 86.3846 124.082 87.3199Z" fill="#F3A3A6"/>
<path d="M105.088 28.7241C105.088 28.7241 112.17 27.827 113.016 29.9424C113.862 32.0579 123.806 82.4116 123.806 82.4116H117.247L105.088 28.7241Z" fill="#1BBEC3"/>
<path d="M124.362 81.4265C122.644 83.068 122.138 85.3106 123.236 86.4304C124.33 87.5533 126.611 87.1302 128.332 85.4856C129.029 84.8398 129.55 84.0318 129.859 83.1284L137.048 76.0727L133.511 72.6816L126.802 79.995C125.879 80.2686 125.046 80.7585 124.368 81.4233L124.362 81.4265Z" fill="#F3A3A6"/>
<path d="M127.165 78.1251L140.433 61.119L147.416 42.8435C148.179 40.8489 149.786 39.3443 151.828 38.7176C153.87 38.0909 156.046 38.4313 157.796 39.656C160.656 41.6538 161.569 45.4806 159.921 48.5568L149.159 68.6391L149.143 68.6709L130.728 82.6105L127.165 78.1315V78.1251Z" fill="#1BBEC3"/>
<path d="M158.259 40.8719L149.981 43.5917V31.6816H157.489L158.259 40.8719Z" fill="#F3A3A6"/>
<path d="M151.007 34.9791C155.561 34.9791 159.252 31.2875 159.252 26.7337C159.252 22.1799 155.561 18.4883 151.007 18.4883C146.453 18.4883 142.761 22.1799 142.761 26.7337C142.761 31.2875 146.453 34.9791 151.007 34.9791Z" fill="#F3A3A6"/>
<path d="M153.103 27.3744L151.967 28.755L149.912 25.1572C149.912 25.1572 147.288 25.294 147.288 23.3439C147.288 21.3971 144.88 21.343 144.88 21.343C144.88 21.343 141.47 15.3912 148.532 16.9595C148.532 16.9595 153.427 13.6034 155.864 16.4728C155.864 16.4728 163.33 20.2328 161.192 26.7795L157.642 33.5267L156.838 31.9997C156.838 31.9997 157.324 25.5866 153.103 27.3744Z" fill="#2F2E43"/>
<path d="M160.529 153.721H153.867V163.172H160.529V153.721Z" fill="#F3A3A6"/>
<path d="M147.381 168.888C146.681 168.888 146.057 168.872 145.586 168.828C143.818 168.665 142.129 167.358 141.279 166.594C140.898 166.251 140.777 165.704 140.974 165.233C141.117 164.896 141.4 164.641 141.753 164.543L146.429 163.207L154 158.098L154.086 158.25C154.118 158.308 154.863 159.647 155.111 160.55C155.206 160.894 155.181 161.18 155.038 161.403C154.939 161.556 154.799 161.645 154.688 161.695C154.824 161.839 155.254 162.131 156.577 162.341C158.508 162.647 158.915 160.646 158.931 160.563L158.944 160.496L159.001 160.458C159.921 159.866 160.487 159.596 160.681 159.653C160.802 159.688 161.005 159.752 161.556 165.201C161.61 165.373 161.995 166.626 161.734 167.825C161.451 169.13 155.75 168.681 154.608 168.579C154.576 168.583 150.307 168.888 147.384 168.888H147.381Z" fill="#2F2E43"/>
<path d="M174.638 139.555L169.505 143.801L175.529 151.083L180.662 146.837L174.638 139.555Z" fill="#F3A3A6"/>
<path d="M174.18 159.615C173.639 160.061 173.149 160.445 172.761 160.713C171.294 161.715 169.16 161.785 168.021 161.737C167.509 161.715 167.067 161.371 166.917 160.881C166.812 160.528 166.869 160.153 167.076 159.851L169.828 155.839L172.405 147.078L172.567 147.142C172.627 147.164 174.052 147.724 174.822 148.262C175.115 148.465 175.277 148.704 175.309 148.965C175.331 149.146 175.28 149.305 175.226 149.417C175.423 149.439 175.939 149.391 177.093 148.71C178.776 147.718 177.816 145.914 177.771 145.838L177.739 145.777L177.758 145.714C178.089 144.67 178.353 144.104 178.541 144.025C178.659 143.974 178.853 143.891 182.749 147.743C182.902 147.839 183.996 148.561 184.56 149.652C185.173 150.838 180.494 154.128 179.549 154.774C179.527 154.796 176.432 157.751 174.18 159.615Z" fill="#2F2E43"/>
<path d="M142.855 80.8359C143.491 80.8359 165.705 80.8359 165.705 80.8359L160.628 156.365H153.013L142.858 80.8359H142.855Z" fill="#2F2E43"/>
<path d="M147.509 84.9968L142.855 80.8359L145.181 122.375L171.205 147.127L177.695 141.767L162.53 122.092L147.509 84.9968Z" fill="#2F2E43"/>
<path d="M147.509 36.4065L158.793 34.5742L162.298 40.701C166.752 48.4884 168.568 57.51 167.477 66.4171L165.705 80.837H142.855L147.509 36.4065Z" fill="#1BBEC3"/>
<path d="M124.453 84.4069C122.557 85.8415 121.797 88.0079 122.754 89.2485C123.712 90.4891 126.028 90.3333 127.924 88.8986C128.69 88.3355 129.304 87.5943 129.711 86.7322L137.664 80.5545L134.54 76.7754L127.03 83.268C126.082 83.4334 125.197 83.8247 124.447 84.4069H124.453Z" fill="#F3A3A6"/>
<path d="M127.615 81.4493L142.758 66.0878L151.801 48.7412C152.788 46.8484 154.559 45.5378 156.662 45.1497C158.762 44.7616 160.883 45.3533 162.484 46.7689C165.095 49.0848 165.56 52.9912 163.568 55.8542L150.561 74.5591L150.542 74.5877L130.641 86.3069L127.619 81.4462L127.615 81.4493Z" fill="#1BBEC3"/>
</g>
<defs>
<clipPath id="clip0_1303_13285">
<rect width="240" height="175" fill="white"/>
</clipPath>
</defs>
</svg>
