<svg width="25" height="24" viewBox="0 0 25 24" fill="none" xmlns="http://www.w3.org/2000/svg">
<g clip-path="url(#clip0_131_55)">
<path d="M11.3721 21C11.3721 21 9.87207 21 9.87207 19.5C9.87207 18 11.3721 13.5 17.3721 13.5C23.3721 13.5 24.8721 18 24.8721 19.5C24.8721 21 23.3721 21 23.3721 21H11.3721ZM17.3721 12C18.5655 12 19.7101 11.5259 20.5541 10.682C21.398 9.83807 21.8721 8.69347 21.8721 7.5C21.8721 6.30653 21.398 5.16193 20.5541 4.31802C19.7101 3.47411 18.5655 3 17.3721 3C16.1786 3 15.034 3.47411 14.1901 4.31802C13.3462 5.16193 12.8721 6.30653 12.8721 7.5C12.8721 8.69347 13.3462 9.83807 14.1901 10.682C15.034 11.5259 16.1786 12 17.3721 12ZM8.69607 21C8.4737 20.5317 8.36281 20.0183 8.37207 19.5C8.37207 17.4675 9.39207 15.375 11.2761 13.92C10.3357 13.6303 9.35599 13.4886 8.37207 13.5C2.37207 13.5 0.87207 18 0.87207 19.5C0.87207 21 2.37207 21 2.37207 21H8.69607ZM7.62207 12C8.61663 12 9.57046 11.6049 10.2737 10.9017C10.977 10.1984 11.3721 9.24456 11.3721 8.25C11.3721 7.25544 10.977 6.30161 10.2737 5.59835C9.57046 4.89509 8.61663 4.5 7.62207 4.5C6.62751 4.5 5.67368 4.89509 4.97042 5.59835C4.26716 6.30161 3.87207 7.25544 3.87207 8.25C3.87207 9.24456 4.26716 10.1984 4.97042 10.9017C5.67368 11.6049 6.62751 12 7.62207 12Z" fill="#1BBEC3"/>
</g>
<defs>
<clipPath id="clip0_131_55">
<rect width="24" height="24" fill="white" transform="translate(0.87207)"/>
</clipPath>
</defs>
</svg>
