<svg width="25" height="24" viewBox="0 0 25 24" fill="none" xmlns="http://www.w3.org/2000/svg">
<path d="M6.87207 21C6.87207 21 5.37207 21 5.37207 19.5C5.37207 18 6.87207 13.5 12.8721 13.5C18.8721 13.5 20.3721 18 20.3721 19.5C20.3721 21 18.8721 21 18.8721 21H6.87207ZM12.8721 12C14.0655 12 15.2101 11.5259 16.0541 10.682C16.898 9.83807 17.3721 8.69347 17.3721 7.5C17.3721 6.30653 16.898 5.16193 16.0541 4.31802C15.2101 3.47411 14.0655 3 12.8721 3C11.6786 3 10.534 3.47411 9.69009 4.31802C8.84618 5.16193 8.37207 6.30653 8.37207 7.5C8.37207 8.69347 8.84618 9.83807 9.69009 10.682C10.534 11.5259 11.6786 12 12.8721 12Z" fill="#1BBEC3"/>
</svg>
