<svg width="25" height="24" viewBox="0 0 25 24" fill="none" xmlns="http://www.w3.org/2000/svg">
<path d="M15.1221 3H10.6221C8.07687 3 6.80337 3 6.01317 3.7911C5.22207 4.5813 5.22207 5.8548 5.22207 8.4V11.55C5.22207 13.2474 5.22207 14.0952 5.74947 14.6226C6.27687 15.15 7.12467 15.15 8.82207 15.15H16.9221C18.6195 15.15 19.4673 15.15 19.9947 14.6226C20.5221 14.0952 20.5221 13.2474 20.5221 11.55V8.4C20.5221 5.8548 20.5221 4.5813 19.731 3.7911C18.9408 3 17.6673 3 15.1221 3ZM6.57207 21H19.1721C19.8882 21 20.5749 20.7155 21.0813 20.2092C21.5876 19.7028 21.8721 19.0161 21.8721 18.3V17.4C21.8721 17.1613 21.7773 16.9324 21.6085 16.7636C21.4397 16.5948 21.2108 16.5 20.9721 16.5H17.0724C16.6829 16.5 16.3039 16.6263 15.9924 16.86L15.1518 17.49C14.8402 17.7237 14.4612 17.85 14.0718 17.85H11.6724C11.2829 17.85 10.9039 17.7237 10.5924 17.49L9.75177 16.86C9.4402 16.6263 9.06124 16.5 8.67177 16.5H4.77207C4.53338 16.5 4.30446 16.5948 4.13567 16.7636C3.96689 16.9324 3.87207 17.1613 3.87207 17.4V18.3C3.87207 19.0161 4.15653 19.7028 4.66288 20.2092C5.16923 20.7155 5.85599 21 6.57207 21Z" fill="#1BBEC3"/>
</svg>
