<svg width="14" height="14" viewBox="0 0 14 14" fill="none" xmlns="http://www.w3.org/2000/svg">
<path d="M6.99063 9.83265C5.61072 9.80483 4.26061 9.4262 3.06752 8.73243C1.87444 8.03866 0.877675 7.0526 0.171152 5.86716C0.0944471 5.74838 0.042043 5.61559 0.0169656 5.47644C-0.00811171 5.3373 -0.00536463 5.19456 0.0250485 5.05648C0.0554616 4.9184 0.112937 4.78772 0.194155 4.67198C0.275374 4.55624 0.37873 4.45774 0.498244 4.38216C0.740088 4.22829 1.03289 4.17603 1.31304 4.23675C1.5932 4.29747 1.83808 4.46626 1.99448 4.70645C2.50686 5.58515 3.23413 6.3193 4.10804 6.84C4.98194 7.3607 5.97383 7.65087 6.99063 7.6833C8.01169 7.65042 9.00762 7.35852 9.88483 6.83502C10.762 6.31153 11.4917 5.57363 12.0053 4.69068C12.1615 4.45026 12.4063 4.2812 12.6864 4.22022C12.9666 4.15924 13.2595 4.21127 13.5015 4.36502C13.621 4.44061 13.7244 4.5391 13.8056 4.65482C13.8868 4.77054 13.9444 4.9012 13.9748 5.03925C14.0053 5.17731 14.0081 5.32003 13.9832 5.45919C13.9582 5.59834 13.9059 5.73117 13.8293 5.85002C13.1218 7.03963 12.1229 8.02945 10.9267 8.72613C9.7306 9.42281 8.37669 9.80339 6.99269 9.83196L6.99063 9.83265Z" fill="#1BBEC3"/>
</svg>
