<svg width="19" height="19" viewBox="0 0 19 19" fill="none" xmlns="http://www.w3.org/2000/svg">
<path d="M3.48198 1H0.872314V5.83431C1.50961 6.82098 2.30518 7.68479 3.22381 8.38751C4.08501 8.98904 5.07948 9.34868 6.11173 9.43188C7.16916 9.36673 8.19058 9.0061 9.06969 8.38751C9.87684 7.70619 10.5141 6.83007 10.9267 5.83431V1H8.4921" stroke="#1BBEC3" stroke-width="1.5"/>
<path d="M6.12589 9.4306C6.12589 9.4306 5.95086 14.777 6.12589 15.17C6.62509 16.0375 7.333 16.7527 8.17893 17.2441C9.13256 17.7888 10.2057 18.0629 11.2918 18.0393C12.2753 18.0626 13.2467 17.8084 14.104 17.3034C14.9613 16.7984 15.6731 16.0612 16.1645 15.1691C16.2459 14.8439 16.1645 9.42969 16.1645 9.42969" stroke="#1BBEC3" stroke-width="1.5" stroke-linecap="round"/>
<path d="M16.1646 10.1098C17.1312 10.1098 17.9148 9.28944 17.9148 8.27753C17.9148 7.26563 17.1312 6.44531 16.1646 6.44531C15.1979 6.44531 14.4143 7.26563 14.4143 8.27753C14.4143 9.28944 15.1979 10.1098 16.1646 10.1098Z" fill="#1BBEC3"/>
</svg>
