<svg width="240" height="175" viewBox="0 0 240 175" fill="none" xmlns="http://www.w3.org/2000/svg">
<path opacity="0.1" d="M118.532 173.244C166.257 173.244 204.946 170.447 204.946 166.996C204.946 163.545 166.257 160.748 118.532 160.748C70.8076 160.748 32.1189 163.545 32.1189 166.996C32.1189 170.447 70.8076 173.244 118.532 173.244Z" fill="#1BBEC3"/>
<path opacity="0.1" d="M230.426 138.313C229.485 139.762 228.33 141.06 227 142.164C226.635 142.466 226.255 142.76 225.87 143.034C220.933 146.58 214.324 148.138 207.903 149.147C195.437 151.107 182.711 151.488 170.038 151.862C159.368 152.18 148.693 152.498 138.019 152.708C122.763 153.014 107.505 153.106 92.2729 152.708C83.9463 152.49 75.6263 152.104 67.313 151.552C51.888 150.496 36.0655 148.632 22.6376 142.122C20.1805 140.948 17.8323 139.558 15.6207 137.969C11.9741 135.312 8.97132 132.097 7.36563 128.289C4.7822 122.168 6.14744 115.29 9.09851 109.289C10.887 105.66 13.2101 102.262 15.6207 98.8935C17.0475 96.8944 18.5061 94.9071 19.8932 92.8901C20.0383 92.6913 20.1794 92.4787 20.3185 92.272C20.5868 91.8746 20.8531 91.4771 21.1134 91.0797C22.2024 89.4044 23.2338 87.6755 24.1797 85.9128C25.1227 84.1545 25.975 82.349 26.7334 80.5035C27.4289 78.8173 28.0261 77.0921 28.5219 75.3367C28.8518 74.1543 29.13 72.9679 29.3446 71.7815C30.5191 65.3209 29.8991 58.8644 26.4214 53.0199C26.3876 52.9622 26.3518 52.9006 26.316 52.843L26.2723 52.7734C25.2906 51.1618 24.1062 49.6435 22.9417 48.1193C21.5506 46.291 20.1814 44.4508 19.2176 42.4378C16.6819 37.1179 17.2303 31.1363 18.1524 25.4547C19.3825 17.9032 21.6718 9.75545 28.7604 5.04765C36.1231 0.147093 46.5761 0.395499 55.7154 2.14825C69.9163 4.86482 83.0302 10.5623 96.2712 15.7033C109.512 20.8443 123.375 25.5461 137.934 26.0489C150.789 26.496 165.783 23.1575 174.314 14.4732C182.601 6.04128 198.179 5.39939 209.411 10.4987C220.127 15.3575 227.056 25.6435 226.535 35.9136C225.776 50.8716 211.361 62.344 202.76 75.4321C202.374 76.0163 201.999 76.6145 201.641 77.2206C198.263 82.93 196.182 89.4859 198.674 95.4298C202.017 103.393 211.941 107.278 220.311 112.28C224.353 114.694 228.042 117.371 230.426 120.9C230.516 121.028 230.597 121.153 230.679 121.278C234.043 126.485 233.789 133.134 230.426 138.313Z" fill="#1BBEC3"/>
<path opacity="0.3" d="M21.1114 91.0781C22.2005 89.4029 23.2318 87.674 24.1778 85.9113C25.1213 84.1543 25.9742 82.3501 26.7334 80.506C27.4289 78.8197 28.0261 77.0945 28.5219 75.3391C28.8518 74.1567 29.13 72.9703 29.3446 71.7839C30.5191 65.3234 29.8991 58.8668 26.4214 53.0223C26.3876 52.9647 26.3518 52.9031 26.3161 52.8454L22.9377 48.1217H48.0069V64.7669H54.9802V114.697H63.9784V98.5005H74.7751V114.697H83.7674V87.0281H84.2166V72.6325H92.7617V87.0281H112.557V108.622H123.58V101.865H130.337V108.622H141.358V44.7394H155.754V34.6164H158.228V44.7394H162.276V64.759H169.476V48.1138H175.549V31.0234H188.144V48.1138H194.219V64.759H201.641V77.221C198.263 82.9304 196.182 89.4863 198.674 95.4302C202.017 103.393 211.941 107.278 220.311 112.28C224.353 114.697 228.042 117.373 230.426 120.903V138.321C229.485 139.768 228.33 141.064 227 142.166C226.635 142.468 226.255 142.763 225.87 143.037C220.933 146.582 214.324 148.14 207.903 149.15C195.437 151.109 182.711 151.491 170.038 151.864C159.368 152.182 148.693 152.5 138.019 152.711H92.2689C83.9423 152.492 75.6224 152.107 67.309 151.554C51.884 150.499 36.0615 148.635 22.6337 142.125C20.1766 140.95 17.8284 139.56 15.6167 137.971V98.896C17.0435 96.8968 18.5022 94.9095 19.8893 92.8925L21.1114 91.0781Z" fill="#1BBEC3"/>
<path opacity="0.4" d="M29.3367 71.7734V75.3286H28.522C28.8439 74.1462 29.1181 72.9598 29.3367 71.7734Z" fill="white"/>
<path opacity="0.4" d="M41.0336 75.3301H50.481V69.9307H41.0336V75.3301Z" fill="white"/>
<path opacity="0.4" d="M29.3365 80.5039V85.9013H24.1697C25.1156 84.147 25.9713 82.3455 26.7332 80.5039H29.3365Z" fill="white"/>
<path opacity="0.4" d="M41.0336 85.9004H50.481V80.501H41.0336V85.9004Z" fill="white"/>
<path opacity="0.4" d="M21.1113 91.0723H29.3365V96.4716H19.8892V92.8886L21.1113 91.0723Z" fill="white"/>
<path opacity="0.4" d="M41.0336 96.4727H50.481V91.0733H41.0336V96.4727Z" fill="white"/>
<path opacity="0.4" d="M29.3365 101.648H19.8892V107.048H29.3365V101.648Z" fill="white"/>
<path opacity="0.4" d="M41.0336 107.045H50.481V101.646H41.0336V107.045Z" fill="white"/>
<path opacity="0.4" d="M29.3365 112.221H19.8892V117.62H29.3365V112.221Z" fill="white"/>
<path opacity="0.4" d="M41.0336 117.617H50.481V112.218H41.0336V117.617Z" fill="white"/>
<path opacity="0.4" d="M29.3365 122.791H19.8892V128.19H29.3365V122.791Z" fill="white"/>
<path opacity="0.4" d="M41.0336 128.191H50.481V122.792H41.0336V128.191Z" fill="white"/>
<path opacity="0.4" d="M29.3365 133.365H19.8892V138.765H29.3365V133.365Z" fill="white"/>
<path opacity="0.4" d="M41.0336 138.762H50.481V133.362H41.0336V138.762Z" fill="white"/>
<path opacity="0.4" d="M80.3991 120.092H58.3545V122.79H80.3991V120.092Z" fill="white"/>
<path opacity="0.4" d="M80.3991 124.141H58.3545V126.839H80.3991V124.141Z" fill="white"/>
<path opacity="0.4" d="M80.3991 128.191H58.3545V130.89H80.3991V128.191Z" fill="white"/>
<path opacity="0.4" d="M137.984 121.443H115.939V124.142H137.984V121.443Z" fill="white"/>
<path opacity="0.4" d="M137.984 125.49H115.939V128.189H137.984V125.49Z" fill="white"/>
<path opacity="0.4" d="M137.984 129.539H115.939V132.238H137.984V129.539Z" fill="white"/>
<path opacity="0.4" d="M80.3991 132.24H58.3545V134.939H80.3991V132.24Z" fill="white"/>
<path opacity="0.4" d="M80.3991 136.287H58.3545V138.986H80.3991V136.287Z" fill="white"/>
<path opacity="0.4" d="M80.3991 140.338H58.3545V143.037H80.3991V140.338Z" fill="white"/>
<path opacity="0.4" d="M94.5682 92.2012H88.4951V100.075H94.5682V92.2012Z" fill="white"/>
<path opacity="0.4" d="M101.768 100.072H107.841V92.1988H101.768V100.072Z" fill="white"/>
<path opacity="0.4" d="M94.5682 104.793H88.4951V112.666H94.5682V104.793Z" fill="white"/>
<path opacity="0.4" d="M101.768 112.67H107.841V104.796H101.768V112.67Z" fill="white"/>
<path opacity="0.4" d="M94.5682 117.393H88.4951V125.266H94.5682V117.393Z" fill="white"/>
<path opacity="0.4" d="M101.768 125.266H107.841V117.392H101.768V125.266Z" fill="white"/>
<path opacity="0.4" d="M94.5682 129.99H88.4951V137.864H94.5682V129.99Z" fill="white"/>
<path opacity="0.4" d="M101.768 137.863H107.841V129.99H101.768V137.863Z" fill="white"/>
<path opacity="0.4" d="M149.454 49.9121H141.356V60.2597H149.454V49.9121Z" fill="white"/>
<path opacity="0.4" d="M149.454 64.7559H141.356V75.1035H149.454V64.7559Z" fill="white"/>
<path opacity="0.4" d="M149.454 79.6035H141.356V89.9511H149.454V79.6035Z" fill="white"/>
<path opacity="0.4" d="M149.454 94.4492H141.356V104.797H149.454V94.4492Z" fill="white"/>
<path opacity="0.4" d="M149.454 109.295H141.356V119.643H149.454V109.295Z" fill="white"/>
<path opacity="0.4" d="M149.454 124.141H141.356V134.488H149.454V124.141Z" fill="white"/>
<path opacity="0.4" d="M197.031 71.0566H166.888V79.8284H197.031V71.0566Z" fill="white"/>
<path opacity="0.4" d="M197.142 89.9531H167V98.7249H197.142V89.9531Z" fill="white"/>
<path opacity="0.4" d="M197.255 108.846H167.113V117.617H197.255V108.846Z" fill="white"/>
<path opacity="0.4" d="M197.367 127.74H167.224V136.512H197.367V127.74Z" fill="white"/>
<path opacity="0.4" d="M26.4134 52.834V53.0109C26.3796 52.9532 26.3439 52.8916 26.3081 52.834H26.4134Z" fill="white"/>
<path opacity="0.4" d="M230.426 120.9V124.147H220.311V112.283C224.353 114.694 228.042 117.371 230.426 120.9Z" fill="white"/>
<path opacity="0.4" d="M230.426 129.99V138.313C229.485 139.762 228.33 141.06 227 142.164C226.635 142.466 226.255 142.76 225.87 143.035H220.305V129.99H230.426Z" fill="white"/>
<path opacity="0.1" d="M75.1544 41.7423H73.6063C73.8936 41.7423 74.169 41.6282 74.3722 41.4251C74.5753 41.2219 74.6894 40.9465 74.6894 40.6592C74.6894 40.372 74.5753 40.0965 74.3722 39.8934C74.169 39.6903 73.8936 39.5762 73.6063 39.5762H61.0688C60.7815 39.5762 60.506 39.6903 60.3029 39.8934C60.0998 40.0965 59.9857 40.372 59.9857 40.6592C59.9857 40.9465 60.0998 41.2219 60.3029 41.4251C60.506 41.6282 60.7815 41.7423 61.0688 41.7423H62.6168C62.3374 41.7542 62.0733 41.8737 61.8798 42.0757C61.6863 42.2777 61.5782 42.5466 61.5782 42.8263C61.5782 43.1061 61.6863 43.375 61.8798 43.577C62.0733 43.7789 62.3374 43.8984 62.6168 43.9104H60.4507C60.1635 43.9104 59.888 44.0245 59.6849 44.2276C59.4818 44.4307 59.3677 44.7062 59.3677 44.9934C59.3677 45.2807 59.4818 45.5561 59.6849 45.7592C59.888 45.9624 60.1635 46.0765 60.4507 46.0765H72.9863C73.2735 46.0765 73.549 45.9624 73.7521 45.7592C73.9552 45.5561 74.0694 45.2807 74.0694 44.9934C74.0694 44.7062 73.9552 44.4307 73.7521 44.2276C73.549 44.0245 73.2735 43.9104 72.9863 43.9104H75.1544C75.4339 43.8984 75.6979 43.7789 75.8914 43.577C76.085 43.375 76.193 43.1061 76.193 42.8263C76.193 42.5466 76.085 42.2777 75.8914 42.0757C75.6979 41.8737 75.4339 41.7542 75.1544 41.7423Z" fill="#1BBEC3"/>
<path opacity="0.1" d="M130.49 68.9591H128.942C129.229 68.9591 129.504 68.845 129.707 68.6418C129.911 68.4387 130.025 68.1633 130.025 67.876C130.025 67.5888 129.911 67.3133 129.707 67.1102C129.504 66.9071 129.229 66.793 128.942 66.793H116.404C116.117 66.793 115.841 66.9071 115.638 67.1102C115.435 67.3133 115.321 67.5888 115.321 67.876C115.321 68.1633 115.435 68.4387 115.638 68.6418C115.841 68.845 116.117 68.9591 116.404 68.9591H117.948C117.669 68.971 117.405 69.0905 117.211 69.2925C117.018 69.4945 116.91 69.7634 116.91 70.0431C116.91 70.3228 117.018 70.5918 117.211 70.7938C117.405 70.9957 117.669 71.1152 117.948 71.1272H115.782C115.64 71.1272 115.499 71.1552 115.368 71.2096C115.236 71.264 115.117 71.3438 115.016 71.4444C114.916 71.5449 114.836 71.6643 114.781 71.7957C114.727 71.9271 114.699 72.068 114.699 72.2102C114.699 72.3524 114.727 72.4933 114.781 72.6247C114.836 72.7561 114.916 72.8755 115.016 72.976C115.117 73.0766 115.236 73.1564 115.368 73.2108C115.499 73.2652 115.64 73.2933 115.782 73.2933H128.322C128.609 73.2933 128.884 73.1792 129.087 72.976C129.291 72.7729 129.405 72.4975 129.405 72.2102C129.405 71.923 129.291 71.6475 129.087 71.4444C128.884 71.2413 128.609 71.1272 128.322 71.1272H130.49C130.769 71.1152 131.033 70.9957 131.227 70.7938C131.42 70.5918 131.528 70.3228 131.528 70.0431C131.528 69.7634 131.42 69.4945 131.227 69.2925C131.033 69.0905 130.769 68.971 130.49 68.9591Z" fill="#1BBEC3"/>
<path opacity="0.1" d="M224.739 33.42H223.191C223.478 33.42 223.754 33.3059 223.957 33.1028C224.16 32.8997 224.274 32.6242 224.274 32.337C224.274 32.0497 224.16 31.7742 223.957 31.5711C223.754 31.368 223.478 31.2539 223.191 31.2539H210.653C210.366 31.2539 210.091 31.368 209.887 31.5711C209.684 31.7742 209.57 32.0497 209.57 32.337C209.57 32.6242 209.684 32.8997 209.887 33.1028C210.091 33.3059 210.366 33.42 210.653 33.42H212.201C211.914 33.42 211.639 33.5341 211.435 33.7372C211.232 33.9403 211.118 34.2158 211.118 34.5031C211.118 34.7903 211.232 35.0658 211.435 35.2689C211.639 35.472 211.914 35.5861 212.201 35.5861H210.035C209.756 35.5981 209.492 35.7175 209.298 35.9195C209.105 36.1215 208.997 36.3904 208.997 36.6702C208.997 36.9499 209.105 37.2188 209.298 37.4208C209.492 37.6228 209.756 37.7422 210.035 37.7542H222.571C222.717 37.7605 222.863 37.7371 223 37.6854C223.137 37.6338 223.262 37.5549 223.368 37.4536C223.474 37.3524 223.558 37.2307 223.615 37.0961C223.673 36.9614 223.702 36.8166 223.702 36.6702C223.702 36.5238 223.673 36.3789 223.615 36.2442C223.558 36.1096 223.474 35.988 223.368 35.8867C223.262 35.7854 223.137 35.7066 223 35.6549C222.863 35.6032 222.717 35.5798 222.571 35.5861H224.739C225.026 35.5861 225.302 35.472 225.505 35.2689C225.708 35.0658 225.822 34.7903 225.822 34.5031C225.822 34.2158 225.708 33.9403 225.505 33.7372C225.302 33.5341 225.026 33.42 224.739 33.42Z" fill="#1BBEC3"/>
<g opacity="0.1">
<path d="M176.489 83.9379C176.541 83.9988 176.58 84.0698 176.604 84.1466C176.647 84.0142 176.659 83.8735 176.639 83.7356C176.619 83.5977 176.568 83.4663 176.489 83.3517C176.385 83.2324 176.234 83.1629 176.141 83.0377C176.141 83.0278 176.129 83.0158 176.121 83.0039C176.069 83.0982 176.043 83.2049 176.046 83.3127C176.05 83.4205 176.082 83.5253 176.141 83.616C176.234 83.7392 176.385 83.8107 176.489 83.9379Z" fill="black"/>
<path d="M179.432 76.4331C179.432 76.2125 179.441 75.9939 179.432 75.7773C179.39 74.9824 179.245 74.1875 179.211 73.3926C179.165 74.3584 179.38 75.3798 179.432 76.3556V76.4331Z" fill="black"/>
</g>
<path d="M65.1908 120.486C65.0298 120.6 64.9424 120.665 64.9424 120.665C65.0336 120.618 65.1173 120.558 65.1908 120.486Z" fill="url(#paint0_linear_1332_46643)"/>
<path d="M65.3854 120.676L65.137 120.857C65.2282 120.809 65.3119 120.748 65.3854 120.676Z" fill="url(#paint1_linear_1332_46643)"/>
<path d="M65.3854 120.486C65.2244 120.6 65.137 120.665 65.137 120.665C65.2282 120.618 65.3119 120.558 65.3854 120.486Z" fill="url(#paint2_linear_1332_46643)"/>
<path opacity="0.05" d="M73.366 65.9757L70.7603 65.4668L70.742 65.5604L73.3477 66.0693L73.366 65.9757Z" fill="black"/>
<path d="M140.728 147.574C140.728 147.574 141.964 149.19 140.157 151.63C138.351 154.071 136.863 156.129 137.465 157.65C137.465 157.65 140.189 153.119 142.407 153.055C144.625 152.991 143.168 150.299 140.728 147.574Z" fill="#1BBEC3"/>
<path opacity="0.1" d="M140.728 147.574C140.836 147.73 140.921 147.901 140.98 148.081C143.144 150.623 144.299 152.995 142.218 153.049C140.281 153.105 137.956 156.571 137.399 157.445C137.417 157.512 137.439 157.579 137.465 157.644C137.465 157.644 140.189 153.113 142.407 153.049C144.625 152.986 143.168 150.299 140.728 147.574Z" fill="black"/>
<path d="M143.025 149.634C143.025 150.204 142.962 150.665 142.884 150.665C142.807 150.665 142.741 150.204 142.741 149.634C142.741 149.063 142.821 149.334 142.9 149.334C142.98 149.334 143.025 149.065 143.025 149.634Z" fill="#FFD037"/>
<path d="M143.814 150.311C143.315 150.584 142.88 150.749 142.842 150.679C142.805 150.609 143.178 150.333 143.677 150.061C144.176 149.789 143.981 149.987 144.019 150.061C144.057 150.134 144.313 150.041 143.814 150.311Z" fill="#FFD037"/>
<path d="M134.202 147.574C134.202 147.574 132.966 149.19 134.772 151.63C136.579 154.071 138.067 156.129 137.465 157.65C137.465 157.65 134.741 153.119 132.523 153.055C130.305 152.991 131.762 150.299 134.202 147.574Z" fill="#1BBEC3"/>
<path opacity="0.1" d="M134.202 147.574C134.094 147.73 134.009 147.901 133.95 148.081C131.786 150.623 130.633 152.995 132.714 153.049C134.651 153.105 136.974 156.571 137.531 157.445C137.513 157.512 137.491 157.579 137.465 157.644C137.465 157.644 134.741 153.113 132.523 153.049C130.305 152.986 131.762 150.299 134.202 147.574Z" fill="black"/>
<path d="M131.904 149.634C131.904 150.204 131.968 150.665 132.047 150.665C132.127 150.665 132.19 150.204 132.19 149.634C132.19 149.063 132.109 149.334 132.031 149.334C131.954 149.334 131.904 149.065 131.904 149.634Z" fill="#FFD037"/>
<path d="M131.116 150.311C131.617 150.584 132.052 150.749 132.09 150.679C132.127 150.609 131.752 150.333 131.253 150.061C130.754 149.789 130.951 149.987 130.913 150.061C130.875 150.134 130.617 150.041 131.116 150.311Z" fill="#FFD037"/>
<path d="M132.298 157.441C132.298 157.441 135.754 157.334 136.795 156.593C137.837 155.851 142.109 154.967 142.36 156.155C142.61 157.344 147.55 162.069 143.651 162.101C139.752 162.133 134.587 161.493 133.548 160.859C132.509 160.225 132.298 157.441 132.298 157.441Z" fill="#A8A8A8"/>
<path opacity="0.2" d="M143.729 161.686C139.828 161.718 134.665 161.08 133.626 160.446C132.831 159.965 132.519 158.234 132.413 157.438H132.298C132.298 157.438 132.517 160.22 133.556 160.856C134.595 161.491 139.758 162.129 143.659 162.098C144.784 162.088 145.173 161.688 145.152 161.094C144.997 161.456 144.565 161.68 143.729 161.686Z" fill="black"/>
<path d="M125.637 159.977C125.923 159.741 126.131 159.424 126.233 159.067C126.31 158.707 126.155 158.272 125.812 158.143C125.414 157.994 125.017 158.262 124.699 158.54C124.381 158.819 124.025 159.121 123.616 159.063C123.827 158.872 123.984 158.629 124.074 158.359C124.163 158.089 124.18 157.8 124.124 157.521C124.107 157.405 124.058 157.297 123.983 157.207C123.769 156.978 123.387 157.078 123.123 157.259C122.306 157.833 122.078 158.942 122.074 159.941C121.99 159.582 122.06 159.206 122.058 158.836C122.056 158.467 121.954 158.057 121.642 157.859C121.449 157.753 121.231 157.702 121.01 157.71C120.643 157.696 120.233 157.732 119.983 158.002C119.671 158.336 119.753 158.896 120.023 159.262C120.293 159.627 120.706 159.858 121.086 160.114C121.391 160.295 121.651 160.543 121.845 160.84C121.869 160.88 121.889 160.924 121.903 160.969H124.206C124.726 160.705 125.207 160.371 125.637 159.977Z" fill="#1BBEC3"/>
<path d="M110.025 158.688C110.025 158.688 107.815 151.19 110.438 145.672C111.551 143.363 111.885 140.756 111.39 138.242C111.146 137.05 110.794 135.882 110.339 134.754" stroke="#535461" stroke-width="2" stroke-miterlimit="10"/>
<path d="M111.986 131.262C111.986 132.18 110.321 134.839 110.321 134.839C110.321 134.839 108.658 132.174 108.658 131.262C108.673 130.831 108.855 130.422 109.165 130.122C109.475 129.822 109.89 129.654 110.322 129.654C110.754 129.654 111.169 129.822 111.479 130.122C111.79 130.422 111.971 130.831 111.986 131.262Z" fill="#1BBEC3"/>
<path d="M114.727 136.353C114.226 137.127 111.382 138.458 111.382 138.458C111.382 138.458 111.434 135.316 111.933 134.545C112.173 134.175 112.55 133.914 112.981 133.822C113.413 133.73 113.864 133.812 114.234 134.052C114.605 134.292 114.865 134.669 114.957 135.101C115.049 135.532 114.967 135.983 114.727 136.353Z" fill="#1BBEC3"/>
<path d="M114.606 145.05C113.785 145.465 110.657 145.179 110.657 145.179C110.657 145.179 112.287 142.492 113.107 142.079C113.302 141.98 113.515 141.921 113.733 141.905C113.951 141.889 114.17 141.916 114.377 141.984C114.585 142.052 114.777 142.161 114.942 142.303C115.108 142.446 115.244 142.62 115.342 142.815C115.44 143.01 115.499 143.223 115.516 143.44C115.532 143.658 115.505 143.877 115.437 144.085C115.368 144.292 115.26 144.484 115.117 144.65C114.975 144.815 114.801 144.951 114.606 145.05Z" fill="#1BBEC3"/>
<path d="M113.034 151.613C112.295 152.159 109.163 152.408 109.163 152.408C109.163 152.408 110.315 149.484 111.054 148.938C111.409 148.674 111.855 148.563 112.292 148.627C112.729 148.692 113.123 148.928 113.386 149.283C113.65 149.638 113.762 150.083 113.697 150.52C113.632 150.957 113.397 151.351 113.042 151.615L113.034 151.613Z" fill="#1BBEC3"/>
<path d="M107.889 138.637C108.547 139.277 111.619 139.941 111.619 139.941C111.619 139.941 110.866 136.89 110.208 136.25C110.052 136.095 109.867 135.972 109.663 135.889C109.459 135.806 109.241 135.764 109.021 135.766C108.801 135.767 108.583 135.813 108.381 135.899C108.179 135.986 107.995 136.112 107.842 136.269C107.689 136.427 107.568 136.614 107.487 136.818C107.406 137.023 107.367 137.242 107.371 137.462C107.376 137.682 107.424 137.899 107.513 138.1C107.601 138.302 107.729 138.483 107.889 138.635V138.637Z" fill="#1BBEC3"/>
<path d="M106.146 146.336C106.966 146.751 110.094 146.465 110.094 146.465C110.094 146.465 108.465 143.779 107.644 143.365C107.448 143.267 107.235 143.208 107.017 143.192C106.798 143.176 106.579 143.203 106.371 143.272C106.163 143.341 105.97 143.45 105.805 143.593C105.639 143.736 105.503 143.911 105.405 144.106C105.306 144.302 105.247 144.515 105.231 144.734C105.215 144.952 105.242 145.172 105.311 145.38C105.38 145.588 105.489 145.78 105.632 145.946C105.776 146.112 105.95 146.248 106.146 146.346V146.336Z" fill="#1BBEC3"/>
<path d="M105.478 154.047C106.217 154.593 109.349 154.841 109.349 154.841C109.349 154.841 108.197 151.918 107.457 151.372C107.282 151.241 107.082 151.147 106.87 151.093C106.658 151.04 106.437 151.029 106.221 151.061C106.004 151.093 105.796 151.167 105.608 151.279C105.421 151.392 105.257 151.54 105.126 151.715C104.996 151.891 104.901 152.091 104.848 152.303C104.795 152.515 104.784 152.736 104.815 152.952C104.847 153.169 104.922 153.377 105.034 153.564C105.146 153.752 105.294 153.916 105.47 154.047H105.478Z" fill="#1BBEC3"/>
<path d="M111.986 131.262C111.986 132.18 110.321 134.839 110.321 134.839C110.321 134.839 108.658 132.174 108.658 131.262C108.673 130.831 108.855 130.422 109.165 130.122C109.475 129.822 109.89 129.654 110.322 129.654C110.754 129.654 111.169 129.822 111.479 130.122C111.79 130.422 111.971 130.831 111.986 131.262Z" fill="#1BBEC3"/>
<path d="M114.727 136.353C114.226 137.127 111.382 138.458 111.382 138.458C111.382 138.458 111.434 135.316 111.933 134.545C112.173 134.175 112.55 133.914 112.981 133.822C113.413 133.73 113.864 133.812 114.234 134.052C114.605 134.292 114.865 134.669 114.957 135.101C115.049 135.532 114.967 135.983 114.727 136.353Z" fill="#1BBEC3"/>
<path d="M114.606 145.05C113.785 145.465 110.657 145.179 110.657 145.179C110.657 145.179 112.287 142.492 113.107 142.079C113.302 141.98 113.515 141.921 113.733 141.905C113.951 141.889 114.17 141.916 114.377 141.984C114.585 142.052 114.777 142.161 114.942 142.303C115.108 142.446 115.244 142.62 115.342 142.815C115.44 143.01 115.499 143.223 115.516 143.44C115.532 143.658 115.505 143.877 115.437 144.085C115.368 144.292 115.26 144.484 115.117 144.65C114.975 144.815 114.801 144.951 114.606 145.05Z" fill="#1BBEC3"/>
<path d="M113.034 151.613C112.295 152.159 109.163 152.408 109.163 152.408C109.163 152.408 110.315 149.484 111.054 148.938C111.409 148.674 111.855 148.563 112.292 148.627C112.729 148.692 113.123 148.928 113.386 149.283C113.65 149.638 113.762 150.083 113.697 150.52C113.632 150.957 113.397 151.351 113.042 151.615L113.034 151.613Z" fill="#1BBEC3"/>
<path d="M107.889 138.637C108.547 139.277 111.619 139.941 111.619 139.941C111.619 139.941 110.866 136.89 110.208 136.25C110.052 136.095 109.867 135.972 109.663 135.889C109.459 135.806 109.241 135.764 109.021 135.766C108.801 135.767 108.583 135.813 108.381 135.899C108.179 135.986 107.995 136.112 107.842 136.269C107.689 136.427 107.568 136.614 107.487 136.818C107.406 137.023 107.367 137.242 107.371 137.462C107.376 137.682 107.424 137.899 107.513 138.1C107.601 138.302 107.729 138.483 107.889 138.635V138.637Z" fill="#1BBEC3"/>
<path d="M106.146 146.336C106.966 146.751 110.094 146.465 110.094 146.465C110.094 146.465 108.465 143.779 107.644 143.365C107.448 143.267 107.235 143.208 107.017 143.192C106.798 143.176 106.579 143.203 106.371 143.272C106.163 143.341 105.97 143.45 105.805 143.593C105.639 143.736 105.503 143.911 105.405 144.106C105.306 144.302 105.247 144.515 105.231 144.734C105.215 144.952 105.242 145.172 105.311 145.38C105.38 145.588 105.489 145.78 105.632 145.946C105.776 146.112 105.95 146.248 106.146 146.346V146.336Z" fill="#1BBEC3"/>
<path d="M105.478 154.047C106.217 154.593 109.349 154.841 109.349 154.841C109.349 154.841 108.197 151.918 107.457 151.372C107.282 151.241 107.082 151.147 106.87 151.093C106.658 151.04 106.437 151.029 106.221 151.061C106.004 151.093 105.796 151.167 105.608 151.279C105.421 151.392 105.257 151.54 105.126 151.715C104.996 151.891 104.901 152.091 104.848 152.303C104.795 152.515 104.784 152.736 104.815 152.952C104.847 153.169 104.922 153.377 105.034 153.564C105.146 153.752 105.294 153.916 105.47 154.047H105.478Z" fill="#1BBEC3"/>
<path d="M104.804 158.213C104.804 158.213 107.493 157.678 108.211 156.967C108.928 156.255 112.155 155.009 112.513 155.898C112.871 156.786 117.354 159.815 114.302 160.349C111.249 160.884 107.132 161.061 106.235 160.705C105.339 160.349 104.804 158.213 104.804 158.213Z" fill="#A8A8A8"/>
<path opacity="0.2" d="M114.307 160.018C111.259 160.552 107.135 160.729 106.239 160.373C105.556 160.103 105.083 158.8 104.894 158.188L104.804 158.207C104.804 158.207 105.343 160.344 106.239 160.699C107.135 161.055 111.259 160.876 114.307 160.344C115.186 160.189 115.438 159.827 115.343 159.368C115.267 159.674 114.967 159.903 114.307 160.018Z" fill="black"/>
<path d="M123.542 105.111C123.741 105.252 123.85 105.333 123.85 105.333C123.737 105.275 123.633 105.2 123.542 105.111Z" fill="url(#paint3_linear_1332_46643)"/>
<path d="M123.301 105.346L123.608 105.57C123.495 105.51 123.392 105.435 123.301 105.346Z" fill="url(#paint4_linear_1332_46643)"/>
<path d="M123.301 105.111C123.5 105.252 123.608 105.333 123.608 105.333C123.495 105.275 123.392 105.2 123.301 105.111Z" fill="url(#paint5_linear_1332_46643)"/>
<path d="M95.7482 158.954C95.7482 158.954 99.9743 164.942 102.791 164.824C102.791 164.824 110.662 166.349 105.251 167.758C99.839 169.168 84 163.884 84 163.884L85.8842 157.734L95.7482 158.954Z" fill="#333333"/>
<path d="M114.649 117.399L108.664 132.778L103.499 141.7C103.499 141.7 96.3946 157.49 96.857 160.542L85.5417 158.722C85.5417 158.722 94.3455 134.539 96.8103 131.253C96.8103 131.253 99.3931 129.725 99.2702 127.142L102.438 111.776C102.438 111.776 99.3563 108.802 101.078 105.075C101.17 104.877 101.271 104.684 101.383 104.497C103.73 100.507 112.652 102.736 112.652 102.736L114.649 117.399Z" fill="#A9AAB4"/>
<path opacity="0.03" d="M114.649 117.399L108.664 132.778L103.499 141.7C103.499 141.7 96.3946 157.49 96.857 160.542L85.5417 158.722C85.5417 158.722 94.3455 134.539 96.8103 131.253C96.8103 131.253 99.3931 129.725 99.2702 127.142L102.438 111.776C102.438 111.776 99.3563 108.802 101.078 105.075C101.17 104.877 101.271 104.684 101.383 104.497C103.73 100.507 112.652 102.736 112.652 102.736L114.649 117.399Z" fill="#A9AAB4"/>
<g opacity="0.1">
<path d="M96.8033 131.251C96.8033 131.251 99.3861 129.724 99.2631 127.141L102.439 111.774C102.439 111.774 99.3566 108.8 101.078 105.074C101.17 104.876 101.272 104.683 101.384 104.496C102.522 102.56 105.206 102.087 107.671 102.114C105.307 102.137 102.82 102.653 101.735 104.496C101.623 104.682 101.522 104.875 101.433 105.074C99.7108 108.8 102.791 111.774 102.791 111.774L99.6222 127.153C99.7379 129.736 97.1624 131.264 97.1624 131.264C94.7025 134.55 85.8938 158.733 85.8938 158.733L96.8574 160.479C96.8574 160.497 96.8574 160.519 96.8574 160.536L85.542 158.716C85.542 158.716 94.3385 134.538 96.8033 131.251Z" fill="#A9AAB4"/>
</g>
<path d="M135.428 156.373C135.428 156.373 140.124 160.363 144.702 160.481C144.702 160.481 152.684 160.235 150.455 162.009C148.226 163.782 128.383 166.35 128.383 166.35L127.5 159.495L135.428 156.373Z" fill="#333333"/>
<g opacity="0.1">
<path d="M118.17 101.786C118.17 101.786 125.918 112.703 128.971 123.738C128.971 123.738 131.677 128.434 131.317 133.248L136.25 157.079L127.21 160.481C127.21 160.481 127.679 157.546 125.918 155.903C124.157 154.26 120.049 137.589 120.401 135.007C120.401 135.007 114.765 120.919 109.13 115.402C103.494 109.884 100.692 108.61 99.8633 103.84C99.8633 103.848 113.122 97.4422 118.17 101.786Z" fill="black"/>
</g>
<path d="M118.406 101.784C118.406 101.784 126.154 112.701 129.205 123.736C129.205 123.736 131.91 128.432 131.554 133.246L136.473 157.077L127.446 160.479C127.446 160.479 127.913 157.544 126.154 155.901C124.395 154.258 120.283 137.588 120.637 135.005C120.637 135.005 115.001 120.917 109.366 115.4C103.73 109.882 100.926 108.608 100.097 103.838C100.097 103.846 113.358 97.4402 118.406 101.784Z" fill="#BBBDC8"/>
<g opacity="0.1">
<path d="M113.4 100.161C107.58 100.23 100.333 103.733 100.333 103.733C101.162 108.495 103.967 109.769 109.6 115.294C115.233 120.819 120.871 134.899 120.871 134.899C120.519 137.482 124.627 154.153 126.388 155.796C127.921 157.227 127.763 159.636 127.697 160.236L127.328 160.374C127.328 160.374 127.798 157.439 126.036 155.796C124.275 154.153 120.167 137.482 120.519 134.899C120.519 134.899 114.883 120.812 109.248 115.294C103.612 109.777 100.808 108.503 99.9816 103.733C99.9816 103.733 107.526 100.087 113.4 100.161Z" fill="black"/>
</g>
<path d="M124.162 84.7617C124.162 84.7617 129.765 91.7403 133.549 93.2556C133.964 93.4225 134.367 93.6198 134.754 93.846C135.279 94.1798 135.864 94.4103 136.476 94.5249C136.929 94.5673 137.372 94.6837 137.787 94.8693C139.755 95.7745 144.288 98.2245 141.295 100.377C137.538 103.083 132.491 96.8544 132.491 96.8544C132.491 96.8544 130.348 95.5113 129.086 95.2112C127.824 94.9111 122.044 90.8671 122.044 90.8671L124.162 84.7617Z" fill="#A1616A"/>
<path d="M123.102 83.3535L125.333 85.3485L122.046 89.4564L123.102 83.3535Z" fill="#46455B"/>
<g opacity="0.1">
<path d="M123.101 83.3535L125.332 85.3485L122.046 89.4564L123.101 83.3535Z" fill="black"/>
</g>
<path d="M117.449 59.9863C117.449 59.9863 122.791 64.5666 120.553 65.858L124.162 74.7799L122.919 107.415L117.825 98.9627L121.306 80.6491C121.306 80.6491 122.29 69.7323 119.441 67.1494L116.708 61.7377L117.449 59.9863Z" fill="#46455B"/>
<g opacity="0.1">
<path d="M116.743 58.3535C116.743 58.3535 122.085 62.9338 119.849 64.2252L123.453 73.1545L122.211 105.789L117.117 97.3373L120.595 79.0163C120.595 79.0163 121.579 68.0995 118.733 65.5166L115.997 60.1049L116.743 58.3535Z" fill="black"/>
</g>
<path d="M121.574 55.1772C121.574 55.1772 117.23 60.4585 117.348 63.5112C117.466 66.5639 109.13 58.2299 109.13 58.2299C109.13 58.2299 112.301 54.3556 111.479 50.2452C110.657 46.1348 121.574 55.1772 121.574 55.1772Z" fill="#915760"/>
<path d="M96.8032 81.7101L95.6274 91.1117V100.385C95.6274 100.385 97.2706 112.36 92.1049 110.129C86.9392 107.898 90.7077 99.672 90.7077 99.672C90.7077 99.672 90.7077 95.0917 90.0017 92.745C89.2957 90.3983 90.3535 80.0645 90.3535 80.0645L96.8032 81.7101Z" fill="#A1616A"/>
<path d="M112.888 59.5215C112.888 59.5215 116.044 62.5766 117.7 61.5164L119.953 67.1175C121.33 70.5434 121.955 74.2253 121.786 77.9138L120.989 99.0833L117.466 98.6135L116.29 78.5386L114.529 66.3304L112.888 59.5215Z" fill="#F2F2F2"/>
<g opacity="0.1">
<path d="M110.246 56.293C110.246 56.293 114.413 59.1685 115.587 61.6358C115.587 61.6358 115.705 64.3416 116.644 65.51C117.584 66.6785 118.521 72.5526 118.757 79.5976C118.994 86.6427 120.049 96.0319 120.049 96.0319C120.049 96.0319 121.81 105.19 123.687 106.117C123.687 106.117 115.001 99.5446 110.775 101.776C106.549 104.007 101.735 109.401 100.326 108.585C100.326 108.585 100.665 98.295 99.1253 92.8071C99.0958 92.7038 99.0663 92.6004 99.0343 92.4996C97.3912 87.1002 98.4464 79.7083 96.5745 76.5351C96.5745 76.5351 96.5745 70.7963 97.6568 66.5112C97.9372 65.417 98.4534 64.3973 99.1694 63.5237C99.8854 62.65 100.784 61.9435 101.802 61.4537L107.017 58.9349C107.017 58.9349 109.777 58.5241 110.246 56.293Z" fill="black"/>
</g>
<g opacity="0.1">
<path d="M110.246 56.293C110.246 56.293 114.182 59.4047 115.353 61.8695C115.353 61.8695 115.471 64.5753 116.408 65.7437C117.345 66.9122 118.287 72.7888 118.521 79.8313C118.755 86.8739 119.813 96.2779 119.813 96.2779C119.813 96.2779 121.574 105.434 123.453 106.363C123.453 106.363 114.765 99.7881 110.539 102.019C106.313 104.25 101.499 109.645 100.092 108.828C100.092 108.828 100.429 98.541 98.889 93.0531C98.8595 92.9473 98.83 92.8464 98.8004 92.7456C97.1548 87.3339 98.2125 79.9543 96.3406 76.7786C96.3406 76.7786 96.3406 71.0398 97.4254 66.7572C97.7048 65.6626 98.2205 64.6425 98.9361 63.7684C99.6517 62.8942 100.55 62.1873 101.568 61.6973L106.79 59.1685C106.79 59.1685 109.776 58.5241 110.246 56.293Z" fill="black"/>
</g>
<path d="M110.305 56.2324C110.305 56.2324 114.179 59.167 115.353 61.6441C115.353 61.6441 115.471 64.3499 116.408 65.5184C117.345 66.6868 118.287 72.5609 118.521 79.606C118.755 86.651 119.813 96.0304 119.813 96.0304C119.813 96.0304 121.574 105.188 123.453 106.116C123.453 106.116 114.765 99.5431 110.539 101.774C106.313 104.005 101.499 109.4 100.092 108.583C100.092 108.583 100.429 98.2935 98.889 92.8056L98.8004 92.4981C97.1548 87.0987 98.2125 79.7068 96.3406 76.5336C96.3406 76.5336 96.3406 70.7948 97.4254 66.5097C97.7048 65.4154 98.2205 64.3956 98.9361 63.5219C99.6518 62.6482 100.55 61.9418 101.568 61.4522L106.79 58.9235C106.79 58.9235 109.425 58.2864 110.305 56.2324Z" fill="#46455B"/>
<g opacity="0.1">
<path d="M99.5632 63.1031C99.5632 63.1031 87.6477 76.6619 89.2909 83.119C89.2909 83.119 95.3962 81.7119 97.0394 83.5888C97.0394 83.5888 98.3308 79.2447 102.205 76.7799C106.079 74.3152 109.649 58.5254 99.5632 63.1031Z" fill="black"/>
</g>
<path d="M99.5632 62.8675C99.5632 62.8675 87.6477 76.4262 89.2909 82.8834C89.2909 82.8834 95.3962 81.4739 97.0394 83.3532C97.0394 83.3532 98.3308 79.0091 102.205 76.5443C106.079 74.0795 109.649 58.2873 99.5632 62.8675Z" fill="#46455B"/>
<g opacity="0.1">
<path d="M111.186 52.8892C111.371 51.9422 111.216 51.8708 111.009 50.8352C110.187 46.7273 121.094 55.7549 121.094 55.7549C121.094 55.7549 120.487 56.4929 119.734 57.5801C119.178 57.695 118.612 57.7527 118.044 57.7523C115.06 57.7622 112.657 55.2433 111.186 52.8892Z" fill="black"/>
</g>
<path d="M118.524 57.1699C113.921 57.1699 110.19 53.4387 110.19 48.8359C110.19 44.2332 113.921 40.502 118.524 40.502C123.127 40.502 126.858 44.2332 126.858 48.8359C126.858 53.4387 123.127 57.1699 118.524 57.1699Z" fill="#A1616A"/>
<g opacity="0.1">
<path d="M126.011 46.5529C127.241 46.7178 128.803 46.307 129.039 45.0918C129.337 43.5568 127.283 42.5557 126.966 41.0232C126.845 40.4476 126.988 39.8474 126.919 39.2644C126.781 38.0886 125.832 37.1834 124.865 36.502C121.803 34.353 118.077 33.3602 114.352 33.7002C113.887 33.7052 113.434 33.8482 113.05 34.111C112.645 34.4455 112.49 34.9842 112.214 35.4295C111.262 36.9669 109.129 37.1514 107.597 38.1058C105.804 39.225 104.918 41.4217 104.837 43.5347C104.756 45.6477 105.358 47.7165 105.956 49.7458C106.463 51.4677 106.994 53.2388 108.106 54.6508C109.218 56.0628 111.058 57.0516 112.812 56.6187C112.01 56.0406 112.59 54.7024 113.459 54.2326C114.327 53.7628 115.402 53.6816 116.142 53.0347C116.883 52.3877 117.107 51.3251 117.35 50.3608C117.655 49.1309 118.088 47.901 118.984 47.0179C120.718 45.2812 123.871 46.2651 126.011 46.5529Z" fill="black"/>
</g>
<path d="M125.775 46.4374C127.005 46.6046 128.567 46.1914 128.806 44.9787C129.103 43.4413 127.049 42.4426 126.73 40.9076C126.612 40.332 126.754 39.7343 126.685 39.1488C126.548 37.973 125.596 37.0702 124.629 36.3864C121.567 34.2384 117.843 33.2456 114.118 33.5846C113.653 33.5905 113.2 33.7343 112.817 33.9979C112.411 34.33 112.253 34.8687 111.978 35.3139C111.028 36.8513 108.893 37.0358 107.361 37.9902C105.57 39.1095 104.682 41.3086 104.603 43.4191C104.525 45.5297 105.125 47.6009 105.72 49.6303C106.229 51.3522 106.758 53.1257 107.872 54.5377C108.987 55.9496 110.824 56.936 112.576 56.5056C111.776 55.93 112.357 54.5893 113.223 54.1195C114.088 53.6497 115.166 53.5709 115.909 52.9215C116.652 52.2721 116.873 51.2119 117.114 50.2477C117.419 49.0301 117.852 47.7878 118.747 46.9072C120.492 45.1656 123.638 46.1496 125.775 46.4374Z" fill="#464353"/>
<g opacity="0.1">
<path d="M126.821 41.2142C126.648 40.9506 126.523 40.6582 126.452 40.3508C126.334 39.7751 126.477 39.1749 126.408 38.592C126.382 38.3842 126.332 38.1803 126.258 37.9844C126.485 38.3355 126.631 38.733 126.686 39.1479C126.755 39.7333 126.612 40.3311 126.732 40.9067C126.753 41.0116 126.783 41.1144 126.821 41.2142Z" fill="#A1616A"/>
<path d="M107.595 53.9767C108.689 55.3689 110.497 56.343 112.219 55.9667C112.266 56.1853 112.394 56.3783 112.576 56.5079C110.829 56.9334 108.985 55.947 107.873 54.54C107.455 54.0007 107.103 53.4136 106.825 52.791C107.045 53.2087 107.303 53.6055 107.595 53.9767Z" fill="#A1616A"/>
<path d="M112.207 55.8721C111.55 55.2621 112.116 54.0174 112.945 53.5672C113.813 53.0974 114.888 53.0162 115.631 52.3693C116.374 51.7223 116.595 50.6597 116.836 49.693C117.141 48.4753 117.574 47.2331 118.469 46.3525C120.214 44.6084 123.36 45.5924 125.497 45.8802C126.727 46.045 128.289 45.6342 128.525 44.419C128.581 44.132 128.557 43.8351 128.457 43.5605C128.605 43.7621 128.712 43.9911 128.772 44.2342C128.832 44.4773 128.844 44.7299 128.806 44.9774C128.56 46.1926 127.003 46.6034 125.775 46.4361C123.638 46.1483 120.491 45.1644 118.747 46.9109C117.862 47.7989 117.419 49.0337 117.114 50.2514C116.868 51.2156 116.659 52.2709 115.909 52.9252C115.159 53.5795 114.091 53.6632 113.223 54.1232C112.6 54.4577 112.13 55.2449 112.207 55.8721Z" fill="#A1616A"/>
</g>
<path opacity="0.05" d="M113.422 37.6357L116.647 37.0059L116.67 37.1217L113.445 37.7516L113.422 37.6357Z" fill="black"/>
<g opacity="0.1">
<path d="M114.716 94.2794C113.064 94.298 111.43 94.6198 109.895 95.2289C107.435 96.2276 104.83 95.2289 104.83 95.2289C104.83 95.2289 112.249 93.0766 114.716 94.2794Z" fill="black"/>
</g>
<defs>
<linearGradient id="paint0_linear_1332_46643" x1="64.9424" y1="120.576" x2="65.1908" y2="120.576" gradientUnits="userSpaceOnUse">
<stop stop-color="#808080" stop-opacity="0.25"/>
<stop offset="0.54" stop-color="#808080" stop-opacity="0.12"/>
<stop offset="1" stop-color="#808080" stop-opacity="0.1"/>
</linearGradient>
<linearGradient id="paint1_linear_1332_46643" x1="65.137" y1="120.767" x2="65.3854" y2="120.767" gradientUnits="userSpaceOnUse">
<stop stop-color="#808080" stop-opacity="0.25"/>
<stop offset="0.54" stop-color="#808080" stop-opacity="0.12"/>
<stop offset="1" stop-color="#808080" stop-opacity="0.1"/>
</linearGradient>
<linearGradient id="paint2_linear_1332_46643" x1="65.137" y1="120.576" x2="65.3854" y2="120.576" gradientUnits="userSpaceOnUse">
<stop stop-color="#808080" stop-opacity="0.25"/>
<stop offset="0.54" stop-color="#808080" stop-opacity="0.12"/>
<stop offset="1" stop-color="#808080" stop-opacity="0.1"/>
</linearGradient>
<linearGradient id="paint3_linear_1332_46643" x1="123.85" y1="105.222" x2="123.542" y2="105.222" gradientUnits="userSpaceOnUse">
<stop stop-color="#808080" stop-opacity="0.25"/>
<stop offset="0.54" stop-color="#808080" stop-opacity="0.12"/>
<stop offset="1" stop-color="#808080" stop-opacity="0.1"/>
</linearGradient>
<linearGradient id="paint4_linear_1332_46643" x1="123.608" y1="105.459" x2="123.301" y2="105.459" gradientUnits="userSpaceOnUse">
<stop stop-color="#808080" stop-opacity="0.25"/>
<stop offset="0.54" stop-color="#808080" stop-opacity="0.12"/>
<stop offset="1" stop-color="#808080" stop-opacity="0.1"/>
</linearGradient>
<linearGradient id="paint5_linear_1332_46643" x1="123.608" y1="105.222" x2="123.301" y2="105.222" gradientUnits="userSpaceOnUse">
<stop stop-color="#808080" stop-opacity="0.25"/>
<stop offset="0.54" stop-color="#808080" stop-opacity="0.12"/>
<stop offset="1" stop-color="#808080" stop-opacity="0.1"/>
</linearGradient>
</defs>
</svg>
