<svg xmlns="http://www.w3.org/2000/svg" width="21.932" height="22" viewBox="0 0 21.932 22">
  <g id="Group_201" data-name="Group 201" transform="translate(-1491 -22)">
    <path id="Vector" d="M6,13.271v2.4a1.8,1.8,0,0,1-1.8,1.8H1.8a1.8,1.8,0,0,1-1.8-1.8v-2.4a1.8,1.8,0,0,1,1.8-1.8H4.2A1.8,1.8,0,0,1,6,13.271Z" transform="translate(1491 26.53)" fill="#333"/>
    <path id="Vector-2" data-name="Vector" d="M17.54,13.271v2.4a1.8,1.8,0,0,1-1.8,1.8h-2.4a1.8,1.8,0,0,1-1.8-1.8v-2.4a1.8,1.8,0,0,1,1.8-1.8h2.4A1.8,1.8,0,0,1,17.54,13.271Z" transform="translate(1487.425 26.53)" fill="#333"/>
    <path id="Vector-3" data-name="Vector" d="M6,1.8V4.2A1.8,1.8,0,0,1,4.2,6H1.8A1.8,1.8,0,0,1,0,4.2V1.8A1.8,1.8,0,0,1,1.8,0H4.2A1.8,1.8,0,0,1,6,1.8Z" transform="translate(1491 30)" fill="#333"/>
    <path id="Vector-4" data-name="Vector" d="M17.54,1.8V4.2a1.8,1.8,0,0,1-1.8,1.8h-2.4a1.8,1.8,0,0,1-1.8-1.8V1.8a1.8,1.8,0,0,1,1.8-1.8h2.4A1.8,1.8,0,0,1,17.54,1.8Z" transform="translate(1487.425 30)" fill="#333"/>
    <path id="Vector-5" data-name="Vector" d="M6,13.271v2.4a1.8,1.8,0,0,1-1.8,1.8H1.8a1.8,1.8,0,0,1-1.8-1.8v-2.4a1.8,1.8,0,0,1,1.8-1.8H4.2A1.8,1.8,0,0,1,6,13.271Z" transform="translate(1506.931 26.53)" fill="#333"/>
    <path id="Vector-6" data-name="Vector" d="M6,1.8V4.2A1.8,1.8,0,0,1,4.2,6H1.8A1.8,1.8,0,0,1,0,4.2V1.8A1.8,1.8,0,0,1,1.8,0H4.2A1.8,1.8,0,0,1,6,1.8Z" transform="translate(1506.931 30)" fill="#333"/>
    <path id="Vector-7" data-name="Vector" d="M6,1.8V4.2A1.8,1.8,0,0,1,4.2,6H1.8A1.8,1.8,0,0,1,0,4.2V1.8A1.8,1.8,0,0,1,1.8,0H4.2A1.8,1.8,0,0,1,6,1.8Z" transform="translate(1506.931 22)" fill="#333"/>
    <path id="Vector-8" data-name="Vector" d="M6,1.8V4.2A1.8,1.8,0,0,1,4.2,6H1.8A1.8,1.8,0,0,1,0,4.2V1.8A1.8,1.8,0,0,1,1.8,0H4.2A1.8,1.8,0,0,1,6,1.8Z" transform="translate(1498.965 22)" fill="#333"/>
    <path id="Vector-9" data-name="Vector" d="M6,1.8V4.2A1.8,1.8,0,0,1,4.2,6H1.8A1.8,1.8,0,0,1,0,4.2V1.8A1.8,1.8,0,0,1,1.8,0H4.2A1.8,1.8,0,0,1,6,1.8Z" transform="translate(1491 22)" fill="#333"/>
  </g>
</svg>
