<svg xmlns="http://www.w3.org/2000/svg" xmlns:xlink="http://www.w3.org/1999/xlink" width="18.286" height="20" viewBox="0 0 18.286 20">
  <defs>
    <clipPath id="clip-path">
      <rect id="Rectangle_3022" data-name="Rectangle 3022" width="18.286" height="20" fill="#fff"/>
    </clipPath>
  </defs>
  <g id="Group_15519" data-name="Group 15519" clip-path="url(#clip-path)">
    <path id="Path_3522" data-name="Path 3522" d="M3.191,20a3.016,3.016,0,0,1-1.528-.4A3.736,3.736,0,0,1,0,16.155V3.843A3.734,3.734,0,0,1,1.662.4,3.736,3.736,0,0,1,5.473.684L16.136,6.839A3.741,3.741,0,0,1,18.286,10a3.739,3.739,0,0,1-2.149,3.159L13.606,14.62a.9.9,0,1,1-.9-1.562l2.529-1.46A2.085,2.085,0,0,0,16.481,10a2.087,2.087,0,0,0-1.249-1.6L4.571,2.246a2.082,2.082,0,0,0-2.007-.284A2.085,2.085,0,0,0,1.8,3.843V16.155a2.088,2.088,0,0,0,.761,1.881,2.1,2.1,0,0,0,2.007-.283l4.155-2.4a.9.9,0,1,1,.9,1.563l-4.156,2.4A4.618,4.618,0,0,1,3.191,20" transform="translate(0 0)" fill="#fff"/>
  </g>
</svg>
