<svg width="24" height="25" viewBox="0 0 24 25" fill="none" xmlns="http://www.w3.org/2000/svg">
<path d="M4 7.32617V9.32617H20V7.32617C20 6.79574 19.7893 6.28703 19.4142 5.91196C19.0391 5.53689 18.5304 5.32617 18 5.32617H6C5.46957 5.32617 4.96086 5.53689 4.58579 5.91196C4.21071 6.28703 4 6.79574 4 7.32617Z" fill="#1BBDC3"/>
<path d="M16 5.32617H18C18.5304 5.32617 19.0391 5.53689 19.4142 5.91196C19.7893 6.28703 20 6.79574 20 7.32617V9.32617H4V7.32617C4 6.79574 4.21071 6.28703 4.58579 5.91196C4.96086 5.53689 5.46957 5.32617 6 5.32617H8M16 5.32617V3.32617M16 5.32617H8M8 5.32617V3.32617M4 9.82617V19.3262C4 19.8566 4.21071 20.3653 4.58579 20.7404C4.96086 21.1155 5.46957 21.3262 6 21.3262H18C18.5304 21.3262 19.0391 21.1155 19.4142 20.7404C19.7893 20.3653 20 19.8566 20 19.3262V9.82617" stroke="#1BBDC3" stroke-width="2" stroke-linecap="round" stroke-linejoin="round"/>
</svg>
