<svg width="24" height="25" viewBox="0 0 24 25" fill="none" xmlns="http://www.w3.org/2000/svg">
<path d="M4 22.3262C3.45 22.3262 2.979 22.1302 2.587 21.7382C2.195 21.3462 1.99934 20.8755 2 20.3262V6.32617C2 5.77617 2.196 5.30517 2.588 4.91317C2.98 4.52117 3.45067 4.32551 4 4.32617H5H7H15H17H18C18.55 4.32617 19.021 4.52217 19.413 4.91417C19.805 5.30617 20.0007 5.77684 20 6.32617V12.0012C19.6833 11.8512 19.3583 11.7262 19.025 11.6262C18.6917 11.5262 18.35 11.4512 18 11.4012V10.3262H4V15.3262V20.3262H10.3C10.4167 20.6928 10.5543 21.0428 10.713 21.3762C10.8717 21.7095 11.059 22.0262 11.275 22.3262H4ZM17 23.3262C15.6167 23.3262 14.4373 22.8385 13.462 21.8632C12.4867 20.8878 11.9993 19.7088 12 18.3262C12 16.9428 12.4877 15.7635 13.463 14.7882C14.4383 13.8128 15.6173 13.3255 17 13.3262C18.3833 13.3262 19.5627 13.8138 20.538 14.7892C21.5133 15.7645 22.0007 16.9435 22 18.3262C22 19.7095 21.5123 20.8888 20.537 21.8642C19.5617 22.8395 18.3827 23.3268 17 23.3262ZM18.675 20.7012L19.375 20.0012L17.5 18.1262V15.3262H16.5V18.5262L18.675 20.7012Z" fill="#1BBDC3"/>
<path d="M16 2.32617V6.32617M6 2.32617V6.32617" stroke="#1BBDC3" stroke-width="2" stroke-linecap="round" stroke-linejoin="round"/>
</svg>
