<svg width="24" height="25" viewBox="0 0 24 25" fill="none" xmlns="http://www.w3.org/2000/svg">
<g id="Light/Icon">
<path id="Vector" d="M17 3.51562H7C4 3.51562 2 5.01563 2 8.51563V15.5156C2 19.0156 4 20.5156 7 20.5156H17C20 20.5156 22 19.0156 22 15.5156V8.51563C22 5.01563 20 3.51562 17 3.51562ZM17.47 9.60563L14.34 12.1056C13.68 12.6356 12.84 12.8956 12 12.8956C11.16 12.8956 10.31 12.6356 9.66 12.1056L6.53 9.60563C6.21 9.34563 6.16 8.86563 6.41 8.54563C6.67 8.22563 7.14 8.16563 7.46 8.42563L10.59 10.9256C11.35 11.5356 12.64 11.5356 13.4 10.9256L16.53 8.42563C16.85 8.16563 17.33 8.21563 17.58 8.54563C17.84 8.86563 17.79 9.34563 17.47 9.60563Z" fill="#646464"/>
</g>
</svg>
