<svg width="24" height="25" viewBox="0 0 24 25" fill="none" xmlns="http://www.w3.org/2000/svg">
<g id="Light/Icon">
<g id="vuesax/linear/call">
<g id="call">
<g id="call_2">
<path id="Vector" d="M20.3096 17.2958C20.3096 17.5958 20.243 17.9042 20.1013 18.2042C19.9596 18.5042 19.7763 18.7875 19.5346 19.0542C19.1263 19.5042 18.6763 19.8292 18.168 20.0375C17.668 20.2458 17.1263 20.3542 16.543 20.3542C15.693 20.3542 14.7846 20.1542 13.8263 19.7458C12.868 19.3375 11.9096 18.7875 10.9596 18.0958C10.0013 17.3958 9.09297 16.6208 8.2263 15.7625C7.36797 14.8958 6.59297 13.9875 5.9013 13.0375C5.21797 12.0875 4.66797 11.1375 4.26797 10.1958C3.86797 9.24583 3.66797 8.3375 3.66797 7.47083C3.66797 6.90417 3.76797 6.3625 3.96797 5.8625C4.16797 5.35417 4.48464 4.8875 4.9263 4.47083C5.45964 3.94583 6.04297 3.6875 6.65964 3.6875C6.89297 3.6875 7.1263 3.7375 7.33464 3.8375C7.5513 3.9375 7.74297 4.0875 7.89297 4.30417L9.8263 7.02917C9.9763 7.2375 10.0846 7.42917 10.1596 7.6125C10.2346 7.7875 10.2763 7.9625 10.2763 8.12083C10.2763 8.32083 10.218 8.52083 10.1013 8.7125C9.99297 8.90417 9.83464 9.10417 9.63464 9.30417L9.0013 9.9625C8.90964 10.0542 8.86797 10.1625 8.86797 10.2958C8.86797 10.3625 8.8763 10.4208 8.89297 10.4875C8.91797 10.5542 8.94297 10.6042 8.95964 10.6542C9.10964 10.9292 9.36797 11.2875 9.73464 11.7208C10.1096 12.1542 10.5096 12.5958 10.943 13.0375C11.393 13.4792 11.8263 13.8875 12.268 14.2625C12.7013 14.6292 13.0596 14.8792 13.343 15.0292C13.3846 15.0458 13.4346 15.0708 13.493 15.0958C13.5596 15.1208 13.6263 15.1292 13.7013 15.1292C13.843 15.1292 13.9513 15.0792 14.043 14.9875L14.6763 14.3625C14.8846 14.1542 15.0846 13.9958 15.2763 13.8958C15.468 13.7792 15.6596 13.7208 15.868 13.7208C16.0263 13.7208 16.193 13.7542 16.3763 13.8292C16.5596 13.9042 16.7513 14.0125 16.9596 14.1542L19.718 16.1125C19.9346 16.2625 20.0846 16.4375 20.1763 16.6458C20.2596 16.8542 20.3096 17.0625 20.3096 17.2958Z" fill="#646464"/>
</g>
</g>
</g>
</g>
</svg>
