<svg width="54" height="54" viewBox="0 0 54 54" fill="none" xmlns="http://www.w3.org/2000/svg">
<path d="M36 36L27 27L18 36" stroke="#1A4FBA" stroke-width="2" stroke-linecap="round" stroke-linejoin="round"/>
<path d="M27 27V47.25" stroke="#1A4FBA" stroke-width="2" stroke-linecap="round" stroke-linejoin="round"/>
<path d="M45.8817 41.3798C48.0762 40.1834 49.8098 38.2903 50.8089 35.9992C51.808 33.7081 52.0157 31.1496 51.3991 28.7273C50.7826 26.3051 49.377 24.1572 47.4042 22.6225C45.4314 21.0879 43.0036 20.2539 40.5042 20.2523H37.6692C36.9881 17.6181 35.7188 15.1725 33.9566 13.0995C32.1943 11.0265 29.9851 9.37995 27.4949 8.28365C25.0047 7.18735 22.2984 6.66984 19.5794 6.77002C16.8605 6.8702 14.1996 7.58546 11.7968 8.86203C9.39408 10.1386 7.31198 11.9433 5.70708 14.1403C4.10218 16.3374 3.01624 18.8697 2.53089 21.5469C2.04554 24.2241 2.17342 26.9765 2.90491 29.5971C3.63641 32.2178 4.95248 34.6385 6.75418 36.6773" stroke="#1A4FBA" stroke-width="2" stroke-linecap="round" stroke-linejoin="round"/>
<path d="M36 36L27 27L18 36" stroke="#1A4FBA" stroke-width="2" stroke-linecap="round" stroke-linejoin="round"/>
</svg>
