<svg width="24" height="24" viewBox="0 0 24 24" fill="none" xmlns="http://www.w3.org/2000/svg">
<path d="M10.9702 2.188C11.0656 2.11004 11.1771 2.05421 11.2967 2.02453C11.4163 1.99486 11.5409 1.99207 11.6617 2.01637L19.9933 3.68268C20.1821 3.72042 20.352 3.82238 20.4741 3.97124C20.5963 4.12009 20.6631 4.30664 20.6632 4.49918V19.491C20.6631 19.6836 20.5963 19.8701 20.4741 20.019C20.352 20.1678 20.1821 20.2698 19.9933 20.3075L11.6617 21.9738C11.5409 21.998 11.4162 21.995 11.2967 21.9652C11.1771 21.9354 11.0657 21.8794 10.9704 21.8013C10.8751 21.7232 10.7983 21.6249 10.7455 21.5136C10.6927 21.4022 10.6653 21.2806 10.6653 21.1573V2.83286M15.6642 11.9943C15.6642 11.7733 15.5764 11.5614 15.4202 11.4051C15.2639 11.2489 15.052 11.1611 14.8311 11.1611C14.6101 11.1611 14.3982 11.2489 14.2419 11.4051C14.0857 11.5614 13.9979 11.7733 13.9979 11.9943C13.9979 12.2152 14.0857 12.4272 14.2419 12.5834C14.3982 12.7396 14.6101 12.8274 14.8311 12.8274C15.052 12.8274 15.2639 12.7396 15.4202 12.5834C15.5764 12.4272 15.6642 12.2152 15.6642 11.9943ZM8.99895 3.66602H4.83316C4.61219 3.66602 4.40027 3.7538 4.24403 3.91005C4.08778 4.0663 4 4.27821 4 4.49918V19.491C4 19.712 4.08778 19.9239 4.24403 20.0802C4.40027 20.2364 4.61219 20.3242 4.83316 20.3242H8.99895V3.66602ZM10.9702 2.188C10.8748 2.26621 10.798 2.36463 10.7452 2.47615C10.6925 2.58767 10.6652 2.7095 10.6653 2.83286L10.9702 2.188Z" fill="white"/>
</svg>
