<svg width="18" height="18" viewBox="0 0 18 18" fill="none" xmlns="http://www.w3.org/2000/svg">
<g clip-path="url(#clip0_574_4244)">
<path d="M16.869 6.08791C16.4969 5.19264 15.7421 4.22599 15.1511 3.92043C15.5726 4.73658 15.8651 5.61307 16.0183 6.51876L16.0199 6.53312C15.0517 4.12038 13.4105 3.14601 12.0693 1.02713C12.0015 0.919972 11.9337 0.812592 11.8676 0.699247C11.8298 0.634509 11.7996 0.57618 11.7733 0.52249C11.7177 0.41479 11.6748 0.30097 11.6456 0.183337C11.6456 0.177909 11.6436 0.172656 11.6401 0.168581C11.6365 0.164506 11.6315 0.161893 11.6261 0.161242C11.6208 0.159794 11.6153 0.159794 11.61 0.161242C11.6089 0.161242 11.6071 0.163231 11.6058 0.163673C11.6045 0.164114 11.6016 0.166103 11.5996 0.166987L11.6029 0.161242C9.452 1.42064 8.72177 3.75162 8.65549 4.91822C7.79622 4.97713 6.97466 5.29367 6.29799 5.82653C6.22742 5.76676 6.15366 5.71085 6.07704 5.65905C5.88195 4.97609 5.87363 4.2533 6.05296 3.56603C5.26305 3.94866 4.56117 4.49112 3.99175 5.15905H3.98778C3.6484 4.72887 3.67226 3.31039 3.69171 3.0141C3.59131 3.05445 3.49547 3.10533 3.4058 3.16589C3.10621 3.37971 2.82613 3.61964 2.56886 3.88286C2.27568 4.18011 2.00791 4.50138 1.76837 4.84332V4.84464V4.8431C1.21789 5.6234 0.8274 6.505 0.619446 7.43701L0.607957 7.49357C0.591828 7.56891 0.533719 7.94629 0.523776 8.02826C0.523776 8.03467 0.522451 8.04063 0.521788 8.04704C0.446831 8.43665 0.400383 8.8312 0.382812 9.22756V9.27175C0.386597 11.4146 1.19359 13.4782 2.6445 15.0551C4.0954 16.6321 6.08478 17.6078 8.21991 17.7896C10.355 17.9715 12.4808 17.3463 14.1775 16.0374C15.8742 14.7286 17.0185 12.8312 17.3846 10.7198C17.399 10.6094 17.4107 10.5 17.4235 10.3884C17.5999 8.93059 17.409 7.45179 16.8681 6.08658L16.869 6.08791ZM6.99928 12.7914C7.03927 12.8106 7.07683 12.8314 7.11792 12.8498L7.12389 12.8535C7.08235 12.8336 7.04081 12.8129 6.99928 12.7914ZM16.0201 6.53555V6.52737L16.0216 6.53643L16.0201 6.53555Z" fill="url(#paint0_linear_574_4244)"/>
<path d="M16.8691 6.08936C16.4971 5.19408 15.7423 4.22744 15.1513 3.92188C15.5727 4.73803 15.8653 5.61452 16.0185 6.52021V6.52838L16.02 6.53744C16.6802 8.42632 16.5847 10.4973 15.7536 12.3174C14.7721 14.4232 12.3974 16.5817 8.67887 16.4756C4.66207 16.3618 1.12251 13.3802 0.461876 9.47603C0.34146 8.86025 0.461876 8.54805 0.522415 8.04761C0.439837 8.43634 0.393753 8.83193 0.384766 9.22923V9.27342C0.38855 11.4163 1.19555 13.4799 2.64645 15.0568C4.09736 16.6337 6.08673 17.6094 8.22186 17.7913C10.357 17.9731 12.4827 17.3479 14.1794 16.0391C15.8761 14.7302 17.0205 12.8329 17.3866 10.7215C17.401 10.611 17.4127 10.5017 17.4255 10.3901C17.6019 8.93226 17.4109 7.45346 16.87 6.08826L16.8691 6.08936Z" fill="url(#paint1_radial_574_4244)"/>
<path d="M16.8691 6.08936C16.4971 5.19408 15.7423 4.22744 15.1513 3.92188C15.5727 4.73803 15.8653 5.61452 16.0185 6.52021V6.52838L16.02 6.53744C16.6802 8.42632 16.5847 10.4973 15.7536 12.3174C14.7721 14.4232 12.3974 16.5817 8.67887 16.4756C4.66207 16.3618 1.12251 13.3802 0.461876 9.47603C0.34146 8.86025 0.461876 8.54805 0.522415 8.04761C0.439837 8.43634 0.393753 8.83193 0.384766 9.22923V9.27342C0.38855 11.4163 1.19555 13.4799 2.64645 15.0568C4.09736 16.6337 6.08673 17.6094 8.22186 17.7913C10.357 17.9731 12.4827 17.3479 14.1794 16.0391C15.8761 14.7302 17.0205 12.8329 17.3866 10.7215C17.401 10.611 17.4127 10.5017 17.4255 10.3901C17.6019 8.93226 17.4109 7.45346 16.87 6.08826L16.8691 6.08936Z" fill="url(#paint2_radial_574_4244)"/>
<path d="M12.7069 7.09346C12.7255 7.10649 12.7427 7.11953 12.7601 7.13256C12.545 6.75114 12.2773 6.40193 11.9647 6.09522C9.30233 3.43282 11.2672 0.324099 11.5984 0.165017L11.6017 0.160156C9.45081 1.41955 8.72058 3.75054 8.6543 4.91713C8.75416 4.91028 8.85315 4.90189 8.95523 4.90189C9.71834 4.90336 10.4675 5.10688 11.1264 5.49174C11.7854 5.8766 12.3307 6.42908 12.7069 7.09301V7.09346Z" fill="url(#paint3_radial_574_4244)"/>
<path d="M8.95976 7.62684C8.94562 7.83983 8.19308 8.57447 7.92993 8.57447C5.4951 8.57447 5.09961 10.0475 5.09961 10.0475C5.20743 11.2879 6.07177 12.31 7.11663 12.8491C7.16435 12.8739 7.21274 12.8962 7.26113 12.9181C7.34494 12.9552 7.42875 12.9895 7.51257 13.021C7.87116 13.1479 8.24674 13.2204 8.6268 13.236C12.8955 13.4362 13.7218 8.13214 10.6416 6.59214C11.3682 6.4976 12.104 6.67626 12.7064 7.09347C12.3301 6.42953 11.7848 5.87705 11.1259 5.49219C10.4669 5.10733 9.7178 4.90382 8.95468 4.90234C8.85305 4.90234 8.75362 4.91074 8.65375 4.91759C7.79448 4.9765 6.97292 5.29304 6.29626 5.8259C6.42683 5.93637 6.57421 6.08397 6.88464 6.38998C7.46572 6.96245 8.95601 7.55547 8.95932 7.62507L8.95976 7.62684Z" fill="url(#paint4_radial_574_4244)"/>
<path d="M8.95976 7.62684C8.94562 7.83983 8.19308 8.57447 7.92993 8.57447C5.4951 8.57447 5.09961 10.0475 5.09961 10.0475C5.20743 11.2879 6.07177 12.31 7.11663 12.8491C7.16435 12.8739 7.21274 12.8962 7.26113 12.9181C7.34494 12.9552 7.42875 12.9895 7.51257 13.021C7.87116 13.1479 8.24674 13.2204 8.6268 13.236C12.8955 13.4362 13.7218 8.13214 10.6416 6.59214C11.3682 6.4976 12.104 6.67626 12.7064 7.09347C12.3301 6.42953 11.7848 5.87705 11.1259 5.49219C10.4669 5.10733 9.7178 4.90382 8.95468 4.90234C8.85305 4.90234 8.75362 4.91074 8.65375 4.91759C7.79448 4.9765 6.97292 5.29304 6.29626 5.8259C6.42683 5.93637 6.57421 6.08397 6.88464 6.38998C7.46572 6.96245 8.95601 7.55547 8.95932 7.62507L8.95976 7.62684Z" fill="url(#paint5_radial_574_4244)"/>
<path d="M5.89682 5.54211C5.96619 5.5863 6.02342 5.62474 6.07357 5.65943C5.87848 4.97647 5.87016 4.25368 6.04949 3.56641C5.25958 3.94904 4.5577 4.49149 3.98828 5.15943C4.03004 5.15833 5.2722 5.13601 5.89682 5.54211Z" fill="url(#paint6_radial_574_4244)"/>
<path d="M0.461057 9.47713C1.12191 13.3813 4.66125 16.364 8.67806 16.4767C12.3966 16.5819 14.7718 14.4232 15.7528 12.3185C16.5839 10.4984 16.6794 8.42743 16.0192 6.53855V6.53037C16.0192 6.52396 16.0179 6.52021 16.0192 6.5222L16.0208 6.53656C16.3246 8.51999 15.3157 10.4407 13.7384 11.7421L13.7335 11.7531C10.6602 14.2564 7.71937 13.2631 7.12502 12.8578C7.08349 12.838 7.04195 12.8173 7.00041 12.7958C5.20876 11.9394 4.46836 10.3079 4.62744 8.90709C4.20215 8.91337 3.78415 8.79617 3.42411 8.5697C3.06407 8.34323 2.77744 8.0172 2.59894 7.63113C3.06929 7.343 3.60558 7.18012 4.15672 7.15799C4.70787 7.13587 5.25549 7.25525 5.74742 7.50475C6.76141 7.965 7.91521 8.01036 8.96219 7.63113C8.95888 7.56153 7.4686 6.96829 6.88751 6.39604C6.57708 6.09002 6.42971 5.94265 6.29913 5.83196C6.22856 5.77218 6.1548 5.71628 6.07818 5.66448C6.02736 5.62979 5.97014 5.59223 5.90142 5.54716C5.27681 5.14106 4.03465 5.16338 3.99355 5.16448H3.98957C3.6502 4.7343 3.67406 3.31582 3.6935 3.01953C3.59311 3.05988 3.49727 3.11076 3.4076 3.17132C3.108 3.38514 2.82793 3.62507 2.57065 3.88829C2.27643 4.1847 2.00755 4.50523 1.76685 4.84654C1.21637 5.62684 0.825883 6.50821 0.617929 7.44023C0.613731 7.45768 0.309488 8.78778 0.459511 9.47758L0.461057 9.47713Z" fill="url(#paint7_radial_574_4244)"/>
<path d="M11.9639 6.09483C12.2765 6.40188 12.5443 6.75147 12.7593 7.13328C12.8063 7.16885 12.8503 7.2042 12.8877 7.23845C14.8291 9.02812 13.8119 11.558 13.7361 11.7369C15.3132 10.4375 16.3212 8.51552 16.0185 6.53142C15.0498 4.11648 13.4069 3.1421 12.0679 1.02323C12.0001 0.916066 11.9323 0.808686 11.8662 0.69534C11.8284 0.630603 11.7982 0.572273 11.7719 0.518583C11.7163 0.410884 11.6734 0.297063 11.6442 0.17943C11.6442 0.174002 11.6422 0.16875 11.6387 0.164675C11.6351 0.160599 11.6301 0.157987 11.6247 0.157336C11.6194 0.155888 11.6139 0.155888 11.6086 0.157336C11.6075 0.157336 11.6057 0.159324 11.6044 0.159766C11.6031 0.160208 11.6002 0.162197 11.5982 0.16308C11.267 0.320173 9.30258 3.43088 11.965 6.09107L11.9639 6.09483Z" fill="url(#paint8_radial_574_4244)"/>
<path d="M12.8866 7.24064C12.8492 7.20639 12.8053 7.17104 12.7582 7.13547C12.7408 7.12243 12.7235 7.1094 12.705 7.09636C12.1026 6.67915 11.3668 6.50049 10.6402 6.59503C13.7202 8.13503 12.8939 13.4377 8.6254 13.2389C8.24534 13.2233 7.86976 13.1508 7.51117 13.0239C7.42736 12.9925 7.34355 12.9582 7.25973 12.921C7.21135 12.8989 7.16296 12.8768 7.11523 12.852L7.1212 12.8558C7.71643 13.2621 10.6563 14.2548 13.7297 11.751L13.7346 11.74C13.8112 11.561 14.8285 9.03119 12.8861 7.24152L12.8866 7.24064Z" fill="url(#paint9_radial_574_4244)"/>
<path d="M5.09881 10.0449C5.09881 10.0449 5.49408 8.57181 7.92913 8.57181C8.19228 8.57181 8.94548 7.83716 8.95896 7.62417C7.91197 8.00341 6.75817 7.95805 5.74419 7.49779C5.25226 7.24829 4.70463 7.12891 4.15349 7.15104C3.60235 7.17316 3.06605 7.33604 2.5957 7.62417C2.77421 8.01025 3.06084 8.33627 3.42088 8.56274C3.78092 8.78922 4.19891 8.90641 4.62421 8.90014C4.46557 10.3003 5.20574 11.9315 6.99718 12.7888C7.03717 12.808 7.07473 12.8288 7.11583 12.8471C6.07009 12.3069 5.20663 11.2853 5.09881 10.0455V10.0449Z" fill="url(#paint10_radial_574_4244)"/>
<path d="M16.8685 6.08791C16.4964 5.19264 15.7417 4.22599 15.1507 3.92043C15.5721 4.73658 15.8647 5.61307 16.0179 6.51876L16.0194 6.53312C15.0512 4.12038 13.41 3.14601 12.0689 1.02713C12.0011 0.919972 11.9332 0.812592 11.8672 0.699247C11.8294 0.634509 11.7991 0.57618 11.7728 0.52249C11.7172 0.41479 11.6744 0.30097 11.6451 0.183337C11.6452 0.177909 11.6432 0.172656 11.6396 0.168581C11.636 0.164506 11.6311 0.161893 11.6257 0.161242C11.6204 0.159794 11.6148 0.159794 11.6095 0.161242C11.6084 0.161242 11.6067 0.163231 11.6053 0.163673C11.604 0.164114 11.6011 0.166103 11.5992 0.166987L11.6025 0.161242C9.45156 1.42064 8.72133 3.75162 8.65505 4.91822C8.75492 4.91137 8.8539 4.90297 8.95598 4.90297C9.71909 4.90445 10.4682 5.10796 11.1272 5.49282C11.7861 5.87768 12.3314 6.43016 12.7076 7.0941C12.1053 6.67689 11.3695 6.49823 10.6429 6.59277C13.7229 8.13277 12.8966 13.4355 8.62809 13.2366C8.24803 13.221 7.87245 13.1485 7.51386 13.0217C7.43005 12.9903 7.34624 12.956 7.26242 12.9187C7.21404 12.8966 7.16565 12.8745 7.11792 12.8498L7.12389 12.8535C7.08235 12.8336 7.04081 12.8129 6.99928 12.7914C7.03927 12.8106 7.07683 12.8314 7.11792 12.8498C6.07218 12.3093 5.20873 11.2877 5.1009 10.0482C5.1009 10.0482 5.49618 8.5751 7.93123 8.5751C8.19437 8.5751 8.94758 7.84046 8.96106 7.62747C8.95775 7.55787 7.46746 6.96463 6.88637 6.39237C6.57594 6.08636 6.42857 5.93899 6.29799 5.8283C6.22742 5.76852 6.15366 5.71262 6.07704 5.66082C5.88195 4.97786 5.87363 4.25506 6.05296 3.56779C5.26305 3.95043 4.56117 4.49288 3.99175 5.16082H3.98778C3.6484 4.73064 3.67226 3.31216 3.69171 3.01587C3.59131 3.05622 3.49547 3.1071 3.4058 3.16766C3.10621 3.38148 2.82613 3.62141 2.56886 3.88463C2.27568 4.18187 2.00791 4.50315 1.76837 4.84509C1.21789 5.62539 0.8274 6.50676 0.619446 7.43878L0.607957 7.49534C0.591828 7.57068 0.519578 7.95336 0.509194 8.03555C0.443109 8.43058 0.400905 8.82922 0.382812 9.22933V9.27352C0.386597 11.4164 1.19359 13.48 2.6445 15.0569C4.0954 16.6338 6.08478 17.6095 8.21991 17.7914C10.355 17.9732 12.4808 17.348 14.1775 16.0392C15.8742 14.7303 17.0185 12.833 17.3846 10.7216C17.399 10.6111 17.4107 10.5018 17.4235 10.3902C17.5999 8.93235 17.409 7.45356 16.8681 6.08835L16.8685 6.08791Z" fill="url(#paint11_linear_574_4244)"/>
</g>
<defs>
<linearGradient id="paint0_linear_574_4244" x1="15.7355" y1="2.89654" x2="1.51914" y2="16.6129" gradientUnits="userSpaceOnUse">
<stop offset="0.048" stop-color="#FFF44F"/>
<stop offset="0.111" stop-color="#FFE847"/>
<stop offset="0.225" stop-color="#FFC830"/>
<stop offset="0.368" stop-color="#FF980E"/>
<stop offset="0.401" stop-color="#FF8B16"/>
<stop offset="0.462" stop-color="#FF672A"/>
<stop offset="0.534" stop-color="#FF3647"/>
<stop offset="0.705" stop-color="#E31587"/>
</linearGradient>
<radialGradient id="paint1_radial_574_4244" cx="0" cy="0" r="1" gradientUnits="userSpaceOnUse" gradientTransform="translate(15.1855 2.14988) scale(17.8525 17.8525)">
<stop offset="0.129" stop-color="#FFBD4F"/>
<stop offset="0.186" stop-color="#FFAC31"/>
<stop offset="0.247" stop-color="#FF9D17"/>
<stop offset="0.283" stop-color="#FF980E"/>
<stop offset="0.403" stop-color="#FF563B"/>
<stop offset="0.467" stop-color="#FF3750"/>
<stop offset="0.71" stop-color="#F5156C"/>
<stop offset="0.782" stop-color="#EB0878"/>
<stop offset="0.86" stop-color="#E50080"/>
</radialGradient>
<radialGradient id="paint2_radial_574_4244" cx="0" cy="0" r="1" gradientUnits="userSpaceOnUse" gradientTransform="translate(8.55713 9.44112) scale(17.8525 17.8525)">
<stop offset="0.3" stop-color="#960E18"/>
<stop offset="0.351" stop-color="#B11927" stop-opacity="0.74"/>
<stop offset="0.435" stop-color="#DB293D" stop-opacity="0.343"/>
<stop offset="0.497" stop-color="#F5334B" stop-opacity="0.094"/>
<stop offset="0.53" stop-color="#FF3750" stop-opacity="0"/>
</radialGradient>
<radialGradient id="paint3_radial_574_4244" cx="0" cy="0" r="1" gradientUnits="userSpaceOnUse" gradientTransform="translate(10.767 -1.82836) scale(12.932)">
<stop offset="0.132" stop-color="#FFF44F"/>
<stop offset="0.252" stop-color="#FFDC3E"/>
<stop offset="0.506" stop-color="#FF9D12"/>
<stop offset="0.526" stop-color="#FF980E"/>
</radialGradient>
<radialGradient id="paint4_radial_574_4244" cx="0" cy="0" r="1" gradientUnits="userSpaceOnUse" gradientTransform="translate(6.56912 14.0807) scale(8.49981)">
<stop offset="0.353" stop-color="#3A8EE6"/>
<stop offset="0.472" stop-color="#5C79F0"/>
<stop offset="0.669" stop-color="#9059FF"/>
<stop offset="1" stop-color="#C139E6"/>
</radialGradient>
<radialGradient id="paint5_radial_574_4244" cx="0" cy="0" r="1" gradientUnits="userSpaceOnUse" gradientTransform="translate(9.4211 7.90832) rotate(-13.5916) scale(4.50733 5.27696)">
<stop offset="0.206" stop-color="#9059FF" stop-opacity="0"/>
<stop offset="0.278" stop-color="#8C4FF3" stop-opacity="0.064"/>
<stop offset="0.747" stop-color="#7716A8" stop-opacity="0.45"/>
<stop offset="0.975" stop-color="#6E008B" stop-opacity="0.6"/>
</radialGradient>
<radialGradient id="paint6_radial_574_4244" cx="0" cy="0" r="1" gradientUnits="userSpaceOnUse" gradientTransform="translate(8.33607 1.48553) scale(6.1158 6.1158)">
<stop stop-color="#FFE226"/>
<stop offset="0.121" stop-color="#FFDB27"/>
<stop offset="0.295" stop-color="#FFC82A"/>
<stop offset="0.502" stop-color="#FFA930"/>
<stop offset="0.732" stop-color="#FF7E37"/>
<stop offset="0.792" stop-color="#FF7139"/>
</radialGradient>
<radialGradient id="paint7_radial_574_4244" cx="0" cy="0" r="1" gradientUnits="userSpaceOnUse" gradientTransform="translate(13.1977 -2.48933) scale(26.0938)">
<stop offset="0.113" stop-color="#FFF44F"/>
<stop offset="0.456" stop-color="#FF980E"/>
<stop offset="0.622" stop-color="#FF5634"/>
<stop offset="0.716" stop-color="#FF3647"/>
<stop offset="0.904" stop-color="#E31587"/>
</radialGradient>
<radialGradient id="paint8_radial_574_4244" cx="0" cy="0" r="1" gradientUnits="userSpaceOnUse" gradientTransform="translate(11.0279 -1.04439) rotate(83.976) scale(19.1219 12.5495)">
<stop stop-color="#FFF44F"/>
<stop offset="0.06" stop-color="#FFE847"/>
<stop offset="0.168" stop-color="#FFC830"/>
<stop offset="0.304" stop-color="#FF980E"/>
<stop offset="0.356" stop-color="#FF8B16"/>
<stop offset="0.455" stop-color="#FF672A"/>
<stop offset="0.57" stop-color="#FF3647"/>
<stop offset="0.737" stop-color="#E31587"/>
</radialGradient>
<radialGradient id="paint9_radial_574_4244" cx="0" cy="0" r="1" gradientUnits="userSpaceOnUse" gradientTransform="translate(8.33508 3.69666) scale(16.2882 16.2882)">
<stop offset="0.137" stop-color="#FFF44F"/>
<stop offset="0.48" stop-color="#FF980E"/>
<stop offset="0.592" stop-color="#FF5634"/>
<stop offset="0.655" stop-color="#FF3647"/>
<stop offset="0.904" stop-color="#E31587"/>
</radialGradient>
<radialGradient id="paint10_radial_574_4244" cx="0" cy="0" r="1" gradientUnits="userSpaceOnUse" gradientTransform="translate(12.5337 4.57864) scale(17.8282 17.8282)">
<stop offset="0.094" stop-color="#FFF44F"/>
<stop offset="0.231" stop-color="#FFE141"/>
<stop offset="0.509" stop-color="#FFAF1E"/>
<stop offset="0.626" stop-color="#FF980E"/>
</radialGradient>
<linearGradient id="paint11_linear_574_4244" x1="15.5627" y1="2.82363" x2="3.46811" y2="14.9204" gradientUnits="userSpaceOnUse">
<stop offset="0.167" stop-color="#FFF44F" stop-opacity="0.8"/>
<stop offset="0.266" stop-color="#FFF44F" stop-opacity="0.634"/>
<stop offset="0.489" stop-color="#FFF44F" stop-opacity="0.217"/>
<stop offset="0.6" stop-color="#FFF44F" stop-opacity="0"/>
</linearGradient>
<clipPath id="clip0_574_4244">
<rect width="18" height="18" fill="white"/>
</clipPath>
</defs>
</svg>
