<svg width="24" height="25" viewBox="0 0 24 25" fill="none" xmlns="http://www.w3.org/2000/svg">
<path d="M16.625 2.5H7.875C6.83984 2.5 6 3.33984 6 4.375V20.625C6 21.6602 6.83984 22.5 7.875 22.5H16.625C17.6602 22.5 18.5 21.6602 18.5 20.625V4.375C18.5 3.33984 17.6602 2.5 16.625 2.5ZM12.25 21.25C11.5586 21.25 11 20.6914 11 20C11 19.3086 11.5586 18.75 12.25 18.75C12.9414 18.75 13.5 19.3086 13.5 20C13.5 20.6914 12.9414 21.25 12.25 21.25ZM16.625 17.0312C16.625 17.2891 16.4141 17.5 16.1562 17.5H8.34375C8.08594 17.5 7.875 17.2891 7.875 17.0312V4.84375C7.875 4.58594 8.08594 4.375 8.34375 4.375H16.1562C16.4141 4.375 16.625 4.58594 16.625 4.84375V17.0312Z" fill="white"/>
</svg>
