<svg width="24" height="24" viewBox="0 0 24 24" fill="none" xmlns="http://www.w3.org/2000/svg">
<path d="M15.5559 15.5476L15.1009 16.0276C15.1009 16.0276 14.0179 17.1666 11.0629 14.0556C8.10786 10.9446 9.19086 9.80563 9.19086 9.80563L9.47786 9.50263C10.1839 8.75863 10.2509 7.56463 9.63386 6.69263L8.37386 4.90963C7.60986 3.82963 6.13486 3.68763 5.25986 4.60863L3.69086 6.25963C3.25786 6.71663 2.96786 7.30763 3.00286 7.96463C3.09286 9.64463 3.81086 13.2576 7.81486 17.4746C12.0619 21.9446 16.0469 22.1226 17.6759 21.9616C18.1919 21.9116 18.6399 21.6326 19.0009 21.2526L20.4209 19.7566C21.3809 18.7466 21.1109 17.0166 19.8829 16.3106L17.9729 15.2106C17.1669 14.7476 16.1859 14.8836 15.5559 15.5466V15.5476ZM13.2599 2.87963C13.292 2.68333 13.4007 2.5078 13.5621 2.39157C13.7236 2.27533 13.9245 2.22788 14.1209 2.25963C14.1459 2.26463 14.2279 2.27963 14.2709 2.28963C14.3559 2.30763 14.4749 2.33763 14.6229 2.37963C14.9199 2.46663 15.3349 2.60963 15.8329 2.83763C16.8289 3.29463 18.1539 4.09363 19.5299 5.46863C20.9059 6.84463 21.7049 8.17063 22.1619 9.16663C22.3899 9.66463 22.5319 10.0786 22.6189 10.3766C22.6627 10.5264 22.7004 10.6778 22.7319 10.8306L22.7369 10.8616C22.7698 11.0597 22.7235 11.2627 22.6081 11.427C22.4927 11.5912 22.3173 11.7035 22.1199 11.7396C21.9241 11.7714 21.7236 11.7244 21.5624 11.6087C21.4013 11.4931 21.2925 11.3183 21.2599 11.1226C21.2394 11.0121 21.2123 10.9029 21.1789 10.7956C21.0767 10.4522 20.9497 10.1167 20.7989 9.79163C20.4089 8.94163 19.7069 7.76763 18.4689 6.52963C17.2319 5.29163 16.0569 4.59063 15.2069 4.20063C14.8822 4.04985 14.5469 3.92285 14.2039 3.82063C14.0986 3.79095 13.9926 3.76427 13.8859 3.74063C13.6892 3.70816 13.5133 3.59967 13.396 3.43858C13.2787 3.27749 13.2294 3.07672 13.2589 2.87963H13.2599Z" fill="white"/>
<path fill-rule="evenodd" clip-rule="evenodd" d="M13.4861 6.3299C13.5131 6.23513 13.5584 6.14661 13.6196 6.06939C13.6808 5.99217 13.7566 5.92776 13.8427 5.87984C13.9288 5.83192 14.0235 5.80143 14.1213 5.79012C14.2192 5.7788 14.3183 5.78688 14.4131 5.8139L14.4161 5.8149L14.4191 5.8159L14.4271 5.8179L14.4471 5.8239L14.5031 5.8439C14.7689 5.94628 15.0255 6.07106 15.2701 6.2169C15.7591 6.5069 16.4271 6.9869 17.2121 7.7729C17.9971 8.5579 18.4781 9.2259 18.7681 9.7149C18.9131 9.9599 19.0091 10.1589 19.0711 10.3049C19.1043 10.3813 19.1344 10.459 19.1611 10.5379L19.1661 10.5579L19.1691 10.5659V10.5689L19.1701 10.5699C19.1701 10.5699 19.1701 10.5719 18.4501 10.7779L19.1701 10.5719C19.2209 10.7611 19.1956 10.9627 19.0997 11.1335C19.0038 11.3044 18.8448 11.4309 18.6568 11.486C18.4688 11.5411 18.2667 11.5205 18.0937 11.4285C17.9207 11.3366 17.7905 11.1806 17.7311 10.9939L17.7281 10.9839C17.6578 10.8097 17.5742 10.6413 17.4781 10.4799C17.2541 10.1029 16.8511 9.5329 16.1511 8.8329C15.4511 8.1329 14.8821 7.7309 14.5051 7.5079C14.3438 7.41176 14.1753 7.32818 14.0011 7.2579L13.9911 7.2539C13.8022 7.1971 13.6433 7.06818 13.5487 6.89504C13.4542 6.72191 13.4317 6.51951 13.4861 6.3299Z" fill="white"/>
</svg>
