<svg width="18" height="18" viewBox="0 0 18 18" fill="none" xmlns="http://www.w3.org/2000/svg">
<g clip-path="url(#clip0_574_4260)">
<g clip-path="url(#clip1_574_4260)">
<g opacity="0.53" filter="url(#filter0_f_574_4260)">
<path d="M17.2194 9.34469C17.2194 10.379 17.0079 11.4031 16.5968 12.3587C16.1858 13.3142 15.5833 14.1825 14.8238 14.9138C14.0643 15.6452 13.1627 16.2253 12.1704 16.6211C11.178 17.0169 10.1145 17.2206 9.04038 17.2206C7.96629 17.2206 6.90272 17.0169 5.91039 16.6211C4.91806 16.2253 4.01641 15.6452 3.25692 14.9138C2.49742 14.1825 1.89496 13.3142 1.48392 12.3587C1.07289 11.4031 0.861328 10.379 0.861328 9.34469C0.861328 7.25586 1.72305 5.25259 3.25692 3.77556C4.79079 2.29853 6.87116 1.46875 9.04038 1.46875C10.1145 1.46875 11.178 1.67247 12.1704 2.06827C13.1627 2.46407 14.0643 3.04421 14.8238 3.77556C15.5833 4.50691 16.1858 5.37515 16.5968 6.3307C17.0079 7.28625 17.2194 8.31041 17.2194 9.34469Z" fill="black"/>
</g>
</g>
<path d="M17.5297 8.65059C17.5297 9.76558 17.3101 10.8696 16.8834 11.8997C16.4567 12.9299 15.8313 13.8658 15.0429 14.6542C14.2545 15.4426 13.3185 16.0681 12.2884 16.4947C11.2583 16.9214 10.1542 17.141 9.03926 17.141C6.78745 17.141 4.62788 16.2465 3.03562 14.6542C1.44335 13.062 0.548828 10.9024 0.548828 8.65059C0.548828 6.39879 1.44335 4.23922 3.03562 2.64695C4.62788 1.05468 6.78745 0.160157 9.03926 0.160156C10.1542 0.160156 11.2583 0.379769 12.2884 0.806453C13.3185 1.23314 14.2545 1.85854 15.0429 2.64695C15.8313 3.43536 16.4567 4.37134 16.8834 5.40144C17.3101 6.43155 17.5297 7.53561 17.5297 8.65059Z" fill="url(#paint0_linear_574_4260)" stroke="#CDCDCD" stroke-width="0.351543" stroke-linecap="round" stroke-linejoin="round"/>
<path d="M16.8651 8.64935C16.8651 10.7247 16.0407 12.7151 14.5732 14.1826C13.1057 15.6501 11.1153 16.4745 9.03998 16.4745C6.96462 16.4745 4.97427 15.6501 3.50677 14.1826C2.03927 12.7151 1.21484 10.7247 1.21484 8.64935C1.21484 6.574 2.03927 4.58364 3.50677 3.11615C4.97427 1.64865 6.96462 0.824219 9.03998 0.824219C11.1153 0.824219 13.1057 1.64865 14.5732 3.11615C16.0407 4.58364 16.8651 6.574 16.8651 8.64935Z" fill="url(#paint1_radial_574_4260)"/>
<path d="M9.03879 1.23438C8.97559 1.23438 8.92471 1.28526 8.92471 1.34846V2.66442C8.92471 2.72762 8.97559 2.7785 9.03879 2.7785C9.102 2.7785 9.15288 2.72762 9.15288 2.66442V1.34846C9.15288 1.28526 9.102 1.23438 9.03879 1.23438ZM8.29243 1.28155C8.28487 1.28073 8.27709 1.28073 8.26923 1.28164C8.20637 1.2882 8.16104 1.34409 8.16761 1.40696L8.22512 1.95749C8.23167 2.02036 8.28757 2.06569 8.35043 2.05912C8.41329 2.05256 8.45862 1.99667 8.45206 1.93381L8.3946 1.38327C8.38885 1.32827 8.34534 1.28668 8.29243 1.28155ZM9.79037 1.28209C9.73747 1.28718 9.69394 1.32877 9.68815 1.38377L9.63025 1.93426C9.62364 1.99712 9.66897 2.05306 9.73183 2.05967C9.79469 2.06628 9.85058 2.021 9.85719 1.95814L9.9151 1.4076C9.92171 1.34474 9.87638 1.28884 9.81352 1.28224C9.80566 1.28142 9.79794 1.28142 9.79037 1.28209ZM7.52574 1.39273C7.51815 1.39279 7.51042 1.39354 7.5027 1.39517C7.44086 1.40826 7.40162 1.46859 7.41471 1.53043L7.68725 2.81782C7.70034 2.87966 7.76067 2.9189 7.8225 2.90581C7.88434 2.89272 7.92358 2.83244 7.9105 2.7706L7.63796 1.48316C7.62649 1.42905 7.57889 1.39231 7.52574 1.39273ZM10.557 1.39381C10.5039 1.39327 10.4562 1.43012 10.4448 1.48421L10.1713 2.77146C10.1581 2.83329 10.1974 2.89363 10.2592 2.90677C10.321 2.91991 10.3814 2.88069 10.3945 2.81887L10.668 1.53163C10.6811 1.4698 10.6419 1.40945 10.5801 1.39632C10.5723 1.39469 10.5646 1.39381 10.557 1.39381ZM6.79405 1.59904C6.77928 1.59768 6.76402 1.59931 6.74899 1.6043C6.68888 1.62384 6.6562 1.68791 6.67573 1.74802L6.84678 2.27448C6.86633 2.3346 6.93045 2.36728 6.99056 2.34775C7.05068 2.32821 7.08331 2.26409 7.06378 2.20398L6.89273 1.67751C6.87809 1.63243 6.83836 1.6028 6.79405 1.59904ZM11.2846 1.59931C11.2403 1.60308 11.2006 1.63271 11.1859 1.67779L11.0147 2.20421C10.9952 2.26432 11.0279 2.32844 11.088 2.34798C11.1481 2.36753 11.2122 2.33486 11.2317 2.27477L11.4029 1.74831C11.4224 1.68819 11.3898 1.62407 11.3297 1.60453C11.3147 1.59965 11.2993 1.59806 11.2846 1.59931ZM6.07048 1.86382C6.05566 1.86409 6.04066 1.86734 6.02622 1.87377C5.96849 1.89943 5.94264 1.96658 5.96832 2.02434L6.5028 3.22685C6.52847 3.2846 6.59562 3.31043 6.65337 3.28475C6.7111 3.25908 6.737 3.19194 6.71133 3.13418L6.17679 1.93167C6.15755 1.88835 6.11495 1.86296 6.07048 1.86382ZM12.0163 1.86786C11.9719 1.86704 11.9292 1.89228 11.9099 1.93556L11.3738 3.13733C11.348 3.19505 11.3738 3.26225 11.4315 3.288C11.4892 3.31375 11.5564 3.28802 11.5822 3.23029L12.1183 2.02852C12.144 1.9708 12.1183 1.9036 12.0606 1.87785C12.0462 1.87143 12.0311 1.86818 12.0163 1.86786ZM5.39887 2.21918C5.37697 2.21755 5.3544 2.22243 5.33387 2.2343C5.27914 2.2659 5.26052 2.3354 5.29212 2.39014L5.56889 2.86953C5.6005 2.92427 5.66999 2.94289 5.72473 2.91128C5.77947 2.87968 5.79809 2.81018 5.76649 2.75544L5.48971 2.27606C5.46995 2.24184 5.43538 2.22173 5.39887 2.21918ZM12.6787 2.21918C12.6422 2.22162 12.6077 2.24183 12.5879 2.27605L12.3111 2.75543C12.2795 2.81017 12.2982 2.87967 12.3529 2.91128C12.4076 2.94288 12.4771 2.92426 12.5087 2.86952L12.7855 2.39013C12.8171 2.3354 12.7985 2.2659 12.7438 2.23429C12.7232 2.22245 12.7006 2.21766 12.6787 2.21918ZM4.7467 2.62594C4.72475 2.62675 4.70276 2.6338 4.68358 2.6477C4.63242 2.68481 4.62111 2.75588 4.65824 2.80704L5.43094 3.87222C5.46805 3.92338 5.53916 3.93469 5.59032 3.89759C5.64149 3.86048 5.6528 3.78941 5.61567 3.73825L4.84291 2.67307C4.81971 2.64109 4.78328 2.62469 4.7467 2.62594ZM13.3391 2.63174C13.3025 2.63038 13.266 2.64678 13.2428 2.67871L12.4686 3.74286C12.4314 3.79397 12.4427 3.86506 12.4938 3.90225C12.5449 3.93943 12.616 3.92824 12.6532 3.87715L13.4273 2.813C13.4645 2.76189 13.4532 2.6908 13.4021 2.65361C13.383 2.63968 13.361 2.63252 13.3391 2.63174ZM4.16376 3.11482C4.13464 3.11319 4.10492 3.12292 4.08144 3.14407C4.03446 3.18635 4.03068 3.2582 4.07298 3.30518L4.44335 3.71661C4.48564 3.76359 4.55749 3.76737 4.60446 3.72507C4.65144 3.68278 4.65522 3.61089 4.61292 3.56391L4.2426 3.15252C4.22145 3.12902 4.19289 3.11635 4.16376 3.11482ZM13.9147 3.11563C13.8855 3.11726 13.857 3.12986 13.8358 3.15335L13.4655 3.56469C13.4232 3.61166 13.4269 3.68355 13.4739 3.72585C13.5209 3.76814 13.5927 3.76435 13.635 3.71739L14.0054 3.30605C14.0477 3.25908 14.0439 3.18718 13.997 3.14489C13.9735 3.12375 13.9438 3.1141 13.9147 3.11563ZM3.60505 3.65149C3.57593 3.65312 3.54741 3.66572 3.52627 3.68921C3.48398 3.73619 3.48776 3.80803 3.53473 3.85032L4.51276 4.73076C4.55973 4.77305 4.63158 4.76926 4.67386 4.7223C4.71615 4.67533 4.71242 4.60348 4.66543 4.56119L3.68736 3.68076C3.66386 3.65961 3.63418 3.64996 3.60505 3.65149ZM14.4761 3.65534C14.447 3.65372 14.4172 3.66342 14.3937 3.68454L13.4151 4.56429C13.3681 4.60654 13.3642 4.67839 13.4065 4.7254C13.4487 4.7724 13.5206 4.77622 13.5676 4.73396L14.5463 3.85422C14.5933 3.81196 14.5971 3.74011 14.5549 3.69311C14.5337 3.66961 14.5052 3.65689 14.4761 3.65534ZM3.14044 4.24892C3.10386 4.24756 3.06739 4.26404 3.04418 4.29599C3.00702 4.34713 3.01829 4.41818 3.06944 4.45533L3.51726 4.7807C3.5684 4.81785 3.63945 4.80664 3.6766 4.75549C3.71375 4.70436 3.70251 4.63326 3.65139 4.5961L3.20356 4.27074C3.1844 4.2568 3.16238 4.2497 3.14044 4.24892ZM14.9403 4.25307C14.9183 4.25388 14.8963 4.2609 14.8771 4.27483L14.4291 4.59991C14.3779 4.63702 14.3666 4.70813 14.4037 4.75929C14.4409 4.81045 14.5119 4.82172 14.5631 4.78461L15.0112 4.45953C15.0623 4.42242 15.0736 4.35136 15.0365 4.3002C15.0133 4.26822 14.9768 4.25181 14.9403 4.25307ZM2.70625 4.88618C2.66974 4.88862 2.63521 4.90884 2.61545 4.94305C2.58385 4.99779 2.60247 5.06729 2.65721 5.09889L3.79684 5.75687C3.85157 5.78847 3.92107 5.76985 3.95268 5.71511C3.98428 5.66037 3.96566 5.59087 3.91092 5.55927L2.77129 4.90129C2.75078 4.88945 2.72815 4.88466 2.70625 4.88618ZM15.3713 4.88618C15.3494 4.88455 15.3268 4.88943 15.3063 4.9013L14.1667 5.55928C14.1119 5.59088 14.0933 5.66039 14.1249 5.71512C14.1565 5.76986 14.226 5.78848 14.2808 5.75688L15.4204 5.0989C15.4752 5.0673 15.4938 4.9978 15.4622 4.94306C15.4424 4.90885 15.4078 4.88873 15.3713 4.88618ZM2.37797 5.56543C2.33351 5.56434 2.29088 5.58979 2.27157 5.63308C2.24582 5.6908 2.27155 5.758 2.32928 5.78375L2.83486 6.00926C2.89258 6.03501 2.95978 6.00928 2.98553 5.95156C3.01128 5.89383 2.9855 5.82663 2.92777 5.80089L2.42224 5.57537C2.40782 5.56892 2.39279 5.56572 2.37797 5.56543ZM15.7018 5.57012C15.687 5.57039 15.672 5.57364 15.6575 5.58006L15.1518 5.80518C15.0941 5.8309 15.0683 5.89806 15.094 5.9558C15.1197 6.01354 15.1869 6.03936 15.2446 6.01366L15.7503 5.78849C15.8081 5.76279 15.8338 5.69561 15.8081 5.63787C15.7889 5.59456 15.7463 5.56923 15.7018 5.57012ZM2.0854 6.27536C2.04108 6.27908 2.00136 6.30868 1.98667 6.35375C1.9671 6.41385 1.99968 6.47799 2.05979 6.49758L3.311 6.90527C3.37109 6.92484 3.43524 6.89224 3.45483 6.83215C3.47439 6.77206 3.44182 6.70791 3.38171 6.68833L2.1305 6.28063C2.11549 6.27572 2.10017 6.27412 2.0854 6.27536ZM15.9939 6.28024C15.9791 6.27889 15.9638 6.28051 15.9488 6.2855L14.6973 6.69231C14.6372 6.71185 14.6046 6.77598 14.6241 6.83609C14.6436 6.8962 14.7078 6.92885 14.7679 6.90931L16.0193 6.5025C16.0794 6.48295 16.1121 6.41883 16.0926 6.35872C16.0779 6.31364 16.0382 6.284 15.9939 6.28024ZM1.90312 7.0206C1.84997 7.02006 1.8023 7.05695 1.7908 7.11105C1.77766 7.17287 1.81688 7.23321 1.87869 7.24636L2.42017 7.36143C2.482 7.37457 2.54234 7.33535 2.55548 7.27354C2.56862 7.21171 2.5294 7.15137 2.46759 7.13823L1.92616 7.02316C1.91843 7.02153 1.91071 7.0206 1.90312 7.0206ZM16.1747 7.02168C16.1671 7.02174 16.1595 7.02277 16.1517 7.02412L15.6103 7.13914C15.5484 7.15229 15.5092 7.21258 15.5224 7.2744C15.5355 7.33623 15.5958 7.37548 15.6577 7.36234L16.1991 7.24732C16.2609 7.23418 16.3002 7.17384 16.287 7.11201C16.2756 7.05792 16.2279 7.02123 16.1747 7.02168ZM1.76515 7.77021C1.71224 7.77528 1.66869 7.81679 1.66288 7.87179C1.65624 7.93464 1.70146 7.99061 1.76431 7.99725L3.07298 8.13561C3.13583 8.14225 3.1918 8.09699 3.19844 8.03413C3.20508 7.97127 3.15982 7.91531 3.09696 7.90867L1.78829 7.77031C1.78043 7.76949 1.77271 7.76949 1.76515 7.77021ZM16.3137 7.78005C16.3061 7.77924 16.2983 7.77924 16.2905 7.78014L14.9817 7.91673C14.9188 7.92329 14.8735 7.97918 14.88 8.04204C14.8866 8.10491 14.9425 8.15024 15.0053 8.14367L16.3142 8.00708C16.377 8.00053 16.4223 7.94464 16.4158 7.88177C16.41 7.82677 16.3666 7.78519 16.3137 7.78005ZM1.74299 8.53754C1.67978 8.53754 1.62891 8.58842 1.62891 8.65162C1.62891 8.71483 1.67978 8.76571 1.74299 8.76571H2.29653C2.35974 8.76571 2.41067 8.71483 2.41067 8.65162C2.41067 8.58842 2.35974 8.53754 2.29653 8.53754H1.74299ZM15.7811 8.53754C15.7179 8.53754 15.667 8.58842 15.667 8.65162C15.667 8.71483 15.7179 8.76571 15.7811 8.76571H16.3346C16.3978 8.76571 16.4487 8.71483 16.4487 8.65162C16.4487 8.58842 16.3978 8.53754 16.3346 8.53754H15.7811ZM3.09543 9.15947C3.08787 9.15866 3.08015 9.15866 3.07229 9.15957L1.76342 9.29616C1.70055 9.30272 1.65524 9.35861 1.66179 9.42147C1.66835 9.48433 1.72424 9.52966 1.7871 9.5231L3.09597 9.38651C3.15883 9.37995 3.20415 9.32406 3.1976 9.2612C3.19185 9.20619 3.14833 9.16461 3.09543 9.15947ZM14.9815 9.16755C14.9286 9.17262 14.885 9.21413 14.8792 9.26913C14.8726 9.33199 14.9178 9.38795 14.9806 9.39459L16.2893 9.53295C16.3522 9.53959 16.4081 9.49433 16.4148 9.43147C16.4214 9.36862 16.3761 9.31265 16.3133 9.30601L15.0047 9.16765C14.9968 9.16684 14.989 9.16683 14.9815 9.16755ZM2.44302 9.93829C2.43543 9.93835 2.4277 9.9391 2.41998 9.94072L1.8785 10.0557C1.81667 10.0689 1.77748 10.1292 1.79061 10.1911C1.80376 10.2529 1.86409 10.2921 1.92592 10.2789L2.4674 10.164C2.52922 10.1508 2.56842 10.0905 2.55529 10.0287C2.54379 9.97456 2.49617 9.93784 2.44302 9.93829ZM15.6344 9.93937C15.5813 9.93883 15.5337 9.97567 15.5222 10.0298C15.509 10.0916 15.5482 10.1519 15.61 10.1651L16.1515 10.2802C16.2133 10.2933 16.2736 10.2541 16.2868 10.1923C16.2999 10.1305 16.2607 10.0701 16.1989 10.0569L15.6575 9.94188C15.6497 9.94025 15.642 9.93937 15.6344 9.93937ZM3.35482 10.3887C3.34005 10.3874 3.3248 10.389 3.30977 10.394L2.05827 10.8008C1.99816 10.8203 1.96551 10.8845 1.98505 10.9446C2.00459 11.0047 2.06872 11.0373 2.12883 11.0178L3.38028 10.611C3.44039 10.5914 3.47309 10.5273 3.45355 10.4672C3.43888 10.4221 3.39913 10.3925 3.35482 10.3887ZM14.7215 10.3928C14.6772 10.3965 14.6375 10.4261 14.6228 10.4711C14.6032 10.5312 14.6358 10.5954 14.6959 10.615L15.9471 11.0227C16.0072 11.0422 16.0714 11.0096 16.091 10.9496C16.1106 10.8895 16.078 10.8253 16.0178 10.8057L14.7666 10.398C14.7516 10.3931 14.7363 10.3915 14.7215 10.3928ZM2.87725 11.2797C2.86243 11.28 2.84742 11.2832 2.83299 11.2896L2.32726 11.5148C2.26952 11.5405 2.24375 11.6077 2.26945 11.6654C2.29517 11.7232 2.36233 11.7489 2.42007 11.7232L2.92581 11.4981C2.98355 11.4724 3.00932 11.4052 2.98361 11.3475C2.96434 11.3042 2.92171 11.2789 2.87725 11.2797ZM15.1985 11.2841C15.1541 11.283 15.1114 11.3085 15.0921 11.3517C15.0664 11.4095 15.0921 11.4767 15.1498 11.5024L15.6553 11.7279C15.7131 11.7537 15.7803 11.7279 15.806 11.6702C15.8318 11.6125 15.806 11.5453 15.7483 11.5195L15.2428 11.294C15.2284 11.2876 15.2133 11.2844 15.1985 11.2841ZM3.86188 11.5313C3.83998 11.5297 3.81737 11.5346 3.79684 11.5464L2.65721 12.2044C2.60247 12.236 2.58385 12.3055 2.61545 12.3603C2.64706 12.415 2.71656 12.4336 2.77129 12.402L3.91092 11.7441C3.96566 11.7125 3.98428 11.6429 3.95268 11.5882C3.93292 11.554 3.89839 11.5339 3.86188 11.5313ZM14.2158 11.5313C14.1792 11.5338 14.1447 11.554 14.1249 11.5882C14.0933 11.6429 14.1119 11.7125 14.1667 11.7441L15.3063 12.402C15.361 12.4336 15.4306 12.415 15.4622 12.3602C15.4938 12.3055 15.4752 12.236 15.4204 12.2044L14.2808 11.5464C14.2602 11.5346 14.2377 11.5298 14.2158 11.5313ZM3.57763 12.4969C3.55567 12.4977 3.53369 12.5048 3.5145 12.5187L3.06648 12.8438C3.01532 12.8809 3.004 12.952 3.04111 13.0031C3.07823 13.0543 3.14929 13.0656 3.20045 13.0285L3.64852 12.7034C3.69968 12.6663 3.711 12.5952 3.67389 12.544C3.65069 12.5121 3.6142 12.4956 3.57763 12.4969ZM14.4973 12.5007C14.4607 12.4994 14.4242 12.5159 14.401 12.5478C14.3638 12.5989 14.3751 12.67 14.4263 12.7072L14.8741 13.0326C14.9252 13.0697 14.9963 13.0584 15.0334 13.0073C15.0706 12.9562 15.0593 12.8851 15.0082 12.848L14.5604 12.5226C14.5412 12.5087 14.5192 12.5015 14.4973 12.5007ZM4.59234 12.5401C4.56322 12.5385 4.53352 12.5482 4.51001 12.5693L3.53134 13.4491C3.48434 13.4913 3.48052 13.5632 3.52278 13.6102C3.56503 13.6572 3.63688 13.661 3.68389 13.6187L4.66256 12.739C4.70956 12.6967 4.71338 12.6249 4.67112 12.5779C4.65001 12.5544 4.62146 12.5417 4.59234 12.5401ZM13.4825 12.5433C13.4534 12.5449 13.4249 12.5575 13.4037 12.581C13.3614 12.628 13.3652 12.6998 13.4122 12.7421L14.3902 13.6225C14.4372 13.6648 14.5091 13.661 14.5514 13.6141C14.5936 13.5671 14.5899 13.4952 14.5429 13.453L13.5648 12.5725C13.5413 12.5514 13.5117 12.5417 13.4825 12.5433ZM5.52079 13.379C5.48421 13.3777 5.44771 13.3941 5.42447 13.426L4.65034 14.4902C4.61316 14.5413 4.62435 14.6124 4.67544 14.6496C4.72655 14.6867 4.79765 14.6755 4.83483 14.6244L5.60896 13.5603C5.64614 13.5092 5.63495 13.4381 5.58386 13.4009C5.5647 13.387 5.54273 13.3798 5.52079 13.379ZM12.5505 13.3838C12.5285 13.3846 12.5065 13.3916 12.4873 13.4056C12.4362 13.4427 12.4249 13.5138 12.462 13.5649L13.2347 14.6301C13.2718 14.6813 13.3428 14.6926 13.394 14.6555C13.4452 14.6184 13.4565 14.5473 13.4194 14.4961L12.6467 13.431C12.6235 13.399 12.587 13.3826 12.5505 13.3838ZM4.52143 13.5482C4.49231 13.5498 4.46375 13.5624 4.44261 13.5859L4.07223 13.9972C4.02993 14.0442 4.03368 14.1161 4.08066 14.1584C4.12763 14.2007 4.19948 14.1969 4.24177 14.1499L4.61219 13.7386C4.65449 13.6916 4.65069 13.6197 4.60373 13.5774C4.58023 13.5563 4.55056 13.5466 4.52143 13.5482ZM13.5555 13.5487C13.5263 13.5471 13.4967 13.5568 13.4732 13.578C13.4262 13.6202 13.4224 13.6921 13.4647 13.7391L13.835 14.1505C13.8773 14.1975 13.9492 14.2013 13.9961 14.159C14.0431 14.1167 14.0469 14.0448 14.0046 13.9978L13.6343 13.5864C13.6131 13.5629 13.5846 13.5502 13.5555 13.5487ZM6.60182 14.0051C6.55736 14.004 6.51478 14.0294 6.49547 14.0727L5.9593 15.2745C5.93355 15.3322 5.95929 15.3994 6.01701 15.4252C6.07474 15.4509 6.14193 15.4252 6.16768 15.3674L6.70385 14.1657C6.72959 14.108 6.70386 14.0408 6.64613 14.015C6.63171 14.0086 6.61664 14.0054 6.60182 14.0051ZM11.4685 14.0084C11.4537 14.0086 11.4387 14.0118 11.4242 14.0183C11.3665 14.0439 11.3406 14.1111 11.3663 14.1688L11.9008 15.3713C11.9265 15.4291 11.9937 15.4549 12.0514 15.4292C12.1091 15.4036 12.135 15.3364 12.1093 15.2787L11.5748 14.0762C11.5556 14.0329 11.513 14.0075 11.4685 14.0084ZM5.65969 14.3766C5.62318 14.3791 5.58864 14.3993 5.56889 14.4335L5.29212 14.9129C5.26052 14.9676 5.27914 15.0371 5.33387 15.0687C5.38861 15.1003 5.45811 15.0817 5.48971 15.027L5.76649 14.5476C5.79809 14.4928 5.77947 14.4233 5.72473 14.3917C5.70421 14.3799 5.68159 14.3751 5.65969 14.3766ZM12.4179 14.3766C12.396 14.375 12.3734 14.3799 12.3529 14.3917C12.2982 14.4233 12.2795 14.4929 12.3112 14.5476L12.5879 15.027C12.6195 15.0817 12.689 15.1003 12.7438 15.0687C12.7985 15.0371 12.8171 14.9676 12.7855 14.9129L12.5087 14.4335C12.489 14.3993 12.4544 14.3792 12.4179 14.3766ZM7.79542 14.3938C7.74227 14.3933 7.69464 14.4301 7.68315 14.4842L7.40968 15.7715C7.39654 15.8333 7.43575 15.8936 7.49757 15.9068C7.5594 15.9199 7.61975 15.8807 7.63288 15.8189L7.90635 14.5316C7.9195 14.4698 7.88028 14.4095 7.81846 14.3963C7.81074 14.3947 7.80301 14.3938 7.79542 14.3938ZM10.2781 14.3946C10.2705 14.3947 10.2629 14.3954 10.2551 14.3971C10.1933 14.4102 10.1541 14.4704 10.1672 14.5323L10.4397 15.8197C10.4528 15.8815 10.5131 15.9208 10.575 15.9077C10.6368 15.8946 10.676 15.8343 10.6629 15.7724L10.3904 14.4851C10.3789 14.431 10.3313 14.3942 10.2781 14.3946ZM9.03879 14.5245C8.97559 14.5245 8.92471 14.5753 8.92471 14.6385V15.9545C8.92471 16.0177 8.97559 16.0686 9.03879 16.0686C9.102 16.0686 9.15288 16.0177 9.15288 15.9545V14.6385C9.15288 14.5753 9.102 14.5245 9.03879 14.5245ZM6.94457 14.9497C6.90026 14.9535 6.8605 14.9831 6.84585 15.0282L6.67474 15.5546C6.6552 15.6147 6.68786 15.6789 6.74796 15.6984C6.80807 15.718 6.8722 15.6852 6.89174 15.6251L7.06284 15.0987C7.08238 15.0386 7.04972 14.9745 6.98963 14.955C6.97461 14.9501 6.95934 14.9484 6.94457 14.9497ZM11.1321 14.95C11.1174 14.9486 11.1021 14.9502 11.0871 14.9552C11.027 14.9747 10.9943 15.0389 11.0138 15.099L11.1849 15.6254C11.2044 15.6855 11.2685 15.7182 11.3286 15.6986C11.3888 15.6791 11.4214 15.615 11.4019 15.5549L11.2308 15.0285C11.2161 14.9834 11.1764 14.9537 11.1321 14.95ZM8.32267 15.2432C8.26976 15.2483 8.22618 15.2898 8.2204 15.3448L8.16254 15.8953C8.15593 15.9582 8.20121 16.0141 8.26407 16.0207C8.32693 16.0273 8.38287 15.982 8.38948 15.9192L8.44734 15.3687C8.45395 15.3058 8.40867 15.2499 8.34581 15.2433C8.33795 15.2425 8.33023 15.2425 8.32267 15.2432ZM9.75034 15.2437C9.74278 15.2429 9.735 15.2429 9.72714 15.2438C9.66428 15.2504 9.61895 15.3063 9.62551 15.3691L9.68302 15.9197C9.68958 15.9826 9.74547 16.0279 9.80834 16.0213C9.8712 16.0147 9.91653 15.9588 9.90997 15.896L9.8525 15.3454C9.84676 15.2904 9.80325 15.2489 9.75034 15.2437Z" fill="#F4F2F3"/>
<g opacity="0.409" filter="url(#filter1_f_574_4260)">
<path d="M14.3857 4.08594L8.14383 7.71249L4.19727 13.9255L9.97077 9.64913L14.3857 4.08594Z" fill="black"/>
</g>
<path d="M9.93366 9.5884L8.14453 7.71476L14.4913 3.44531L9.93366 9.5884Z" fill="#FF5150"/>
<path d="M9.93463 9.58848L8.14549 7.71484L3.58789 13.8579L9.93463 9.58848Z" fill="#F1F1F1"/>
<path opacity="0.243" d="M3.58789 13.8579L9.93462 9.5884L14.4922 3.44531L3.58789 13.8579Z" fill="black"/>
</g>
<defs>
<filter id="filter0_f_574_4260" x="-8.0922" y="-7.48478" width="34.2645" height="33.6571" filterUnits="userSpaceOnUse" color-interpolation-filters="sRGB">
<feFlood flood-opacity="0" result="BackgroundImageFix"/>
<feBlend mode="normal" in="SourceGraphic" in2="BackgroundImageFix" result="shape"/>
<feGaussianBlur stdDeviation="4.47676" result="effect1_foregroundBlur_574_4260"/>
</filter>
<filter id="filter1_f_574_4260" x="1.65243" y="1.5411" width="15.2772" height="14.9295" filterUnits="userSpaceOnUse" color-interpolation-filters="sRGB">
<feFlood flood-opacity="0" result="BackgroundImageFix"/>
<feBlend mode="normal" in="SourceGraphic" in2="BackgroundImageFix" result="shape"/>
<feGaussianBlur stdDeviation="1.27242" result="effect1_foregroundBlur_574_4260"/>
</filter>
<linearGradient id="paint0_linear_574_4260" x1="9.03896" y1="17.1409" x2="9.03896" y2="0.160112" gradientUnits="userSpaceOnUse">
<stop stop-color="#BDBDBD"/>
<stop offset="1" stop-color="white"/>
</linearGradient>
<radialGradient id="paint1_radial_574_4260" cx="0" cy="0" r="1" gradientUnits="userSpaceOnUse" gradientTransform="translate(9.07525 7.50834) scale(8.49041 8.4904)">
<stop stop-color="#06C2E7"/>
<stop offset="0.25" stop-color="#0DB8EC"/>
<stop offset="0.5" stop-color="#12AEF1"/>
<stop offset="0.75" stop-color="#1F86F9"/>
<stop offset="1" stop-color="#107DDD"/>
</radialGradient>
<clipPath id="clip0_574_4260">
<rect width="18" height="18" fill="white"/>
</clipPath>
<clipPath id="clip1_574_4260">
<rect x="0.861328" y="1.46875" width="16.3581" height="15.7519" rx="7.87595" fill="white"/>
</clipPath>
</defs>
</svg>
