<svg width="24" height="25" viewBox="0 0 24 25" fill="none" xmlns="http://www.w3.org/2000/svg">
<g id="ion:speedometer-sharp">
<path id="Vector" d="M12.25 3C6.58945 3 2.00002 7.63598 2.00002 13.3593C1.99466 15.8866 2.91053 18.3291 4.57618 20.2298C4.62658 20.2853 4.67228 20.3408 4.72267 20.3917C5.12627 20.7666 5.24884 20.7666 5.56915 20.7666C5.88946 20.7666 6.10001 20.7666 6.42033 20.3874C7.80834 18.744 9.94376 18.0333 12.25 18.0333C14.5562 18.0333 16.6946 18.747 18.0797 20.3874C18.4 20.7666 18.6058 20.7666 18.9308 20.7666C19.2559 20.7666 19.4135 20.7666 19.7773 20.3917C19.8294 20.3383 19.8734 20.2853 19.9238 20.2298C21.5895 18.3291 22.5053 15.8866 22.5 13.3593C22.5 7.63598 17.9106 3 12.25 3ZM11.5667 5.73333H12.9333V8.46666H11.5667V5.73333ZM7.46668 13.9333H4.73335V12.5666H7.46668V13.9333ZM8.38448 10.3509L6.45193 8.41797L7.41799 7.45191L9.35097 9.38446L8.38448 10.3509ZM13.2152 14.0785C13.1322 14.1935 13.0313 14.2945 12.9162 14.3775C12.6386 14.5712 12.2957 14.6476 11.962 14.5901C11.6284 14.5326 11.3309 14.3458 11.1341 14.0703C10.9373 13.7947 10.8571 13.4527 10.9109 13.1185C10.9647 12.7842 11.1482 12.4846 11.4215 12.2848L14.9833 10.5167L13.2152 14.0785ZM15.149 9.38446L17.082 7.45191L18.0481 8.41797L16.1155 10.3509L15.149 9.38446ZM19.7666 13.9333H17.0333V12.5666H19.7666V13.9333Z" fill="white"/>
</g>
</svg>
