<svg width="24" height="24" viewBox="0 0 24 24" fill="none" xmlns="http://www.w3.org/2000/svg">
<path d="M11.8504 11.9992C14.833 11.9992 17.2504 9.58187 17.2504 6.59922C17.2504 3.61656 14.833 1.19922 11.8504 1.19922C8.86774 1.19922 6.45039 3.61656 6.45039 6.59922C6.45039 9.58187 8.86774 11.9992 11.8504 11.9992ZM15.892 13.3745L13.8754 21.4492L12.5254 15.7117L13.8754 13.3492H9.82539L11.1754 15.7117L9.82539 21.4492L7.80883 13.3745C4.80086 13.518 2.40039 15.9775 2.40039 19.0192V20.7742C2.40039 21.8922 3.30742 22.7992 4.42539 22.7992H19.2754C20.3934 22.7992 21.3004 21.8922 21.3004 20.7742V19.0192C21.3004 15.9775 18.8999 13.518 15.892 13.3745Z" fill="white"/>
</svg>
