<svg width="480" height="320" viewBox="0 0 480 320" fill="none" xmlns="http://www.w3.org/2000/svg">
<g clip-path="url(#clip0_1532_4870)">
<path d="M407.952 205.02C405.832 209.929 403.298 214.77 400.356 219.475C399.286 221.188 398.181 222.87 397.044 224.526C329.118 323.399 143.56 321.887 84.6515 204.693C83.6664 202.733 82.7168 200.742 81.8039 198.717C80.7969 196.485 79.8345 194.215 78.9186 191.905C77.3865 188.04 76.0007 184.238 74.7574 180.502C74.1185 178.582 73.5161 176.679 72.9513 174.793C68.5597 160.15 66.351 146.518 65.894 133.89C65.8297 132.114 65.8 130.359 65.804 128.622C65.8149 123.038 66.1739 117.658 66.8366 112.482C67.0552 110.777 67.3065 109.094 67.5903 107.432C77.4567 49.5799 125.811 18.5071 152.134 12.835C198.938 2.74616 213.825 22.5874 252.896 69.6882C272.674 93.5315 288.385 105.333 350.611 104.722C382.56 104.406 402.549 119.498 411.151 140.825C413.892 147.618 415.478 155.044 415.925 162.806C416.71 176.378 414.02 190.977 407.952 205.02Z" fill="#DDF3F1"/>
<path d="M340.905 92.1922C366.933 92.3822 370.863 70.6611 342.916 62.378C318.995 55.288 301.098 42.7089 293.315 25.6152C285.533 8.52153 263.257 1.86788 250.938 16.874C232.445 39.4004 275.975 91.7173 340.904 92.1922H340.905Z" fill="#DDF3F1"/>
<path d="M280.912 205.473H194.642C194.477 205.473 194.345 205.34 194.345 205.176V73.3735C194.345 67.6439 195.467 62.0865 197.679 56.8536C199.817 51.7998 202.875 47.2615 206.772 43.3633C210.668 39.4661 215.206 36.4059 220.259 34.2678C225.489 32.0546 231.046 30.9326 236.774 30.9326H238.782C244.51 30.9326 250.066 32.0546 255.297 34.2678C260.349 36.4049 264.886 39.4651 268.783 43.3633C272.68 47.2605 275.739 51.7998 277.876 56.8536C280.089 62.0855 281.211 67.6439 281.211 73.3735V205.177C281.211 205.341 281.078 205.474 280.914 205.474L280.912 205.473ZM194.938 204.879H280.615V73.3735C280.615 50.2999 261.849 31.5272 238.781 31.5272H236.773C213.706 31.5272 194.938 50.2989 194.938 73.3735V204.88V204.879Z" fill="#1C1C1C"/>
<path d="M237.777 205.405C237.613 205.405 237.48 205.273 237.48 205.109V31.1621C237.48 30.9978 237.613 30.8652 237.777 30.8652C237.941 30.8652 238.074 30.9978 238.074 31.1621V205.108C238.074 205.272 237.941 205.404 237.777 205.404V205.405Z" fill="#1C1C1C"/>
<path d="M280.912 74.538H194.642C194.477 74.538 194.345 74.4054 194.345 74.2412C194.345 74.0769 194.477 73.9443 194.642 73.9443H280.912C281.076 73.9443 281.209 74.0769 281.209 74.2412C281.209 74.4054 281.076 74.538 280.912 74.538Z" fill="#1C1C1C"/>
<path d="M280.912 118.501H194.642C194.477 118.501 194.345 118.368 194.345 118.204C194.345 118.04 194.477 117.907 194.642 117.907H280.912C281.076 117.907 281.209 118.04 281.209 118.204C281.209 118.368 281.076 118.501 280.912 118.501Z" fill="#1C1C1C"/>
<path d="M280.912 162.462H194.642C194.477 162.462 194.345 162.329 194.345 162.165C194.345 162.001 194.477 161.868 194.642 161.868H280.912C281.076 161.868 281.209 162.001 281.209 162.165C281.209 162.329 281.076 162.462 280.912 162.462Z" fill="#1C1C1C"/>
<path d="M149.815 103.758C152.358 100.771 154.389 102.712 160.558 106.526C166.727 110.34 183.324 127.515 185.448 130.469C187.572 133.423 189.205 135.046 183.147 138.602C177.09 142.158 167.437 130.778 163.651 127.787C159.864 124.795 152.597 118.845 149.507 114.499C146.9 110.835 147.279 106.737 149.815 103.758Z" fill="#FFA076"/>
<path d="M202.938 123.615C202.938 123.615 187.009 138.877 182.45 139.009C177.891 139.141 175.76 137.515 174.658 133.999C173.873 131.499 176.336 126.343 184.861 121.307C193.386 116.271 202.341 111.324 206.465 113.029C210.59 114.733 205.081 121.933 202.939 123.615H202.938Z" fill="#FFA076"/>
<path d="M142.775 68.3931C142.775 68.3931 136.045 65.7376 130.952 68.3931C125.859 71.0486 122.391 80.6289 120.702 86.1012C119.013 91.5735 113.522 101.131 113.522 101.131C113.522 101.131 115.073 102.325 117.394 103.501L122.565 98.9227L122.08 107.961L151.892 107.02C151.892 107.02 152.042 95.3124 152.091 86.1012C152.141 76.891 149.933 68.592 142.774 68.3931H142.775Z" fill="#6D3814"/>
<path d="M137.788 99.6618C133.753 99.7053 118.421 101.603 117.459 104.153C114.898 110.947 117.536 126.212 119.302 134.2C121.068 142.189 120.22 152.982 120.22 152.982C120.22 152.982 134.999 155.809 143.443 155.194C151.888 154.581 157.084 152.184 157.084 152.184L157.526 135.325C157.526 135.325 162.052 128.501 161.678 124.292C161.303 120.083 156.705 114.448 155.339 109.133C153.974 103.819 153.944 101.543 153.944 101.543C153.944 101.543 146.974 99.5619 137.787 99.6608L137.788 99.6618Z" fill="#FFA076"/>
<path d="M157.289 151.708C157.289 151.708 165.173 178.279 167.622 194.122C170.071 209.965 173.78 230.269 170.393 233.948C167.005 237.628 156.567 237.043 153.875 234.333C151.184 231.623 145.917 207.76 144.112 203.66C142.307 199.56 136.799 196.241 133.125 186.494C130.284 178.957 132.504 165.595 132.257 163.343C132.011 161.09 131.966 152.922 131.966 152.922L157.288 151.709L157.289 151.708Z" fill="#FFA076"/>
<path d="M153.322 233.133C153.322 233.133 153.426 248.513 154.057 252.866C154.688 257.22 161.406 268.213 163.078 274.375C164.75 280.537 167.041 292.128 167.041 292.128C167.041 292.128 173.93 294.927 177.814 289.468C177.814 289.468 176.922 253.33 176.297 247.359C175.671 241.387 172.53 226.588 168.344 229.895C164.158 233.201 153.322 233.131 153.322 233.131L153.322 233.133Z" fill="#FFA076"/>
<path d="M120.891 152.536C120.891 152.536 113.567 169.777 112.875 181.606C112.182 193.435 117.125 235.423 119.361 237.626C121.598 239.829 135.527 240.739 137.071 237.545C138.615 234.351 142.409 204.14 143.103 202.307C143.797 200.473 149.342 186.336 148.205 174.124C147.067 161.911 142.258 151.906 142.258 151.906L120.891 152.536V152.536Z" fill="#FFA076"/>
<path d="M131.556 232.887C133.919 233.572 135.888 235.212 136.981 237.416C138.109 239.692 139.714 243.299 141.281 248.103C144.135 256.848 137.145 288.949 137.145 288.949C137.145 288.949 129.178 291.719 125.612 288.451C125.612 288.451 124.785 269.123 122.671 260.499C120.557 251.874 116.949 237.201 119.05 234.277C120.693 231.992 126.539 231.435 131.556 232.887Z" fill="#FFA076"/>
<path d="M132.526 88.6562L132.667 101.028C132.667 101.028 136.576 103.014 139.699 102.332C142.877 101.637 143.932 100.805 143.932 100.805L143.634 95.4781C143.634 95.4781 137.256 89.9167 132.525 88.6562H132.526Z" fill="#FFA076"/>
<path d="M143.634 95.4771L143.743 97.4193C143.743 97.4193 141.764 98.3889 138.581 96.321C133.021 92.7088 136.137 89.4863 136.137 89.4863L143.635 95.4771H143.634Z" fill="#E07443"/>
<path d="M143.736 95.4611C148.253 94.5133 148.668 89.6109 148.633 87.084C148.608 85.2447 148.101 83.9367 147.981 82.7524C147.863 81.5681 148.225 80.9626 148.241 79.5359C148.251 78.6286 147.548 76.3135 146.991 74.7245C146.645 73.7381 145.722 73.0732 144.678 73.0643C142.372 73.0445 138.318 73.1712 136.792 74.2249C134.609 75.7337 134.331 80.9745 133.602 82.4734C133.602 82.4734 130.966 78.6643 129.668 82.8454C129.013 84.9538 130.01 87.8092 131.067 88.9608C131.708 89.6603 132.547 89.1409 132.547 89.1409C132.547 89.1409 136.301 97.0204 143.737 95.4601L143.736 95.4611Z" fill="#FFA076"/>
<path d="M145.063 88.9485C141.719 88.344 139.236 87.7227 139.236 87.7227C139.236 87.7227 140.168 90.9035 142.144 91.0707C144.118 91.238 145.063 88.9485 145.063 88.9485Z" fill="white"/>
<path d="M143.714 87.2327C143.479 87.2327 143.211 87.2129 142.906 87.1674C142.744 87.1436 142.632 86.9923 142.657 86.83C142.681 86.6677 142.832 86.5559 142.994 86.5807C144.213 86.7627 144.634 86.4669 144.735 86.3719C144.813 86.2977 144.849 86.2156 144.84 86.1275C144.823 85.9534 144.696 85.7674 144.504 85.4854C144.288 85.1688 143.993 84.7364 143.692 84.0706C143.083 82.726 143.283 81.1113 143.292 81.0431C143.313 80.8808 143.462 80.765 143.624 80.7868C143.786 80.8076 143.901 80.956 143.88 81.1192C143.878 81.1341 143.694 82.638 144.233 83.8262C144.512 84.4446 144.78 84.8364 144.994 85.151C145.221 85.4834 145.4 85.7456 145.43 86.0721C145.456 86.3432 145.354 86.6034 145.143 86.8033C144.919 87.015 144.499 87.2337 143.715 87.2337L143.714 87.2327Z" fill="#E07443"/>
<path d="M147.986 80.1187C147.938 80.1187 147.888 80.1068 147.842 80.0811C147.825 80.0722 146.626 79.4221 144.978 79.5428C144.814 79.5547 144.673 79.432 144.661 79.2688C144.649 79.1055 144.772 78.963 144.935 78.9512C146.773 78.8176 148.076 79.5329 148.131 79.5626C148.274 79.6428 148.325 79.8238 148.245 79.9663C148.191 80.0632 148.09 80.1187 147.986 80.1187Z" fill="#E07443"/>
<path d="M137.792 80.1883C137.68 80.1883 137.571 80.123 137.521 80.0131C137.454 79.8637 137.521 79.6876 137.67 79.6203C139.654 78.7269 141.322 78.9535 141.391 78.9634C141.553 78.9871 141.666 79.1375 141.642 79.2998C141.618 79.462 141.469 79.5748 141.307 79.5511C141.289 79.5481 139.73 79.3433 137.913 80.1625C137.874 80.1803 137.832 80.1892 137.791 80.1892L137.792 80.1883Z" fill="#E07443"/>
<path d="M139.054 82.9012C139.115 83.5522 139.58 84.041 140.092 83.9925C140.604 83.944 140.969 83.3771 140.908 82.7261C140.847 82.075 140.388 81.6516 139.876 81.7001C139.363 81.7485 138.992 82.2502 139.054 82.9012Z" fill="#2E3333"/>
<path d="M145.674 82.8936C145.727 83.4546 146.127 83.875 146.568 83.8335C147.009 83.7919 147.323 83.3032 147.27 82.7432C147.217 82.1822 146.822 81.8191 146.382 81.8607C145.942 81.9022 145.621 82.3336 145.675 82.8946L145.674 82.8936Z" fill="#2E3333"/>
<path d="M132.045 87.554C131.979 87.554 131.91 87.5441 131.839 87.5243C131.503 87.4313 131.186 86.9861 130.949 86.2698C130.582 85.1627 130.47 83.549 130.895 83.0038C131.051 82.8049 131.231 82.711 131.433 82.7238C132.013 82.7614 132.557 83.6746 132.58 83.7132C132.591 83.732 132.585 83.7567 132.566 83.7686C132.547 83.7795 132.522 83.7736 132.511 83.7548C132.506 83.7459 131.966 82.8396 131.429 82.8049C131.255 82.7931 131.097 82.8772 130.96 83.0543C130.55 83.5796 130.665 85.1587 131.026 86.246C131.254 86.9366 131.551 87.3631 131.861 87.4482C132.137 87.5243 132.36 87.4373 132.525 87.1909C132.87 86.6764 132.82 85.6762 132.532 85.3041C132.424 85.1637 132.291 85.1191 132.14 85.1726C132.119 85.1795 132.096 85.1686 132.088 85.1478C132.081 85.127 132.092 85.1043 132.113 85.0964C132.298 85.0311 132.465 85.0855 132.597 85.2547C132.935 85.691 132.933 86.7269 132.593 87.2354C132.451 87.4472 132.264 87.555 132.045 87.555V87.554Z" fill="black"/>
<path d="M177.81 287.64C177.81 287.64 179.725 295.617 182.339 298.939C184.953 302.262 196.388 305.569 196.388 305.569C196.388 305.569 186.997 308.225 180.558 304.351C174.119 300.478 166.33 287.342 166.33 287.342L177.81 287.64Z" fill="#FFA076"/>
<path d="M166.33 287.341C166.33 287.341 165.376 292.284 164.682 295.704C163.989 299.124 166.615 301.819 166.615 301.819L166.909 311.169H173.283L173.385 304.925C173.385 304.925 175.162 305.817 176.128 306.966C177.095 308.116 179.747 311.17 179.747 311.17H205.448C205.448 311.17 205.617 309.573 204.854 308.334C204.093 307.095 200.328 306.707 195.67 305.368C195.67 305.368 187.001 306.195 183.103 304.691C179.205 303.187 176.609 297.041 173.745 293.472C170.88 289.903 166.329 287.341 166.329 287.341H166.33Z" fill="#2E3333"/>
<path d="M170.266 310.688C170.15 310.688 170.04 310.62 169.992 310.506C168.093 305.985 168.949 302.375 168.986 302.224C169.026 302.064 169.186 301.967 169.345 302.007C169.504 302.046 169.601 302.207 169.562 302.366C169.553 302.402 168.719 305.947 170.538 310.276C170.601 310.428 170.53 310.602 170.38 310.665C170.342 310.681 170.304 310.689 170.265 310.689L170.266 310.688Z" fill="white"/>
<path d="M204.044 309.364C204.044 309.364 204.04 309.364 204.038 309.364L181.193 308.924C181.091 308.922 180.998 308.868 180.944 308.781C180.935 308.765 179.892 307.093 176.518 304.313C173.143 301.533 166.206 299.939 166.136 299.923C165.976 299.887 165.876 299.728 165.913 299.568C165.949 299.408 166.108 299.308 166.268 299.344C166.558 299.41 173.413 300.985 176.896 303.855C179.844 306.283 181.041 307.869 181.361 308.333L204.05 308.77C204.214 308.773 204.344 308.909 204.341 309.073C204.338 309.235 204.205 309.364 204.044 309.364Z" fill="white"/>
<path d="M165.569 286.049L165.95 289.3L178.467 290.045L177.841 286.049H165.569Z" fill="#2E3333"/>
<path d="M177.486 299.958L182.339 298.939L185.861 301.496L179.514 303.653L177.486 299.958Z" fill="#2E3333"/>
<path d="M137.244 287.629C137.244 287.629 138.398 290.704 138.545 292.487C138.693 294.272 132.781 304.356 126.743 304.865C120.706 305.374 116.547 301.392 116.547 301.392C116.547 301.392 122.067 299.453 123.282 296.997C124.499 294.541 125.71 287.131 125.71 287.131L137.244 287.629V287.629Z" fill="#FFA076"/>
<path d="M116.546 301.393C114.859 302.17 113.314 303.015 112.499 304.159C110.359 307.164 109.306 311.17 109.306 311.17H128.838C128.838 311.17 129.736 308.113 131.847 305.753L132.243 311.17H138.022L138.544 303.208C139.46 301.148 139.646 299.25 139.526 297.3C139.416 295.494 138.866 292.711 138.282 290.991C138.282 290.991 136.237 291.003 135.962 294.752C135.686 298.501 130.493 302.515 124.427 302.283C118.36 302.053 116.546 301.392 116.546 301.392V301.393Z" fill="#2E3333"/>
<path d="M126.742 304.326C126.709 304.326 126.677 304.321 126.644 304.31C126.585 304.289 120.603 302.24 114.422 303.695C114.262 303.733 114.102 303.634 114.065 303.474C114.027 303.315 114.126 303.155 114.285 303.117C120.638 301.621 126.778 303.728 126.839 303.75C126.993 303.804 127.075 303.973 127.021 304.127C126.979 304.25 126.864 304.326 126.741 304.326H126.742Z" fill="white"/>
<path d="M127.172 310.283H111.183C111.019 310.283 110.887 310.15 110.887 309.986C110.887 309.822 111.019 309.689 111.183 309.689H126.972C127.256 309.016 128.362 306.683 131.173 303.514C134.296 299.993 137.833 299.473 137.982 299.452C138.145 299.43 138.294 299.543 138.317 299.706C138.339 299.869 138.226 300.018 138.062 300.041C138.029 300.046 134.587 300.56 131.617 303.908C128.418 307.516 127.46 310.063 127.45 310.089C127.408 310.206 127.296 310.284 127.171 310.284L127.172 310.283Z" fill="white"/>
<path d="M135.544 296.385L123.634 295.446L121.813 298.644L133.948 299.635L135.544 296.385Z" fill="#2E3333"/>
<path d="M138.283 290.992L137.244 287.63L125.292 287.188L125.039 290.727L138.283 290.992Z" fill="#2E3333"/>
<path d="M121.925 103.53C118.002 103.51 115.198 106.516 114.063 113.681C112.927 120.845 115.044 144.029 115.897 147.567C116.749 151.105 119.931 153.803 126.577 151.532C133.223 149.26 130.899 134.518 131.103 129.696C131.307 124.873 131.54 115.482 130.264 110.305C129.188 105.938 125.836 103.551 121.925 103.53Z" fill="#FFA076"/>
<path d="M148.358 163.066C148.358 163.066 129.437 138.557 124.455 139.054C119.474 139.552 117.392 141.679 116.705 145.782C116.216 148.699 119.895 155.106 129.021 161.171C139.072 167.852 144.479 174.803 148.719 172.306C152.959 169.809 150.731 166.05 148.358 163.066Z" fill="#FFA076"/>
<path d="M118.415 151.191C118.415 151.191 112.075 164.204 109.307 184.669C106.54 205.135 113.45 286.307 113.45 286.307C113.45 286.307 132.18 289.896 152.192 285.792C152.192 285.792 169.632 286.732 185.862 282.397C185.862 282.397 177.414 232.665 173.317 211.615C169.637 192.703 159.409 153.059 159.409 153.059L118.415 151.19V151.191Z" fill="#16979C"/>
<path d="M152.191 285.792C152.191 285.792 147.865 244.995 146.675 232.086C145.485 219.178 146.054 186.11 146.054 186.11C146.054 186.11 151.985 229.477 155.528 248.788C159.07 268.099 164.027 285.664 164.027 285.664C164.027 285.664 154.936 286.33 152.192 285.792H152.191Z" fill="#156063"/>
<path d="M152.191 286.088C152.041 286.088 151.912 285.975 151.896 285.822C151.86 285.476 148.254 250.95 146.529 233.711C144.802 216.453 145.83 180.877 145.84 180.52C145.845 180.355 145.977 180.226 146.145 180.232C146.31 180.237 146.438 180.373 146.433 180.537C146.422 180.895 145.397 216.432 147.12 233.653C148.845 250.891 152.45 285.415 152.487 285.762C152.504 285.925 152.386 286.071 152.223 286.087C152.212 286.088 152.202 286.089 152.191 286.089V286.088Z" fill="#156063"/>
<path d="M143.045 174.757C142.894 174.757 142.766 174.643 142.75 174.491C142.733 174.327 142.851 174.182 143.014 174.164L148.833 173.555V158.569C148.833 158.405 148.965 158.272 149.13 158.272C149.294 158.272 149.426 158.405 149.426 158.569V173.822C149.426 173.974 149.312 174.101 149.16 174.117L143.075 174.754C143.064 174.755 143.055 174.756 143.044 174.756L143.045 174.757Z" fill="#156063"/>
<path d="M169.029 277.455C168.871 277.455 168.74 277.331 168.733 277.172C168.711 276.708 166.492 230.588 163.895 211.656C161.299 192.72 155.678 164.05 155.621 163.763C155.59 163.602 155.694 163.446 155.856 163.415C156.017 163.383 156.172 163.488 156.204 163.648C156.26 163.936 161.885 192.622 164.484 211.575C167.083 230.534 169.304 276.679 169.326 277.143C169.334 277.306 169.208 277.446 169.044 277.454C169.039 277.454 169.035 277.454 169.03 277.454L169.029 277.455Z" fill="#156063"/>
<path d="M132.575 281.296C132.424 281.296 132.295 281.182 132.28 281.028C132.221 280.415 126.402 219.404 127.05 199.051C127.698 178.7 131.009 156.279 131.043 156.055C131.067 155.892 131.219 155.78 131.38 155.805C131.542 155.829 131.654 155.98 131.63 156.143C131.597 156.366 128.29 178.755 127.643 199.071C126.996 219.386 132.812 280.359 132.872 280.973C132.887 281.136 132.768 281.281 132.605 281.296C132.595 281.296 132.586 281.297 132.576 281.297L132.575 281.296Z" fill="#156063"/>
<path d="M153.873 101.817C153.873 101.817 159.226 103.529 164.189 108.568C167.897 112.333 180.386 123.538 180.386 123.538C180.386 123.538 193.052 115.93 198.448 113.051C198.448 113.051 198.891 119.327 203.548 123.538C203.548 123.538 188.194 141.308 180.664 141.717C173.133 142.127 156.316 127.949 156.316 127.949L153.873 101.818V101.817Z" fill="white"/>
<path d="M179.649 135.113C179.504 135.113 179.377 135.007 179.356 134.859C178.595 129.658 180.082 123.528 180.098 123.467C180.137 123.307 180.298 123.21 180.457 123.25C180.616 123.29 180.713 123.45 180.674 123.609C180.66 123.67 179.2 129.69 179.943 134.773C179.967 134.936 179.855 135.086 179.693 135.11C179.678 135.112 179.665 135.113 179.65 135.113H179.649Z" fill="#DDF3F1"/>
<path d="M128.14 100.096L131.729 99.6574L132.121 96.333L141.699 98.3771L144.078 97.0622L144.425 99.3417L147.275 100.096C147.275 100.096 149.433 101.232 150.147 111.594C150.862 121.956 149.6 125.287 149.6 125.287L137.39 111.424L128.14 100.096Z" fill="white"/>
<path d="M139.937 104.174C139.89 104.174 139.845 104.163 139.802 104.142L131.726 100.044C131.58 99.9697 131.521 99.7907 131.596 99.6452C131.67 99.4988 131.848 99.4404 131.994 99.5146L139.76 103.455L141.417 98.2878C141.451 98.1799 141.545 98.1008 141.658 98.0849C141.771 98.0691 141.882 98.1186 141.946 98.2136L144.229 101.607L144.129 99.3563C144.122 99.1921 144.248 99.0536 144.412 99.0466C144.573 99.0387 144.714 99.1664 144.721 99.3296L144.868 102.635C144.873 102.768 144.79 102.888 144.664 102.93C144.537 102.972 144.399 102.924 144.325 102.814L141.793 99.0526L140.218 103.969C140.191 104.052 140.13 104.118 140.05 104.152C140.013 104.167 139.974 104.175 139.935 104.175L139.937 104.174Z" fill="#DDF3F1"/>
<path d="M149.13 123.835C148.967 123.835 148.835 123.703 148.833 123.541C148.781 117.677 141.497 98.6755 141.422 98.4846C141.363 98.3312 141.44 98.1601 141.593 98.1007C141.746 98.0423 141.917 98.1185 141.976 98.2709C142.278 99.0555 149.373 117.563 149.426 123.535C149.427 123.699 149.296 123.833 149.133 123.835H149.13Z" fill="#DDF3F1"/>
<path d="M149.13 123.834C149.13 123.834 137.173 101.961 128.14 100.096C128.14 100.096 118.95 101.051 116.858 103.53C114.766 106.008 115.721 119.573 117.584 129.135C119.446 138.698 118.618 153.694 118.618 153.694C118.618 153.694 131.575 157.074 145.775 156.276C156.985 155.647 159.409 153.06 159.409 153.06L158.934 135.986C158.934 135.986 163.826 128.6 162.995 123.834C162.165 119.068 157.51 113.109 156.705 110.502C155.9 107.895 153.945 101.543 153.945 101.543L147.275 100.096C147.275 100.096 151.416 111.009 149.13 123.834Z" fill="#CE804A"/>
<path d="M145.064 137.605C138.07 137.605 136.04 134.911 135.951 134.788C135.855 134.656 135.884 134.47 136.018 134.374C136.151 134.278 136.336 134.307 136.431 134.439C136.461 134.479 138.729 137.401 146.659 136.966C146.825 136.958 146.963 137.083 146.971 137.246C146.98 137.409 146.855 137.55 146.691 137.559C146.122 137.59 145.58 137.604 145.064 137.604V137.605Z" fill="#A66132"/>
<path d="M136.196 203.848C133.949 203.848 131.701 203.667 129.46 203.306C124.044 202.432 118.91 200.54 114.203 197.682C109.496 194.826 105.448 191.146 102.17 186.745C98.773 182.183 96.3606 177.051 94.9996 171.49C93.6385 165.93 93.4081 160.264 94.3151 154.648C95.1895 149.23 97.0806 144.095 99.9372 139.387C102.793 134.678 106.472 130.629 110.872 127.35C115.433 123.952 120.563 121.539 126.122 120.178L176.209 107.913C180.764 106.797 185.426 106.442 190.066 106.855C194.552 107.255 198.929 108.365 203.078 110.155C207.175 111.923 210.952 114.311 214.304 117.254C217.709 120.243 220.595 123.734 222.883 127.631C225.588 132.239 224.373 138.068 220.245 141.244C225.352 142.273 229.011 146.969 228.614 152.3C228.284 156.715 227.267 161.038 225.589 165.149C223.934 169.204 221.674 172.966 218.871 176.329C213.034 183.333 205.259 188.184 196.384 190.357L146.298 202.621C142.958 203.44 139.579 203.848 136.196 203.849V203.848ZM186.229 127.674C184.554 127.674 182.864 127.872 181.193 128.281L131.106 140.545C119.611 143.36 112.547 155.005 115.361 166.505C118.175 178.003 129.818 185.07 141.314 182.254L191.4 169.989C200.463 167.77 207.016 160.034 207.71 150.739C207.94 147.647 209.488 144.97 211.764 143.215C208.948 142.643 206.376 140.922 204.807 138.248C200.918 131.622 193.721 127.673 186.23 127.673L186.229 127.674Z" fill="#1BBDC3"/>
<path d="M139.645 156.198C139.366 151.779 138.398 147.445 136.768 143.315C135.158 139.241 132.942 135.454 130.175 132.059C124.42 124.989 116.699 120.05 107.85 117.777L67.5903 107.433C67.3064 109.094 67.0552 110.777 66.8366 112.482C66.1739 117.658 65.8148 123.038 65.804 128.622L102.635 138.086C111.671 140.408 118.137 148.217 118.724 157.519C118.92 160.614 120.438 163.308 122.693 165.089C119.871 165.629 117.279 167.321 115.679 169.977C110.828 178.031 101.073 182.019 91.9551 179.676L72.9513 174.793C73.5161 176.679 74.1184 178.583 74.7574 180.502C76.0007 184.238 77.3864 188.04 78.9186 191.905C79.8345 194.215 80.7969 196.486 81.8038 198.717L86.7395 199.985C91.2825 201.153 95.9402 201.561 100.584 201.2C105.074 200.852 109.463 199.791 113.631 198.049C117.749 196.327 121.553 193.982 124.938 191.079C128.377 188.127 131.303 184.669 133.634 180.8C136.392 176.222 135.244 170.381 131.151 167.158C136.269 166.187 139.982 161.532 139.645 156.198Z" fill="#16979C"/>
<path d="M99.3526 201.58C99.1973 201.58 99.0668 201.459 99.0569 201.302C99.047 201.139 99.1706 200.997 99.3348 200.987C105.836 200.583 112.043 198.85 117.284 195.978C117.428 195.899 117.609 195.952 117.687 196.096C117.766 196.239 117.713 196.42 117.569 196.498C112.252 199.412 105.959 201.169 99.3714 201.579C99.3655 201.579 99.3586 201.579 99.3526 201.579V201.58Z" fill="#156063"/>
<path d="M130.398 185.195C130.323 185.195 130.248 185.166 130.189 185.109C130.072 184.993 130.071 184.806 130.187 184.689C132.035 182.819 134.327 179.79 134.751 175.973C134.937 174.302 134.701 172.608 134.071 171.074C133.579 169.876 132.81 169.071 131.996 168.218C131.698 167.904 131.388 167.581 131.086 167.23C131.022 167.155 130.998 167.053 131.025 166.957C131.052 166.861 131.124 166.786 131.218 166.755C133.444 166.019 135.574 165.182 137.157 163.051C138.556 161.169 139.601 157.545 139.393 155.296C139.378 155.133 139.498 154.989 139.661 154.974C139.824 154.959 139.969 155.079 139.983 155.242C140.202 157.612 139.104 161.427 137.633 163.405C136.05 165.536 133.995 166.439 131.83 167.175C132.028 167.393 132.229 167.602 132.425 167.807C133.278 168.702 134.084 169.546 134.619 170.848C135.287 172.472 135.536 174.267 135.339 176.037C134.896 180.024 132.522 183.17 130.609 185.106C130.55 185.164 130.474 185.194 130.398 185.194V185.195Z" fill="#156063"/>
<path d="M113.955 172.602C113.907 172.602 113.86 172.591 113.815 172.568C113.671 172.491 113.616 172.311 113.693 172.166C114.775 170.13 115.948 168.57 117.279 167.395C118.715 166.129 120.388 165.302 122.054 165.024C120.091 163.203 118.817 160.497 118.529 157.49C118.184 153.904 117.274 151.046 115.665 148.499C115.578 148.36 115.619 148.177 115.757 148.089C115.896 148.001 116.079 148.043 116.167 148.181C117.826 150.811 118.765 153.75 119.118 157.433C119.417 160.538 120.809 163.298 122.939 165.006C123.034 165.082 123.073 165.209 123.037 165.325C123.001 165.442 122.897 165.524 122.776 165.534C121.018 165.668 119.205 166.487 117.67 167.841C116.393 168.968 115.262 170.474 114.215 172.446C114.162 172.546 114.059 172.603 113.953 172.603L113.955 172.602Z" fill="#156063"/>
<path d="M146.876 130.277C147.302 127.163 146.366 123.874 144.33 121.475C141.83 118.528 137.976 116.968 134.342 118.154C131.682 119.022 128.844 119.512 126.122 120.179C120.563 121.54 115.433 123.953 110.872 127.351C106.471 130.63 102.793 134.679 99.9372 139.388C97.8601 142.813 96.2646 146.526 95.2261 150.396C94.1153 154.535 94.2023 158.104 95.1509 162.323C95.5683 164.179 96.1519 166.059 97.3635 167.525C99.5495 170.17 103.288 170.919 106.719 170.942C108.575 170.953 110.5 170.784 112.123 169.884C115.582 167.964 114.722 164.514 114.743 161.268C114.763 158.093 115.504 154.936 116.886 152.079C119.655 146.348 124.922 142.063 131.106 140.549C136.941 139.12 145.13 138.22 146.715 131.177C146.783 130.88 146.836 130.58 146.877 130.279L146.876 130.277Z" fill="#1BBDC3"/>
<path d="M149.473 177.226C150.025 177.736 150.578 178.246 151.161 178.721C151.693 179.153 154.937 182.281 157.714 182.401C158.411 182.915 159.318 183.449 160.123 183.765C160.255 183.816 160.391 183.866 160.531 183.884C160.899 183.931 161.286 183.74 161.472 183.42C161.535 183.312 161.577 183.175 161.524 183.059C161.975 183.6 162.516 184.16 163.042 184.628C163.338 184.892 163.66 185.151 164.044 185.244C164.429 185.337 164.893 185.218 165.085 184.871C165.425 184.256 164.95 183.51 164.592 183.02C164.404 182.759 163.503 181.546 163.236 181.188C161.945 179.458 160.615 177.756 159.249 176.083C159.022 175.804 158.784 175.508 158.727 175.152C160.663 176.552 162.602 177.955 164.37 179.561C165.031 180.161 165.677 180.766 166.49 181.157C166.914 181.36 167.318 181.479 167.72 181.106C168.469 180.411 167.581 179.504 167.099 179.005C166.358 178.237 165.618 177.47 164.877 176.702L162.469 174.206C162.258 173.988 162.047 173.77 161.838 173.551C160.739 172.412 159.64 171.274 158.542 170.135C159.223 170.228 159.917 170.454 160.563 170.689C161.242 170.935 161.898 171.259 162.603 171.416C163.309 171.573 164.098 171.545 164.69 171.13C164.965 170.938 165.202 170.604 165.1 170.283C165.059 170.155 164.969 170.047 164.87 169.955C164.4 169.514 163.739 169.359 163.135 169.133C161.446 168.498 160.065 167.207 158.376 166.576C156.889 166.02 155.377 165.947 153.807 165.804C152.491 165.686 151.162 165.566 149.85 165.725C148.537 165.883 147.225 166.345 146.259 167.248C145.328 168.12 144.819 169.602 145.087 171.02C145.24 171.835 146.497 174.471 149.471 177.226H149.473Z" fill="#FFA076"/>
<path d="M157.419 182.425C157.359 182.425 157.298 182.407 157.245 182.368C156.366 181.731 155.656 180.903 154.969 180.103C154.395 179.432 153.799 178.737 153.119 178.178C152.992 178.075 152.973 177.888 153.077 177.761C153.181 177.634 153.368 177.615 153.495 177.72C154.216 178.313 154.828 179.026 155.419 179.717C156.114 180.527 156.77 181.293 157.592 181.889C157.725 181.985 157.755 182.171 157.659 182.303C157.6 182.383 157.51 182.426 157.418 182.426L157.419 182.425Z" fill="#E07443"/>
<path d="M161.526 183.164C161.457 183.164 161.388 183.14 161.331 183.091C160.014 181.942 158.784 180.674 157.676 179.321C157.596 179.225 157.518 179.127 157.439 179.03C156.761 178.194 156.059 177.328 155.126 176.861C154.979 176.788 154.92 176.61 154.993 176.463C155.066 176.316 155.244 176.257 155.392 176.33C156.44 176.855 157.182 177.771 157.9 178.655C157.978 178.752 158.056 178.848 158.135 178.944C159.222 180.271 160.428 181.515 161.721 182.642C161.845 182.75 161.858 182.937 161.75 183.061C161.691 183.128 161.608 183.163 161.526 183.163V183.164Z" fill="#E07443"/>
<path d="M158.268 170.268C158.179 170.268 158.09 170.228 158.032 170.151C157.534 169.499 157.155 168.736 156.937 167.945C156.893 167.787 156.986 167.624 157.143 167.58C157.302 167.537 157.465 167.63 157.508 167.787C157.707 168.505 158.05 169.199 158.503 169.791C158.603 169.922 158.578 170.108 158.448 170.208C158.395 170.249 158.331 170.269 158.268 170.269V170.268Z" fill="#E07443"/>
<path d="M149.898 167.139C149.82 167.139 149.742 167.108 149.684 167.047C149.57 166.928 149.575 166.74 149.692 166.627C150.25 166.094 150.943 165.72 151.694 165.547C151.854 165.51 152.014 165.609 152.051 165.769C152.087 165.929 151.988 166.088 151.828 166.125C151.18 166.275 150.583 166.597 150.103 167.056C150.046 167.112 149.971 167.139 149.898 167.139Z" fill="#E07443"/>
<path d="M132.526 141.183C132.526 141.183 132.818 114.406 131.434 109.803C130.05 105.199 123.833 100.164 117.395 103.501C110.956 106.839 113.109 137.309 113.386 147.24C113.607 155.145 145.096 174.853 145.096 174.853C145.096 174.853 145.614 168.404 152.165 164.519L132.526 141.183Z" fill="white"/>
<path d="M120.503 143.06C120.409 143.06 120.316 143.015 120.258 142.932C120.166 142.798 120.199 142.612 120.334 142.519C125.008 139.282 132.282 140.826 132.59 140.893C132.75 140.928 132.851 141.086 132.816 141.246C132.782 141.406 132.623 141.508 132.463 141.473C132.39 141.457 125.133 139.918 120.672 143.007C120.621 143.043 120.561 143.06 120.504 143.06H120.503Z" fill="#DDF3F1"/>
<path d="M131.337 115.411C131.23 115.411 131.127 115.352 131.073 115.251C131.031 115.17 126.746 107.106 121.242 106.577C121.078 106.562 120.959 106.417 120.975 106.254C120.99 106.091 121.135 105.971 121.298 105.987C123.72 106.219 126.273 107.854 128.68 110.713C130.48 112.852 131.554 114.89 131.6 114.976C131.676 115.122 131.619 115.301 131.474 115.377C131.431 115.4 131.383 115.411 131.337 115.411Z" fill="#DDF3F1"/>
<path d="M143.747 72.658C143.747 72.658 142.539 76.7996 139.042 78.3431C135.544 79.8865 134.748 80.2011 134.748 80.2011C134.748 80.2011 135.815 85.6715 134.237 94.7293C132.658 103.787 131.674 106.372 131.674 106.372C131.674 106.372 127.719 106.643 123.916 105.049C120.113 103.456 119.068 102.616 119.068 102.616C119.068 102.616 125.401 94.2604 126.95 87.9203C129.87 75.9705 130.699 73.1814 135.495 71.6548C140.291 70.1281 145.78 70.8563 146.967 72.102C148.155 73.3476 148.816 77.8949 148.303 78.3935C147.789 78.8922 144.439 75.4194 143.747 72.659V72.658Z" fill="#6D3814"/>
<path d="M122.382 98.0152C122.306 98.0152 122.231 97.9865 122.172 97.9291C122.057 97.8134 122.056 97.6254 122.171 97.5096C124.773 94.8947 126.536 89.0246 128.093 83.8452C128.884 81.2144 129.63 78.73 130.392 77.0471C132.545 72.2881 135.982 70.7625 138.487 70.3202C141.193 69.8423 143.36 70.4825 143.451 70.5092C143.608 70.5567 143.696 70.7219 143.649 70.8792C143.601 71.0355 143.436 71.1246 143.279 71.0781C143.258 71.0721 141.137 70.4498 138.565 70.9089C135.139 71.5213 132.57 73.6693 130.931 77.2914C130.186 78.9388 129.444 81.4043 128.66 84.0153C127.083 89.2611 125.297 95.2073 122.591 97.9281C122.532 97.9865 122.456 98.0152 122.38 98.0152H122.382Z" fill="#452109"/>
<path d="M128.339 99.5566C128.296 99.5566 128.253 99.5477 128.212 99.5279C128.064 99.4576 128 99.2815 128.07 99.1331C129.743 95.5852 130.805 91.8096 131.23 87.9105C131.248 87.7472 131.394 87.6295 131.557 87.6473C131.72 87.6651 131.838 87.8115 131.82 87.9748C131.389 91.9393 130.308 95.7791 128.608 99.3864C128.557 99.4942 128.45 99.5566 128.339 99.5566Z" fill="#452109"/>
<path d="M200.893 105.427C198.974 105.807 196.308 108.6 196.454 109.889C196.599 111.178 198.726 110.895 199.6 110.188C200.473 109.482 201.278 108.888 201.278 108.888L202.727 107.407C202.727 107.407 202.813 105.047 200.894 105.427H200.893Z" fill="#FFA076"/>
<path d="M207.167 109.09C205.248 109.47 203.316 111.418 203.462 112.707C203.607 113.997 205.734 113.713 206.608 113.006C207.481 112.3 209.001 111.07 209.001 111.07C209.001 111.07 209.087 108.71 207.168 109.09H207.167Z" fill="#FFA076"/>
<path d="M209.995 110.448C208.081 110.851 206.144 112.776 206.289 114.066C206.435 115.355 208.679 115.109 209.77 114.077C209.77 114.077 210.461 114.371 211.977 115.37C211.977 115.37 212.435 109.935 209.996 110.448H209.995Z" fill="#FFA076"/>
<path d="M204.597 106.578C202.448 107.004 199.46 110.134 199.623 111.578C199.786 113.023 202.169 112.704 203.148 111.913C204.126 111.121 205.028 110.456 205.028 110.456L206.513 109.418C206.513 109.418 206.748 106.153 204.598 106.577L204.597 106.578Z" fill="#FFA076"/>
<path d="M203.461 113.005C203.311 113.005 203.184 112.893 203.166 112.741C203 111.267 205.063 109.204 207.108 108.8C207.269 108.768 207.425 108.872 207.457 109.033C207.488 109.193 207.383 109.35 207.223 109.381C205.36 109.75 203.635 111.608 203.754 112.674C203.773 112.837 203.655 112.984 203.492 113.003C203.481 113.004 203.469 113.005 203.459 113.005H203.461Z" fill="#E07443"/>
<path d="M206.288 114.364C206.139 114.364 206.011 114.252 205.994 114.1C205.83 112.651 207.892 110.589 209.933 110.16C210.095 110.126 210.251 110.229 210.284 110.389C210.318 110.55 210.215 110.707 210.055 110.74C208.192 111.132 206.465 112.987 206.583 114.034C206.602 114.197 206.484 114.344 206.321 114.363C206.31 114.364 206.298 114.365 206.287 114.365L206.288 114.364Z" fill="#E07443"/>
<path d="M199.622 111.875C199.472 111.875 199.345 111.763 199.327 111.612C199.141 109.963 202.307 106.729 204.539 106.287C204.7 106.255 204.855 106.36 204.887 106.52C204.918 106.682 204.814 106.837 204.653 106.869C202.582 107.278 199.774 110.285 199.916 111.545C199.934 111.708 199.817 111.854 199.653 111.873C199.643 111.874 199.631 111.875 199.62 111.875H199.622Z" fill="#E07443"/>
<path d="M281.231 110.61C281.231 110.61 276.344 117.921 275.166 124.862C273.988 131.802 276.403 140.749 276.403 140.749C276.403 140.749 281.318 133.312 282.496 127.254C283.675 121.196 281.231 110.61 281.231 110.61Z" fill="#16979C"/>
<path d="M349.731 71.8409C349.731 71.8409 350.535 73.9057 350.222 76.583C349.909 79.2593 345.856 86.7282 341.483 86.9865C337.11 87.2447 339.251 71.8409 339.251 71.8409C339.251 71.8409 348.304 70.7575 349.731 71.8409Z" fill="#2E3333"/>
<path d="M352.649 170.215C351.023 176.102 347.495 205.431 344.626 218.549C342.505 228.242 337.082 233.236 329.065 233.443C321.833 233.63 318.408 232.676 317.589 217.846C316.834 204.19 317.378 188.601 317.339 177.467C317.3 166.334 317.277 163.507 325.342 162.11C333.406 160.713 354.065 165.088 352.649 170.214V170.215Z" fill="#FFA076"/>
<path d="M328.682 216.663C323.533 216.795 319.241 220.716 318.609 225.83C318.324 228.141 318.217 230.91 318.513 234.069C319.457 244.144 322.783 287.345 322.783 287.345C322.783 287.345 329.909 292.604 335.928 288.321C335.928 288.321 344.229 250.73 345.227 242.467C346.11 235.156 346.576 216.201 328.681 216.663H328.682Z" fill="#FFA076"/>
<path d="M357.644 97.7629C352.629 92.8872 340.147 93.9082 337.527 94.1843C334.902 94.4029 322.447 95.7297 318.431 101.457C313.932 107.871 313.582 151.76 317.133 162.321C319.951 170.703 335.867 169.779 342.315 169.04C343.806 168.868 345.295 168.729 346.792 168.618C353.264 168.139 369.073 166.075 370.277 157.314C371.794 146.276 363.26 103.225 357.644 97.7629Z" fill="#FFA076"/>
<path d="M370.285 160.741C370.285 160.741 373.376 172.304 374.627 184.85C375.878 197.395 374.847 220.594 375.378 236.493C376.036 256.145 379.058 282.329 379.058 282.329C379.058 282.329 375.33 289.598 366.238 285.747C366.238 285.747 359.187 264.742 357.339 257.515C355.49 250.289 353.773 244.67 352.596 240.45C351.419 236.231 345.253 212.859 344.759 195.568C344.265 178.276 345.356 165.62 345.356 165.62L370.284 160.743L370.285 160.741Z" fill="#FFA076"/>
<path d="M322.527 95.8896C325.318 96.3002 331.515 100.019 327.43 110.173C324.788 116.74 305.901 142.343 298.89 141.631C290.077 140.735 290.035 133.821 293.149 127.109C295.856 121.273 311.977 94.3382 322.527 95.8896Z" fill="#FFA076"/>
<path d="M304.332 130.419C301.929 125.447 290.549 118.093 284.848 114.324C279.147 110.557 275.696 107.163 273.782 106.441C271.87 105.718 263.698 106.965 271.527 118.645C279.357 130.325 290.212 139.727 295.171 141.305C300.13 142.882 306.645 135.206 304.33 130.42L304.332 130.419Z" fill="#FFA076"/>
<path d="M339.519 285.505C339.519 285.505 339.592 310.543 339.279 311.168H292.459C292.459 311.168 293.143 305.099 295.567 304.004C297.99 302.91 318.344 294.017 318.891 293.548C319.438 293.079 316.359 280.916 322.065 282.636C327.771 284.357 327.39 286.781 330.595 286.546C333.8 286.312 337.646 281.461 339.519 285.505Z" fill="#1BBDC3"/>
<path d="M339.519 307.301L293.186 307.72C293.186 307.72 292.665 309.534 292.459 311.168H339.279L339.519 307.3V307.301Z" fill="#2E3333"/>
<path d="M310.961 299.6C308.713 299.6 306.958 299.323 306.831 299.302C306.668 299.276 306.559 299.124 306.585 298.962C306.611 298.799 306.763 298.691 306.926 298.716C306.98 298.725 312.391 299.578 316.399 298.278C323.387 296.013 325.872 293.642 325.896 293.618C326.012 293.503 326.2 293.505 326.315 293.623C326.43 293.74 326.428 293.928 326.311 294.042C326.209 294.142 323.727 296.528 316.581 298.843C314.765 299.432 312.713 299.6 310.96 299.6H310.961Z" fill="#335ED6"/>
<path d="M339.526 288.81L341.52 290.588C342.077 291.085 342.037 291.968 341.437 292.413L339.519 293.83L318.891 293.549L318.578 288.605L339.526 288.81Z" fill="#2E3333"/>
<path d="M332.722 307.659C332.619 307.659 332.519 307.606 332.464 307.51C328.274 300.205 322.671 296.271 322.615 296.233C322.48 296.14 322.447 295.955 322.54 295.82C322.633 295.686 322.818 295.652 322.952 295.745C323.01 295.785 328.718 299.789 332.979 307.215C333.061 307.357 333.011 307.538 332.869 307.62C332.822 307.646 332.772 307.659 332.722 307.659Z" fill="#335ED6"/>
<path d="M326.103 307.719C325.975 307.719 325.856 307.635 325.819 307.506C324.19 301.91 319.576 297.648 319.53 297.606C319.409 297.495 319.4 297.308 319.511 297.186C319.622 297.066 319.809 297.057 319.93 297.168C319.978 297.211 324.713 301.58 326.389 307.339C326.435 307.497 326.345 307.662 326.188 307.708C326.16 307.715 326.132 307.719 326.104 307.719H326.103Z" fill="#335ED6"/>
<path d="M307.762 307.885C307.643 307.885 307.53 307.812 307.484 307.693C305.551 302.579 302.635 301.12 302.605 301.106C302.458 301.035 302.395 300.858 302.467 300.71C302.538 300.563 302.714 300.501 302.861 300.571C302.989 300.632 306.014 302.126 308.039 307.484C308.098 307.637 308.021 307.808 307.867 307.867C307.833 307.879 307.797 307.886 307.762 307.886V307.885Z" fill="#335ED6"/>
<path d="M376.969 280.463L377.809 280.386C378.57 280.316 379.278 280.778 379.519 281.503C380.902 285.659 385.589 301.329 385.833 304.325C386.124 307.886 386.008 310.734 385.573 311.168H362.934C362.799 310.712 361.375 307.774 361.594 306.696C361.811 305.619 364.883 299.342 364.898 297.782C364.914 296.222 365.445 288.841 365.445 288.841L364.01 283.593C363.74 282.606 364.427 281.615 365.445 281.521C365.445 281.521 365.518 276.556 369.682 275.909C375.188 275.053 376.969 280.462 376.969 280.462V280.463Z" fill="#1BBDC3"/>
<path d="M380.149 283.465L383.718 284.463C384.653 284.724 384.886 285.943 384.115 286.532L381.698 288.374L365.445 288.842L364.177 284.205L380.149 283.465Z" fill="#2E3333"/>
<path d="M385.971 306.697H361.594C361.594 306.697 361.438 308.795 362.934 311.169H385.573C385.573 311.169 386.209 309.795 385.971 306.697Z" fill="#2E3333"/>
<path d="M365.486 301.703C365.343 301.703 365.218 301.6 365.193 301.455C365.166 301.294 365.276 301.14 365.437 301.114C376.163 299.349 382.802 301.102 382.869 301.121C383.027 301.163 383.12 301.326 383.077 301.485C383.035 301.643 382.872 301.736 382.713 301.693C382.649 301.676 376.121 299.959 365.534 301.699C365.519 301.702 365.502 301.703 365.486 301.703Z" fill="#335ED6"/>
<path d="M373.679 298.869C372.477 298.869 371.43 298.457 370.564 297.642C367.765 295.011 367.776 289.09 367.778 288.839C367.779 288.676 367.911 288.544 368.074 288.544H368.076C368.241 288.545 368.372 288.68 368.371 288.843C368.371 288.901 368.36 294.757 370.972 297.209C371.803 297.991 372.827 298.345 374.018 298.262C375.245 298.177 376.25 297.672 377.006 296.762C379.271 294.035 378.667 288.541 378.661 288.486C378.642 288.323 378.759 288.176 378.922 288.157C379.084 288.138 379.232 288.255 379.251 288.418C379.279 288.653 379.891 294.217 377.464 297.14C376.601 298.18 375.455 298.757 374.06 298.854C373.931 298.863 373.804 298.867 373.68 298.867L373.679 298.869Z" fill="#335ED6"/>
<path d="M383.328 294.439C383.292 294.439 383.255 294.432 383.22 294.418C383.191 294.406 380.283 293.259 378.826 293.189C378.663 293.181 378.536 293.042 378.544 292.878C378.552 292.715 378.689 292.585 378.855 292.596C380.409 292.672 383.315 293.818 383.438 293.867C383.591 293.927 383.665 294.099 383.604 294.252C383.558 294.368 383.446 294.44 383.328 294.44V294.439Z" fill="#335ED6"/>
<path d="M384.578 298.551C384.505 298.551 384.432 298.525 384.375 298.471C382.919 297.103 377.568 296.862 377.514 296.86C377.349 296.853 377.223 296.715 377.23 296.552C377.237 296.388 377.374 296.262 377.538 296.268C377.768 296.278 383.165 296.521 384.781 298.039C384.9 298.151 384.906 298.339 384.793 298.458C384.735 298.521 384.656 298.552 384.577 298.552L384.578 298.551Z" fill="#335ED6"/>
<path d="M364.76 298.869C364.634 298.869 364.518 298.789 364.477 298.663C364.427 298.507 364.513 298.34 364.669 298.29L370.127 296.537C370.283 296.486 370.45 296.573 370.5 296.729C370.55 296.885 370.464 297.052 370.308 297.102L364.85 298.855C364.82 298.865 364.79 298.869 364.759 298.869H364.76Z" fill="#335ED6"/>
<path d="M365.086 294.438C364.947 294.438 364.822 294.339 364.796 294.197C364.765 294.036 364.871 293.88 365.032 293.851L368.456 293.203C368.617 293.172 368.773 293.278 368.802 293.439C368.833 293.6 368.727 293.756 368.566 293.785L365.142 294.433C365.123 294.437 365.104 294.438 365.086 294.438Z" fill="#335ED6"/>
<path d="M342.497 83.4248L343.276 95.8228C343.276 95.8228 338.952 98.1519 335.325 97.7393C331.635 97.3198 330.365 96.5797 330.365 96.5797L330.237 89.4809C330.237 89.4809 337.179 85.0979 342.498 83.4248H342.497Z" fill="#FFA076"/>
<path d="M329.435 89.4729C325.042 87.9947 325.206 83.0587 325.539 80.5427C325.78 78.7113 326.441 77.4676 326.699 76.3011C326.957 75.1347 326.667 74.4876 326.819 73.0639C326.915 72.1576 327.89 69.9324 328.633 68.4137C329.094 67.4708 330.093 66.9168 331.135 67.0316C333.436 67.2838 337.464 67.8874 338.861 69.1192C340.861 70.8813 340.521 76.1399 341.071 77.7209C341.071 77.7209 344.148 74.2333 344.949 78.555C345.354 80.7346 344.023 83.4643 342.834 84.4874C342.112 85.1087 341.337 84.4923 341.337 84.4923C341.337 84.4923 336.665 91.9068 329.435 89.4739V89.4729Z" fill="#FFA076"/>
<path d="M340.669 74.1221C340.669 74.1221 337.838 79.9031 335.787 80.8638C333.735 81.8245 330.366 81.7137 328.508 81.3001C326.253 80.7985 325.348 79.6152 324.999 80.3701C324.649 81.125 323.253 85.8829 326.569 89.0698C329.886 92.2566 335.104 91.3206 337.838 89.0698C339.623 87.6005 340.772 83.8755 341.023 80.9073C341.274 77.9391 341.405 76.4541 341.405 76.4541L340.669 74.1221Z" fill="#2E3333"/>
<path d="M328.784 82.6569C331.471 82.5016 333.725 82.6569 333.725 82.6569C333.725 82.6569 331.809 85.1858 330.934 85.0117C330.06 84.8375 328.784 82.6569 328.784 82.6569Z" fill="white"/>
<path d="M331.227 80.6676C330.03 80.6676 329.49 80.3292 329.246 80.0373C329.059 79.8128 328.988 79.5427 329.045 79.2755C329.114 78.954 329.323 78.7135 329.588 78.4088C329.839 78.1199 330.152 77.7608 330.503 77.177C331.18 76.0551 331.174 74.5334 331.174 74.5185C331.173 74.3543 331.303 74.2207 331.467 74.2188H331.47C331.633 74.2188 331.765 74.3493 331.767 74.5126C331.767 74.5819 331.776 76.2153 331.011 77.4837C330.633 78.112 330.287 78.5087 330.035 78.7986C329.81 79.0579 329.661 79.228 329.624 79.4002C329.605 79.4872 329.631 79.5743 329.7 79.6574C329.789 79.7643 330.175 80.1096 331.412 80.072C331.415 80.072 331.418 80.072 331.421 80.072C331.58 80.072 331.713 80.1986 331.718 80.3599C331.723 80.5241 331.594 80.6607 331.43 80.6656C331.36 80.6676 331.291 80.6686 331.225 80.6686L331.227 80.6676Z" fill="#E07443"/>
<path d="M327.04 73.6747C326.923 73.6747 326.813 73.6055 326.766 73.4907C326.704 73.3393 326.776 73.1652 326.927 73.1029C326.986 73.0791 328.37 72.5201 330.186 72.8694C330.347 72.9 330.452 73.0564 330.421 73.2166C330.39 73.3779 330.235 73.4828 330.074 73.4521C328.431 73.1355 327.168 73.646 327.155 73.651C327.117 73.6658 327.08 73.6737 327.042 73.6737L327.04 73.6747Z" fill="#E07443"/>
<path d="M337.196 74.9465C337.147 74.9465 337.096 74.9336 337.05 74.9079C335.393 73.967 333.73 73.8948 333.714 73.8948C333.549 73.8888 333.422 73.7513 333.428 73.5871C333.434 73.4238 333.571 73.2932 333.734 73.3011C333.808 73.3041 335.554 73.3753 337.343 74.3914C337.485 74.4726 337.536 74.6536 337.455 74.7961C337.4 74.8921 337.299 74.9465 337.196 74.9465Z" fill="#E07443"/>
<path d="M336.966 77.2789C336.827 77.921 336.307 78.3534 335.802 78.2445C335.297 78.1357 335 77.5272 335.138 76.8851C335.276 76.243 335.783 75.875 336.288 75.9838C336.793 76.0926 337.104 76.6368 336.966 77.2789Z" fill="#2E3333"/>
<path d="M330.11 76.597C329.992 77.1501 329.543 77.5221 329.108 77.4291C328.674 77.3361 328.418 76.8117 328.537 76.2586C328.655 75.7055 329.093 75.3899 329.527 75.4829C329.961 75.5759 330.229 76.0439 330.11 76.597Z" fill="#2E3333"/>
<path d="M342.11 83.2285C341.757 83.2285 341.462 83.0415 341.288 82.7012C340.957 82.0521 341.095 80.9054 341.563 80.4295C341.792 80.197 342.082 80.1426 342.359 80.2782C342.507 80.3504 342.567 80.5285 342.495 80.6749C342.423 80.8223 342.245 80.8827 342.098 80.8105C342.067 80.7946 342.046 80.7847 341.987 80.8451C341.726 81.1102 341.592 81.9908 341.817 82.4301C341.902 82.5953 342.011 82.6547 342.183 82.629C342.349 82.6042 342.653 82.3381 342.964 81.6732C343.454 80.6245 343.68 79.171 343.419 78.7407C343.314 78.5665 343.221 78.5616 343.186 78.5606C343.181 78.5606 343.176 78.5606 343.172 78.5606C342.889 78.5606 342.443 78.9771 342.212 79.2799C342.113 79.4105 341.926 79.4352 341.797 79.3363C341.666 79.2373 341.641 79.0513 341.74 78.9207C341.817 78.8198 342.513 77.9313 343.218 77.9689C343.42 77.9798 343.706 78.0689 343.927 78.4349C344.349 79.1305 344.035 80.7887 343.502 81.9265C343.248 82.4687 342.829 83.1335 342.273 83.2176C342.218 83.2256 342.165 83.2305 342.112 83.2305L342.11 83.2285Z" fill="#E07443"/>
<path d="M332.4 61.5712C334.786 62.4181 338.958 63.5243 341.701 62.0372C344.445 60.5502 348.047 61.2902 349.075 62.3885C350.103 63.4867 352.804 64.1644 354.528 64.3494C356.161 64.5236 358.776 67.0089 355.416 69.2459C355.803 69.6822 356.19 70.1779 356.592 70.7755C357.97 72.8275 355.873 74.7044 353.811 73.4894C351.749 72.2744 347.635 72.1587 346.166 73.0155C344.697 73.8723 341.418 73.4835 338.061 72.504C334.704 71.5245 332.375 67.2058 332.375 67.2058C332.375 67.2058 328.247 70.2778 326.221 68.7542C321.958 65.5456 330.013 60.7253 332.399 61.5732L332.4 61.5712Z" fill="#2E3333"/>
<path d="M332.376 67.5004C332.322 67.5004 332.268 67.4856 332.219 67.4549C332.081 67.3679 332.039 67.1858 332.125 67.0473C332.18 66.9592 333.505 64.8974 336.71 64.7707C336.871 64.7648 337.011 64.8914 337.018 65.0557C337.025 65.2199 336.898 65.3574 336.733 65.3643C333.855 65.4781 332.677 67.2867 332.629 67.3639C332.572 67.4529 332.475 67.5024 332.377 67.5024L332.376 67.5004Z" fill="#1C1C1C"/>
<path d="M355.417 69.5416C355.333 69.5416 355.25 69.506 355.191 69.4377C355.175 69.4189 353.594 67.5994 351.553 67.3966C350.586 67.2996 349.617 67.5321 348.59 67.7775C347.374 68.0674 346.117 68.3682 344.769 68.1366C344.608 68.1089 344.499 67.9556 344.527 67.7943C344.554 67.633 344.708 67.5242 344.869 67.5519C346.096 67.7626 347.294 67.4767 348.451 67.2007C349.481 66.9553 350.545 66.701 351.611 66.8069C353.893 67.0335 355.571 68.9707 355.641 69.0528C355.748 69.1775 355.733 69.3645 355.609 69.4713C355.552 69.5188 355.484 69.5426 355.416 69.5426L355.417 69.5416Z" fill="#1C1C1C"/>
<path d="M343.06 73.7651C342.293 73.7651 341.472 73.6751 340.597 73.4535C340.438 73.4129 340.342 73.2516 340.382 73.0933C340.423 72.934 340.584 72.8381 340.742 72.8786C343.321 73.5306 345.422 72.9637 346.964 72.3968C348.883 71.6914 351.666 72.4067 351.784 72.4374C351.942 72.4789 352.037 72.6412 351.995 72.7995C351.954 72.9578 351.793 73.0528 351.633 73.0112C351.607 73.0043 348.911 72.3127 347.169 72.9538C346.066 73.3595 344.689 73.7651 343.061 73.7651H343.06Z" fill="#1C1C1C"/>
<path d="M380.124 218.396C380.178 226.926 380.682 235.385 381.601 243.867C382.977 256.551 384.352 269.234 385.728 281.918L355.887 283.68L347.909 242.992L344.631 286.154H313.522L312.81 164.531C329.111 157.197 353.173 141.966 368.252 159.602C370.044 161.696 371.467 164.081 372.738 166.527C374.917 170.72 376.675 175.138 377.87 179.71C380.848 191.109 380.236 202.982 380.13 214.645C380.118 215.897 380.117 217.148 380.125 218.396H380.124Z" fill="#CE804A"/>
<path d="M339.85 196.356L347.909 242.991L346.153 266.125C336.632 242.139 339.85 196.356 339.85 196.356Z" fill="#A66132"/>
<path d="M325.246 280.453C325.089 280.453 324.957 280.329 324.949 280.17L320.972 194.135C320.964 193.971 321.091 193.833 321.255 193.825C321.421 193.816 321.557 193.944 321.565 194.108L325.543 280.142C325.551 280.306 325.424 280.445 325.26 280.453C325.255 280.453 325.251 280.453 325.246 280.453Z" fill="#A66132"/>
<path d="M366.098 279.034C365.951 279.034 365.823 278.925 365.804 278.775L353.88 186.147C353.859 185.985 353.974 185.836 354.136 185.815C354.298 185.794 354.447 185.909 354.468 186.071L366.393 278.699C366.414 278.861 366.299 279.01 366.137 279.031C366.124 279.033 366.111 279.033 366.098 279.033V279.034Z" fill="#A66132"/>
<path d="M348.283 244.955C348.258 244.955 348.235 244.936 348.231 244.91L339.465 191.914C339.46 191.884 339.48 191.856 339.51 191.852C339.54 191.847 339.567 191.867 339.571 191.897L348.337 244.893C348.342 244.923 348.322 244.951 348.292 244.955C348.289 244.955 348.286 244.955 348.283 244.955Z" fill="black"/>
<path d="M348.531 92.9144L343.824 93.3478L343.136 89.4199L334.356 92.9154L329.763 91.3849V95.0604L325.564 96.2299C325.564 96.2299 325.699 117.503 331.436 117.996C337.172 118.49 348.531 92.9154 348.531 92.9154V92.9144Z" fill="#1BBDC3"/>
<path d="M331.483 99.7827C331.409 99.7827 331.337 99.757 331.279 99.7085C331.045 99.5097 329.939 97.1529 329.053 95.2108C328.985 95.0614 329.051 94.8852 329.199 94.818C329.349 94.7497 329.525 94.816 329.593 94.9644C330.304 96.5227 331.115 98.2383 331.493 98.9516C331.971 98.0295 333.105 95.2919 334.08 92.8065C334.122 92.6987 334.224 92.6245 334.34 92.6186C334.457 92.6126 334.565 92.6749 334.619 92.7778L337.857 98.9833L343.612 93.14C343.726 93.0232 343.914 93.0222 344.031 93.137C344.148 93.2518 344.149 93.4397 344.034 93.5565L337.993 99.6907C337.926 99.758 337.83 99.7897 337.737 99.7758C337.643 99.7619 337.562 99.7036 337.518 99.6195L334.391 93.6277C334.144 94.2501 333.736 95.2681 333.316 96.2833C331.907 99.6858 331.753 99.7244 331.559 99.7738C331.534 99.7807 331.508 99.7837 331.481 99.7837L331.483 99.7827Z" fill="#335ED6"/>
<path d="M281.833 111.544L276.03 107.437L269.288 117.25L280.715 131.763C280.715 131.763 284.133 123.277 283.42 118.316C282.706 113.355 282.27 111.108 281.834 111.544H281.833Z" fill="#1BBDC3"/>
<path d="M376.926 170.506C362.126 173.072 347.173 174.851 332.225 175.332C331.642 175.349 331.062 175.367 330.479 175.381C322.913 175.573 315.35 175.427 307.811 174.875L308.547 142.739C308.547 142.739 304.184 147.035 299.647 147.646C295.11 148.256 276.403 140.749 276.403 140.749C283.879 126.433 281.232 110.611 281.232 110.611L295.196 119.883C295.196 119.883 307.501 101.029 313.435 97.0145C319.371 92.9985 326.352 95.0872 326.352 95.0872L331.471 116.492L348.531 92.9144C348.531 92.9144 357.572 90.4895 362.847 95.0872C368.122 99.6858 374.809 148.395 375.764 160.742C375.93 162.894 376.348 166.317 376.926 170.507V170.506Z" fill="white"/>
<path d="M308.548 142.74L310.029 116.491L301.575 147.177C301.575 147.177 306.541 144.992 308.548 142.74Z" fill="#DDF3F1"/>
<path d="M332.153 174.517C332 174.517 331.869 174.399 331.857 174.243C329.766 146.598 331.161 116.776 331.176 116.478C331.184 116.313 331.32 116.187 331.486 116.196C331.649 116.204 331.776 116.343 331.768 116.506C331.754 116.804 330.361 146.591 332.449 174.199C332.46 174.362 332.339 174.504 332.176 174.517C332.168 174.517 332.161 174.517 332.153 174.517Z" fill="#DDF3F1"/>
<path d="M308.548 143.036C308.543 143.036 308.537 143.036 308.531 143.036C308.368 143.028 308.242 142.888 308.251 142.724L309.733 115.302C309.742 115.139 309.879 115.013 310.045 115.022C310.208 115.031 310.334 115.17 310.325 115.335L308.843 142.756C308.835 142.915 308.704 143.037 308.548 143.037V143.036Z" fill="#DDF3F1"/>
<path d="M304.737 132C304.607 132 304.488 131.914 304.451 131.783C303.103 126.983 295.084 120.179 295.004 120.111C294.878 120.005 294.862 119.818 294.968 119.693C295.074 119.567 295.261 119.551 295.387 119.657C295.722 119.94 303.625 126.647 305.023 131.623C305.067 131.781 304.975 131.944 304.817 131.989C304.79 131.997 304.763 132 304.737 132Z" fill="#DDF3F1"/>
<path d="M310.028 108.888C309.989 108.888 309.948 108.881 309.91 108.864C309.759 108.798 309.691 108.623 309.756 108.473L315.318 95.7059C315.383 95.5555 315.559 95.4862 315.709 95.5525C315.859 95.6178 315.927 95.7929 315.862 95.9433L310.3 108.71C310.252 108.822 310.143 108.888 310.028 108.888Z" fill="#DDF3F1"/>
<path d="M331.332 126.09C331.248 126.09 331.165 126.055 331.106 125.986L318.62 111.437C318.567 111.376 318.542 111.296 318.55 111.216C318.558 111.135 318.598 111.061 318.661 111.011L324.466 106.435L320.826 94.6533C320.777 94.4969 320.865 94.3307 321.021 94.2822C321.178 94.2338 321.344 94.3218 321.392 94.4781L325.094 106.454C325.13 106.571 325.09 106.698 324.994 106.774L319.272 111.285L331.389 125.404L349.756 113.849L343.106 109.217C343.024 109.16 342.976 109.064 342.98 108.964C342.983 108.863 343.037 108.771 343.123 108.719L349.531 104.861C350.077 101.819 351.74 92.6112 351.918 92.2213C351.987 92.0719 352.163 92.0066 352.311 92.0749C352.457 92.1422 352.524 92.3134 352.461 92.4608C352.307 92.907 350.96 100.257 350.091 105.099C350.077 105.183 350.026 105.257 349.952 105.301L343.821 108.993L350.463 113.621C350.545 113.678 350.593 113.772 350.59 113.871C350.588 113.971 350.536 114.062 350.451 114.116L331.489 126.046C331.441 126.076 331.385 126.091 331.331 126.091L331.332 126.09Z" fill="#DDF3F1"/>
<path d="M332.226 175.332C331.643 175.35 331.063 175.368 330.48 175.381C330.895 164.485 331.332 154.92 331.332 154.92C331.332 154.92 331.606 167.773 332.226 175.332Z" fill="#DDF3F1"/>
<path d="M336.781 136.972C335.233 136.972 333.973 135.423 333.973 133.518C333.973 131.614 335.233 130.064 336.781 130.064C338.329 130.064 339.589 131.614 339.589 133.518C339.589 135.423 338.329 136.972 336.781 136.972ZM336.781 130.658C335.559 130.658 334.566 131.941 334.566 133.518C334.566 135.096 335.559 136.379 336.781 136.379C338.002 136.379 338.996 135.096 338.996 133.518C338.996 131.941 338.002 130.658 336.781 130.658Z" fill="#DDF3F1"/>
<path d="M336.781 164.828C335.233 164.828 333.973 163.278 333.973 161.374C333.973 159.469 335.233 157.92 336.781 157.92C338.329 157.92 339.589 159.469 339.589 161.374C339.589 163.278 338.329 164.828 336.781 164.828ZM336.781 158.514C335.559 158.514 334.566 159.797 334.566 161.374C334.566 162.951 335.559 164.234 336.781 164.234C338.002 164.234 338.996 162.951 338.996 161.374C338.996 159.797 338.002 158.514 336.781 158.514Z" fill="#DDF3F1"/>
<path d="M359.946 141.645C359.946 141.645 365.938 142.953 369.359 151.192C372.78 159.431 371.495 162.367 371.495 162.367V162.787C371.495 162.787 366.006 158.956 362.848 153.868C359.69 148.781 359.947 141.645 359.947 141.645H359.946Z" fill="#16979C"/>
<path d="M302.696 109.237C302.638 109.237 302.579 109.22 302.528 109.185C302.392 109.092 302.359 108.907 302.452 108.772C304.347 106.015 306.377 103.298 308.484 100.697C309.461 99.4926 310.52 98.2332 311.788 97.2349C313.577 95.827 315.766 94.9098 318.296 94.5091C320.582 94.147 323.155 94.2044 325.943 94.6783C326.104 94.706 326.213 94.8593 326.187 95.0206C326.16 95.1819 326.006 95.2907 325.844 95.263C320.065 94.2795 315.46 95.1007 312.156 97.7009C310.935 98.6616 309.902 99.8924 308.946 101.071C306.848 103.66 304.829 106.364 302.942 109.109C302.885 109.193 302.792 109.237 302.697 109.237H302.696Z" fill="#DDF3F1"/>
<path d="M367.679 157.308C368.844 162.69 368.96 168.161 368.021 173.568C367.048 179.172 364.984 184.454 361.886 189.268C358.788 194.081 354.834 198.147 350.137 201.352C345.604 204.445 340.577 206.604 335.196 207.77C329.816 208.936 324.346 209.052 318.94 208.113C313.338 207.139 308.057 205.075 303.245 201.975L259.889 174.052C255.946 171.512 252.48 168.372 249.589 164.72C246.793 161.189 244.587 157.247 243.032 153.005C241.496 148.815 240.63 144.43 240.459 139.971C240.285 135.443 240.833 130.946 242.086 126.606C243.569 121.471 248.633 118.343 253.778 119.156C251.011 114.741 251.901 108.853 256.042 105.474C259.472 102.676 263.308 100.44 267.445 98.8297C271.525 97.2417 275.809 96.2948 280.179 96.0148C289.276 95.4331 298.145 97.7413 305.827 102.689L349.182 130.613C353.994 133.712 358.059 137.666 361.263 142.365C364.006 146.387 366.014 150.796 367.247 155.498C367.404 156.097 367.548 156.701 367.68 157.309L367.679 157.308ZM262.226 132.421C259.617 141.455 263.324 151.323 271.238 156.421L314.594 184.345C319.415 187.449 325.155 188.49 330.758 187.276C336.362 186.062 341.157 182.738 344.261 177.916C350.668 167.961 347.785 154.65 337.834 148.241L294.479 120.317C286.635 115.265 276.512 115.829 269.292 121.721C266.89 123.68 263.882 124.398 261.044 123.954C262.566 126.392 263.086 129.442 262.226 132.421Z" fill="#16979C"/>
<path d="M340.299 174.084C338.994 172.582 337.258 171.441 335.319 170.839C332.115 169.846 328.29 170.356 325.661 172.499C323.337 174.393 321.904 177.26 321.801 180.258C321.78 180.852 321.811 181.448 321.891 182.036C322.142 183.896 322.516 185.732 323.011 187.532C325.554 187.915 328.172 187.835 330.76 187.275C334.491 186.467 337.979 184.671 340.781 182.075C341.567 181.346 342.203 180.644 342.786 180.01C342.74 179.751 342.7 179.491 342.664 179.227C342.402 177.286 341.547 175.519 340.3 174.084H340.299Z" fill="#1BBDC3"/>
<path d="M360.595 197.546L407.951 205.021C405.831 209.93 403.297 214.771 400.355 219.476C399.285 221.188 398.18 222.872 397.043 224.527L357.326 218.258C352.693 217.527 348.256 216.054 344.136 213.88C340.964 212.207 338.029 210.144 335.383 207.728C340.693 206.554 345.656 204.409 350.136 201.353C351.598 200.355 354.125 198.562 356.468 196.459C357.788 196.954 359.169 197.321 360.594 197.547L360.595 197.546Z" fill="#1BBDC3"/>
<path d="M336.434 172.41C333.238 172.347 329.809 171.035 327.569 168.702C325.369 166.409 324.572 162.805 325.193 159.745C325.381 158.816 325.699 157.913 326.129 157.068C328.137 153.124 330.746 149.529 333.88 146.385C334.019 146.244 334.162 146.104 334.303 145.966C337.293 143.05 340.685 140.597 344.393 138.668C347.711 136.943 351.187 135.679 354.758 134.886C359.896 133.743 365.227 133.576 370.553 134.417L411.15 140.825C413.89 147.619 415.477 155.043 415.924 162.806L367.284 155.129L367.141 155.106C359.542 153.959 352.084 156.924 347.358 162.679C346.384 163.865 345.527 165.17 344.807 166.583C344.152 167.869 343.21 168.765 342.275 169.813C341.316 170.885 340.124 171.783 338.719 172.166C337.977 172.369 337.2 172.424 336.431 172.409L336.434 172.41Z" fill="#1BBDC3"/>
<path d="M384.388 122.73C378.839 124.247 369.102 134.107 364.14 139.033C359.177 143.958 355.036 146.756 353.924 148.5C352.812 150.243 352.493 158.404 365.956 152.716C379.419 147.028 391.145 138.018 393.725 133.451C396.305 128.884 389.731 121.271 384.388 122.731V122.73Z" fill="#FFA076"/>
<path d="M360.845 141.025L356.591 144.884L360.845 156.186L371.73 153.144C371.73 153.144 364.706 142.394 360.845 141.025Z" fill="#1BBDC3"/>
<path d="M356.59 145.181C356.509 145.181 356.429 145.149 356.37 145.084C356.26 144.963 356.269 144.776 356.391 144.665L360.645 140.806C360.767 140.696 360.954 140.705 361.065 140.827C361.174 140.949 361.165 141.136 361.044 141.247L356.79 145.105C356.733 145.157 356.662 145.182 356.591 145.182L356.59 145.181Z" fill="#335ED6"/>
<path d="M360.844 156.483C360.714 156.483 360.595 156.397 360.558 156.266C360.514 156.108 360.607 155.945 360.764 155.9L370.898 153.069C371.056 153.024 371.22 153.117 371.264 153.275C371.309 153.433 371.216 153.596 371.059 153.641L360.924 156.472C360.897 156.48 360.871 156.483 360.844 156.483Z" fill="#335ED6"/>
<path d="M358.495 116.509C359.803 119.774 361.828 122.686 364.044 125.394C364.439 125.877 369.572 131.736 369.606 131.701C369.59 131.717 359.946 141.644 359.946 141.644C368.669 146.904 371.494 162.787 371.494 162.787C378.674 158.679 399.004 141.23 398.088 132.7C397.172 124.171 387.877 112.029 376.489 99.4815C365.1 86.9341 354.104 92.2748 354.104 92.2748L358.496 116.508L358.495 116.509Z" fill="white"/>
<path d="M357.042 113.528C356.922 113.528 356.809 113.455 356.764 113.337C355.76 110.683 355.446 107.864 355.83 104.956C356.137 102.637 356.886 100.26 358.057 97.8882C360.046 93.8584 362.609 91.1989 362.634 91.1722C362.748 91.0545 362.936 91.0515 363.054 91.1663C363.171 91.2801 363.174 91.468 363.06 91.5858C363.035 91.6115 360.528 94.2156 358.581 98.1662C356.795 101.79 355.125 107.328 357.319 113.126C357.377 113.279 357.3 113.45 357.147 113.509C357.112 113.522 357.076 113.528 357.042 113.528Z" fill="#DDF3F1"/>
<path d="M369.607 131.998C369.507 131.998 369.41 131.947 369.353 131.857C369.267 131.718 369.311 131.535 369.45 131.449C369.476 131.433 372.059 129.847 375.638 128.4C378.952 127.059 383.828 125.562 388.237 126.048C388.401 126.066 388.517 126.212 388.5 126.375C388.482 126.538 388.334 126.656 388.172 126.637C379.952 125.731 369.863 131.891 369.762 131.953C369.713 131.983 369.659 131.998 369.607 131.998Z" fill="#DDF3F1"/>
<path d="M361.061 141.229L360.628 140.823L369.264 131.631C368.772 130.878 365.766 127.736 364.593 126.51C364.099 125.995 363.773 125.654 363.673 125.54C360.942 122.439 359.26 119.658 358.382 116.785C358.335 116.628 358.423 116.462 358.579 116.414C358.735 116.365 358.901 116.454 358.95 116.611C359.802 119.4 361.445 122.112 364.119 125.146C364.211 125.251 364.569 125.625 365.022 126.099C365.852 126.965 367.105 128.276 368.121 129.386C368.681 129.997 369.11 130.485 369.397 130.834C369.823 131.353 370.053 131.658 369.822 131.904L361.062 141.228L361.061 141.229Z" fill="#DDF3F1"/>
<path d="M394.312 122.844C394.212 122.844 394.114 122.793 394.058 122.701C390.867 117.476 385.834 110.678 380.25 104.047C377.786 101.12 374.784 97.7955 371.214 95.3349C368.563 93.5075 364.392 91.3526 359.562 91.4515C357.629 91.4921 355.695 91.8967 353.824 92.2895L348.93 93.3155C348.77 93.3492 348.613 93.2463 348.579 93.086C348.545 92.9257 348.648 92.7684 348.809 92.7347L353.703 91.7087C355.6 91.311 357.561 90.9004 359.55 90.8589C364.538 90.757 368.828 92.9702 371.551 94.8471C375.179 97.3473 378.215 100.708 380.705 103.666C386.307 110.317 391.359 117.143 394.566 122.392C394.651 122.531 394.607 122.714 394.467 122.799C394.418 122.829 394.365 122.843 394.313 122.843L394.312 122.844Z" fill="#DDF3F1"/>
<path d="M347.548 146.06L345.225 146.704L334.997 149.657C334.134 149.889 333.622 150.776 333.853 151.639C334.002 152.198 334.428 152.608 334.943 152.766L334.319 152.946C333.456 153.177 332.944 154.065 333.176 154.928C333.407 155.79 334.294 156.303 335.157 156.071L336.416 155.702C335.956 156.064 335.729 156.679 335.891 157.281C336.106 158.088 336.935 158.566 337.74 158.349L339.254 157.905C338.915 158.256 338.763 158.769 338.899 159.274C339.104 160.041 339.893 160.496 340.659 160.29C340.659 160.29 352.111 157.257 353.44 156.888C356.405 156.065 359.755 154.702 359.247 152.86C358.972 151.864 357.312 150.283 356.382 149.762C357.131 148.786 357.442 147.616 357.133 146.501C356.532 144.333 353.818 143.194 351.071 143.956C349.766 144.318 348.477 145.103 347.547 146.059L347.548 146.06Z" fill="#FFA076"/>
<path d="M351.964 147.883C350.435 148.58 348.634 148.277 347.346 147.199C346.398 146.406 345.227 145.465 344.959 145.425C344.493 145.352 340.326 145.806 339.659 145.82C338.349 145.847 337.827 143.996 338.906 143.257C339.284 142.998 345.433 141.151 347.424 141.313C349.415 141.474 355.329 144.294 355.329 144.294C355.329 144.294 354.348 146.799 351.966 147.883H351.964Z" fill="#FFA076"/>
<path d="M335.018 153.157C334.889 153.157 334.769 153.071 334.732 152.939C334.689 152.781 334.781 152.618 334.939 152.574L344.904 149.81C345.063 149.766 345.226 149.858 345.269 150.016C345.313 150.175 345.221 150.338 345.063 150.381L335.097 153.146C335.071 153.153 335.044 153.157 335.018 153.157Z" fill="#E07443"/>
<path d="M336.462 156.165C336.333 156.165 336.213 156.079 336.177 155.948C336.133 155.789 336.225 155.626 336.383 155.583L345.782 152.976C345.94 152.932 346.103 153.024 346.147 153.182C346.19 153.341 346.098 153.504 345.94 153.547L336.542 156.155C336.515 156.161 336.488 156.165 336.462 156.165Z" fill="#E07443"/>
<path d="M339.255 158.201C339.125 158.201 339.005 158.115 338.969 157.983C338.925 157.825 339.017 157.662 339.176 157.618L346.505 155.585C346.663 155.541 346.826 155.633 346.87 155.792C346.913 155.95 346.821 156.113 346.663 156.157L339.334 158.19C339.307 158.197 339.28 158.201 339.255 158.201Z" fill="#E07443"/>
<path d="M268.424 94.4301C270.343 94.81 273.009 97.6031 272.864 98.8922C272.718 100.181 270.592 99.8974 269.717 99.191C268.844 98.4846 268.04 97.891 268.04 97.891L266.591 96.4098C266.591 96.4098 266.505 94.0502 268.423 94.4301H268.424Z" fill="#FFA076"/>
<path d="M262.151 98.0941C264.069 98.4741 266.001 100.422 265.856 101.711C265.71 103.001 263.584 102.717 262.709 102.01C261.836 101.304 260.317 100.074 260.317 100.074C260.317 100.074 260.231 97.7142 262.15 98.0941H262.151Z" fill="#FFA076"/>
<path d="M259.323 99.4519C261.237 99.8546 263.173 101.78 263.028 103.069C262.882 104.358 260.638 104.113 259.547 103.081C259.547 103.081 258.874 103.342 257.383 104.422C257.383 104.422 256.882 98.9384 259.322 99.4519H259.323Z" fill="#FFA076"/>
<path d="M264.72 95.582C266.87 96.0075 269.858 99.1379 269.694 100.582C269.531 102.027 267.148 101.708 266.169 100.917C265.191 100.125 264.289 99.4594 264.289 99.4594L262.804 98.4216C262.804 98.4216 262.569 95.1566 264.719 95.581L264.72 95.582Z" fill="#FFA076"/>
<path d="M265.856 102.008C265.845 102.008 265.833 102.008 265.822 102.006C265.659 101.987 265.542 101.84 265.56 101.677C265.68 100.611 263.955 98.7526 262.091 98.3846C261.93 98.3529 261.826 98.1966 261.858 98.0363C261.889 97.876 262.046 97.7701 262.207 97.8028C264.252 98.2075 266.316 100.27 266.149 101.745C266.133 101.896 266.004 102.008 265.855 102.008H265.856Z" fill="#E07443"/>
<path d="M263.029 103.367C263.018 103.367 263.006 103.367 262.995 103.365C262.832 103.346 262.715 103.199 262.733 103.036C262.851 101.989 261.124 100.134 259.261 99.7424C259.101 99.7088 258.998 99.5515 259.032 99.3912C259.065 99.2309 259.223 99.128 259.383 99.1616C261.423 99.591 263.486 101.654 263.323 103.102C263.306 103.254 263.177 103.366 263.028 103.366L263.029 103.367Z" fill="#E07443"/>
<path d="M269.695 100.879C269.685 100.879 269.673 100.879 269.662 100.877C269.499 100.858 269.382 100.712 269.4 100.549C269.541 99.2892 266.733 96.2824 264.663 95.8728C264.503 95.8412 264.398 95.6848 264.429 95.5246C264.461 95.3643 264.617 95.2584 264.779 95.2911C267.01 95.7323 270.176 98.9667 269.99 100.616C269.973 100.767 269.845 100.879 269.695 100.879Z" fill="#E07443"/>
<path d="M435.97 311.467H42.9634C42.7992 311.467 42.6667 311.334 42.6667 311.17C42.6667 311.006 42.7992 310.873 42.9634 310.873H435.97C436.134 310.873 436.267 311.006 436.267 311.17C436.267 311.334 436.134 311.467 435.97 311.467Z" fill="#2E3333" fill-opacity="0.28"/>
<path d="M316.853 16.0938H294.369C290.468 16.0938 287.306 19.257 287.306 23.159V45.0829C287.306 48.9849 290.468 52.1481 294.369 52.1481H316.853C320.754 52.1481 323.916 48.9849 323.916 45.0829V23.159C323.916 19.257 320.754 16.0938 316.853 16.0938Z" fill="#2E3333"/>
<path d="M299.073 21.5645L295.555 28.5753H297.881V46.6771H300.238V28.5753H302.565L299.073 21.5645Z" fill="white"/>
<path d="M312.15 46.6771L315.668 39.6653H313.342V21.5645H310.985V39.6653H308.659L312.15 46.6771Z" fill="white"/>
<path d="M216.2 64.7686H178.72C173.675 64.7686 169.586 68.8593 169.586 73.9056V74.3419C169.586 79.3881 173.675 83.4789 178.72 83.4789H216.2C221.245 83.4789 225.335 79.3881 225.335 74.3419V73.9056C225.335 68.8593 221.245 64.7686 216.2 64.7686Z" fill="#2E3333"/>
<path d="M185.877 76.7748C187.341 75.3108 187.341 72.9372 185.877 71.4732C184.414 70.0092 182.041 70.0092 180.577 71.4732C179.113 72.9372 179.113 75.3108 180.577 76.7748C182.041 78.2388 184.414 78.2388 185.877 76.7748Z" fill="white"/>
<path d="M201.101 74.98C201.577 72.9649 200.329 70.9459 198.315 70.4703C196.3 69.9947 194.282 71.2427 193.806 73.2577C193.331 75.2727 194.579 77.2918 196.593 77.7674C198.607 78.243 200.626 76.995 201.101 74.98Z" fill="white"/>
<path d="M213.126 77.587C215.039 76.7947 215.947 74.6018 215.155 72.689C214.363 70.7762 212.17 69.8678 210.258 70.6601C208.346 71.4524 207.438 73.6454 208.23 75.5582C209.022 77.471 211.214 78.3793 213.126 77.587Z" fill="white"/>
<path d="M114.695 16.8066H162.331C168.969 16.8066 174.358 22.1968 174.358 28.8366C174.358 35.4764 168.969 40.8666 162.331 40.8666H114.695C108.057 40.8666 102.668 35.4764 102.668 28.8366C102.668 22.1968 108.057 16.8066 114.695 16.8066Z" fill="#2E3333"/>
<path d="M152.041 21.4745H109.662C109.498 21.4745 109.365 21.3419 109.365 21.1777C109.365 21.0134 109.498 20.8809 109.662 20.8809H152.041C152.205 20.8809 152.337 21.0134 152.337 21.1777C152.337 21.3419 152.205 21.4745 152.041 21.4745Z" fill="white"/>
<path d="M167.933 26.5809H109.663C109.499 26.5809 109.366 26.4484 109.366 26.2841C109.366 26.1199 109.499 25.9873 109.663 25.9873H167.933C168.097 25.9873 168.229 26.1199 168.229 26.2841C168.229 26.4484 168.097 26.5809 167.933 26.5809Z" fill="white"/>
<path d="M167.933 31.6874H109.663C109.499 31.6874 109.366 31.5548 109.366 31.3906C109.366 31.2263 109.499 31.0938 109.663 31.0938H167.933C168.097 31.0938 168.229 31.2263 168.229 31.3906C168.229 31.5548 168.097 31.6874 167.933 31.6874Z" fill="white"/>
<path d="M136.977 36.7938H109.663C109.499 36.7938 109.366 36.6613 109.366 36.497C109.366 36.3328 109.499 36.2002 109.663 36.2002H136.977C137.142 36.2002 137.274 36.3328 137.274 36.497C137.274 36.6613 137.142 36.7938 136.977 36.7938Z" fill="white"/>
<path d="M215.577 254.039V303.55V306.036V310.912H222.425V306.036H274.433V310.912H281.282V306.036V303.55V254.039H215.577Z" fill="#2E3333"/>
<path d="M211.559 247.912H285.299C286.591 247.912 287.641 248.962 287.641 250.255V252.489C287.641 253.782 286.591 254.832 285.299 254.832H211.559C210.267 254.832 209.217 253.782 209.217 252.489V250.255C209.217 248.962 210.267 247.912 211.559 247.912Z" fill="#2E3333"/>
<path d="M274.799 274.339H222.059C221.895 274.339 221.762 274.206 221.762 274.042V259.051C221.762 258.886 221.895 258.754 222.059 258.754H274.799C274.963 258.754 275.096 258.886 275.096 259.051V274.042C275.096 274.206 274.963 274.339 274.799 274.339ZM222.356 273.745H274.503V259.348H222.356V273.745Z" fill="#1C1C1C"/>
<path d="M274.799 300.338H222.059C221.895 300.338 221.762 300.205 221.762 300.041V277.764C221.762 277.599 221.895 277.467 222.059 277.467H274.799C274.963 277.467 275.096 277.599 275.096 277.764V300.041C275.096 300.205 274.963 300.338 274.799 300.338ZM222.356 299.744H274.503V278.06H222.356V299.744Z" fill="#1C1C1C"/>
<path d="M260.169 280.388H236.689C235.984 280.388 235.412 280.96 235.412 281.665C235.412 282.37 235.984 282.942 236.689 282.942H260.169C260.875 282.942 261.446 282.37 261.446 281.665C261.446 280.96 260.875 280.388 260.169 280.388Z" fill="white"/>
<path d="M236.69 267.293H260.17C260.875 267.293 261.447 266.721 261.447 266.016C261.447 265.31 260.875 264.738 260.17 264.738H236.69C235.984 264.738 235.413 265.31 235.413 266.016C235.413 266.721 235.984 267.293 236.69 267.293Z" fill="white"/>
<path d="M281.282 255.129H215.577C215.413 255.129 215.28 254.996 215.28 254.832C215.28 254.668 215.413 254.535 215.577 254.535H281.282C281.446 254.535 281.579 254.668 281.579 254.832C281.579 254.996 281.446 255.129 281.282 255.129Z" fill="#1C1C1C"/>
<path d="M234.602 186.471C232.306 184.792 228.725 187.047 231.384 190.803C234.734 195.533 240.067 197.761 242.703 199.912C242.703 199.912 240.043 190.449 234.602 186.471Z" fill="#2E3333"/>
<path d="M249.004 227.783C248.995 227.783 248.986 227.783 248.977 227.782C248.813 227.767 248.693 227.623 248.708 227.459C249.791 215.643 245.713 202.906 238.068 194.216C237.96 194.093 237.972 193.905 238.094 193.797C238.217 193.689 238.405 193.701 238.513 193.824C242.384 198.224 245.422 203.691 247.299 209.635C249.144 215.478 249.835 221.66 249.299 227.514C249.285 227.668 249.156 227.784 249.004 227.784V227.783Z" fill="#1C1C1C"/>
<path d="M254.434 202.972C254.063 199.396 249.683 196.171 248.702 201.188C247.465 207.507 249.633 215.006 249.886 219.22C249.886 219.22 255.317 211.448 254.434 202.972Z" fill="#2E3333"/>
<path d="M249.297 222.188C249.277 222.188 249.257 222.186 249.237 222.182C249.076 222.149 248.973 221.992 249.006 221.832C249.133 221.219 249.286 220.602 249.45 219.949C250.163 217.093 251.141 213.182 251.523 203.159C251.529 202.995 251.669 202.869 251.831 202.874C251.995 202.88 252.123 203.019 252.116 203.182C251.731 213.266 250.745 217.211 250.026 220.093C249.865 220.74 249.711 221.351 249.588 221.952C249.559 222.092 249.435 222.189 249.297 222.189V222.188Z" fill="#1C1C1C"/>
<path d="M245.479 189.972C244.217 187.066 239.97 186.151 240.584 190.861C241.357 196.793 245.069 202.301 246.414 205.803C246.414 205.803 248.47 196.858 245.479 189.973V189.972Z" fill="#2E3333"/>
<path d="M246.781 209.138C246.632 209.138 246.505 209.027 246.487 208.877C246.42 208.323 246.368 207.735 246.313 207.113C246.054 204.174 245.699 200.15 243.235 191.323C243.19 191.165 243.283 191.002 243.44 190.957C243.598 190.914 243.762 191.006 243.806 191.163C246.284 200.042 246.642 204.098 246.904 207.06C246.961 207.704 247.01 208.261 247.076 208.805C247.096 208.967 246.98 209.115 246.817 209.135C246.805 209.136 246.793 209.137 246.781 209.137V209.138Z" fill="#1C1C1C"/>
<path d="M240.201 202.24C237.89 200.294 233.992 202.288 236.56 206.408C239.796 211.598 245.263 214.391 247.904 216.855C247.904 216.855 245.679 206.847 240.201 202.239V202.24Z" fill="#2E3333"/>
<path d="M248.711 218.657C248.612 218.657 248.514 218.607 248.458 218.515C248.125 217.968 247.827 217.425 247.513 216.849C246.242 214.526 244.659 211.636 238.922 204.983C238.815 204.859 238.829 204.671 238.953 204.564C239.077 204.457 239.264 204.471 239.371 204.595C245.15 211.296 246.749 214.217 248.033 216.564C248.344 217.133 248.638 217.671 248.965 218.205C249.05 218.344 249.006 218.527 248.866 218.612C248.817 218.642 248.764 218.656 248.711 218.656V218.657Z" fill="#1C1C1C"/>
<path d="M257.247 229.853L258.416 220.321C258.529 219.39 257.855 218.564 256.981 218.564H239.482C238.608 218.564 237.934 219.391 238.048 220.321L239.216 229.853C239.216 229.853 235.302 237.922 234.294 243.942C233.927 246.136 235.499 248.15 237.574 248.15H258.76C260.795 248.15 262.364 246.206 262.056 244.045C261.088 237.273 257.248 229.854 257.248 229.854L257.247 229.853Z" fill="white"/>
<path d="M243.145 229.363C243.007 229.363 242.885 229.267 242.855 229.127L241.537 222.902C241.504 222.742 241.606 222.584 241.766 222.55C241.926 222.515 242.083 222.618 242.118 222.778L243.436 229.003C243.469 229.164 243.367 229.321 243.207 229.356C243.186 229.36 243.165 229.363 243.146 229.363H243.145Z" fill="#DDF3F1"/>
<path d="M238.111 244.75C238.077 244.75 238.043 244.744 238.009 244.732C237.855 244.676 237.777 244.505 237.833 244.351L242.574 231.432C242.63 231.278 242.8 231.199 242.955 231.256C243.108 231.312 243.187 231.482 243.131 231.636L238.39 244.556C238.346 244.676 238.233 244.751 238.111 244.751V244.75Z" fill="#DDF3F1"/>
<path d="M248.162 229.193C247.998 229.193 247.866 229.06 247.866 228.896V222.84C247.866 222.676 247.998 222.543 248.162 222.543C248.327 222.543 248.459 222.676 248.459 222.84V228.896C248.459 229.06 248.327 229.193 248.162 229.193Z" fill="#DDF3F1"/>
<path d="M248.258 245.733C248.094 245.733 247.962 245.6 247.962 245.436V231.457C247.962 231.293 248.094 231.16 248.258 231.16C248.423 231.16 248.555 231.293 248.555 231.457V245.436C248.555 245.6 248.423 245.733 248.258 245.733Z" fill="#DDF3F1"/>
<path d="M253.502 228.67C253.476 228.67 253.449 228.667 253.424 228.659C253.265 228.617 253.172 228.454 253.215 228.295L254.651 223.014C254.695 222.856 254.858 222.763 255.015 222.805C255.173 222.848 255.266 223.011 255.224 223.169L253.788 228.451C253.752 228.583 253.632 228.669 253.502 228.669V228.67Z" fill="#DDF3F1"/>
<path d="M256.544 245.21C256.41 245.21 256.288 245.118 256.255 244.98L253.124 231.589C253.086 231.429 253.185 231.269 253.345 231.233C253.505 231.195 253.665 231.294 253.701 231.454L256.833 244.846C256.871 245.005 256.772 245.165 256.611 245.202C256.589 245.207 256.566 245.21 256.543 245.21H256.544Z" fill="#DDF3F1"/>
</g>
<defs>
<clipPath id="clip0_1532_4870">
<rect width="393.6" height="302.933" fill="white" transform="translate(42.6667 8.5332)"/>
</clipPath>
</defs>
</svg>
