<svg width="34" height="34" viewBox="0 0 34 34" fill="none" xmlns="http://www.w3.org/2000/svg">
<g clip-path="url(#clip0_1538_5619)">
<path d="M20.4941 1C23.8223 1.35069 26.9312 2.82684 29.3065 5.18434C31.6818 7.54183 33.1813 10.6394 33.557 13.9649M20.4941 7.53144C22.1001 7.84811 23.5737 8.6402 24.7239 9.80489C25.874 10.9696 26.6475 12.4531 26.9439 14.0629" stroke="#1BBDC3" stroke-width="2.5" stroke-linecap="round" stroke-linejoin="round"/>
<path d="M29.7303 23.4622V27.2475C29.7317 27.5989 29.6598 27.9467 29.519 28.2687C29.3782 28.5907 29.1717 28.8797 28.9128 29.1173C28.6538 29.3548 28.3481 29.5357 28.0153 29.6483C27.6824 29.7608 27.3297 29.8027 26.9797 29.771C23.097 29.3491 19.3675 28.0224 16.0907 25.8974C13.0421 23.9602 10.4574 21.3755 8.52019 18.3269C6.38779 15.0352 5.06076 11.2876 4.64659 7.38747C4.61506 7.03855 4.65653 6.68689 4.76835 6.35488C4.88018 6.02287 5.05991 5.71777 5.2961 5.45903C5.5323 5.20028 5.81978 4.99355 6.14025 4.852C6.46072 4.71045 6.80715 4.63717 7.15749 4.63684H10.9428C11.5551 4.63081 12.1487 4.84765 12.613 5.24694C13.0773 5.64623 13.3806 6.20072 13.4663 6.80706C13.626 8.01843 13.9223 9.20784 14.3495 10.3526C14.5193 10.8042 14.556 11.295 14.4554 11.7669C14.3547 12.2387 14.1209 12.6718 13.7817 13.0149L12.1793 14.6173C13.9755 17.7762 16.591 20.3917 19.7498 22.1879L21.3522 20.5854C21.6953 20.2462 22.1284 20.0124 22.6003 19.9118C23.0721 19.8111 23.5629 19.8479 24.0145 20.0176C25.1593 20.4448 26.3487 20.7411 27.5601 20.9009C28.173 20.9873 28.7328 21.2961 29.1329 21.7683C29.533 22.2406 29.7457 22.8434 29.7303 23.4622Z" fill="#1BBDC3"/>
</g>
<defs>
<clipPath id="clip0_1538_5619">
<rect width="34" height="34" fill="white"/>
</clipPath>
</defs>
</svg>
