<svg xmlns="http://www.w3.org/2000/svg" width="17.392" height="17.5" viewBox="0 0 17.392 17.5">
  <g id="Group_22" data-name="Group 22" transform="translate(-3.304 -3.25)">
    <path id="Union" d="M8.7,0a3.75,3.75,0,1,0,3.75,3.75A3.75,3.75,0,0,0,8.7,0ZM6.446,3.75A2.25,2.25,0,1,1,8.7,6,2.25,2.25,0,0,1,6.446,3.75Z" transform="translate(3.304 3.25)" fill="#333"/>
    <path id="Union-2" data-name="Union" d="M8.7,8A8.751,8.751,0,0,0,.013,15.659,1.661,1.661,0,0,0,1.7,17.5h14a1.661,1.661,0,0,0,1.683-1.841A8.751,8.751,0,0,0,8.7,8ZM1.5,15.845a7.251,7.251,0,0,1,14.388,0,.1.1,0,0,1-.033.092A.224.224,0,0,1,15.7,16H1.7a.224.224,0,0,1-.161-.063A.1.1,0,0,1,1.5,15.845Z" transform="translate(3.304 3.25)" fill="#333"/>
  </g>
</svg>
