<svg xmlns="http://www.w3.org/2000/svg" width="14.076" height="17.198" viewBox="0 0 14.076 17.198">
  <g id="Group_20480" data-name="Group 20480" transform="translate(0.25 0.25)">
    <g id="Group_20478" data-name="Group 20478">
      <path id="Path_7562" data-name="Path 7562" d="M13.042,7.268A6.782,6.782,0,0,0,6.976,3.125V1.993H8.108A.188.188,0,0,0,8.3,1.8V.189A.189.189,0,0,0,8.108,0H5.421a.189.189,0,0,0-.189.189V1.8a.188.188,0,0,0,.189.189H6.6V3.125a6.782,6.782,0,1,0,6.443,4.143M5.609.377H7.92V1.616H5.609Zm7.086,12.029a6.432,6.432,0,1,1,.5-2.5,6.39,6.39,0,0,1-.5,2.5" fill="#00930b" stroke="#00930b" stroke-width="0.5"/>
      <path id="Path_7563" data-name="Path 7563" d="M121.275,150a.189.189,0,0,0-.267-.267l-1.63,1.63a.941.941,0,1,0,.276.257Zm-2.383,2.726a.561.561,0,1,1,.561-.561.562.562,0,0,1-.561.561" transform="translate(-112.104 -142.254)" fill="#00930b" stroke="#00930b" stroke-width="0.5"/>
      <path id="Path_7564" data-name="Path 7564" d="M27.292,41.561a.189.189,0,0,0,.3-.226l-.448-.6,1.13-.848.5.637a.189.189,0,0,0,.3-.232l-.612-.782a.189.189,0,0,0-.262-.035l-1.429,1.072a.189.189,0,0,0-.038.264Z" transform="translate(-25.369 -37.484)" fill="#00930b" stroke="#00930b" stroke-width="0.5"/>
      <path id="Path_7565" data-name="Path 7565" d="M198.423,40.559a.189.189,0,0,0,.265-.032l.5-.637,1.13.848-.448.6a.189.189,0,0,0,.3.226l.561-.748a.188.188,0,0,0-.038-.264l-1.429-1.072a.188.188,0,0,0-.262.035l-.612.782a.189.189,0,0,0,.032.265" transform="translate(-188.513 -37.483)" fill="#00930b" stroke="#00930b" stroke-width="0.5"/>
      <path id="Path_7566" data-name="Path 7566" d="M133.256,99.245a.189.189,0,0,0,.188-.188v-.782a.188.188,0,1,0-.377,0v.782a.189.189,0,0,0,.189.188" transform="translate(-126.468 -93.222)" fill="#00930b" stroke="#00930b" stroke-width="0.5"/>
      <path id="Path_7567" data-name="Path 7567" d="M133.256,278.2a.188.188,0,0,0-.189.189v.782a.188.188,0,0,0,.377,0v-.782a.189.189,0,0,0-.188-.189" transform="translate(-126.468 -264.398)" fill="#00930b" stroke="#00930b" stroke-width="0.5"/>
      <path id="Path_7568" data-name="Path 7568" d="M216.2,196.028h-.782a.189.189,0,1,0,0,.377h.782a.189.189,0,1,0,0-.377" transform="translate(-204.56 -186.306)" fill="#00930b" stroke="#00930b" stroke-width="0.5"/>
      <path id="Path_7569" data-name="Path 7569" d="M36.284,196.217a.188.188,0,0,0-.189-.188h-.782a.189.189,0,0,0,0,.377H36.1a.189.189,0,0,0,.189-.189" transform="translate(-33.383 -186.307)" fill="#00930b" stroke="#00930b" stroke-width="0.5"/>
      <path id="Path_7570" data-name="Path 7570" d="M207.655,232.893l-.7-.348a.189.189,0,1,0-.168.338l.7.348a.189.189,0,0,0,.168-.338" transform="translate(-196.431 -220.994)" fill="#00930b" stroke="#00930b" stroke-width="0.5"/>
      <path id="Path_7571" data-name="Path 7571" d="M45.421,152.879l.7.348a.189.189,0,1,0,.167-.338l-.7-.348a.189.189,0,0,0-.167.338" transform="translate(-43.069 -144.958)" fill="#00930b" stroke="#00930b" stroke-width="0.5"/>
      <path id="Path_7572" data-name="Path 7572" d="M176.737,265.935a.189.189,0,1,0-.32.2l.413.665a.189.189,0,1,0,.32-.2Z" transform="translate(-167.641 -252.661)" fill="#00930b" stroke="#00930b" stroke-width="0.5"/>
      <path id="Path_7573" data-name="Path 7573" d="M82.028,113.846a.189.189,0,0,0,.16-.288l-.413-.665a.188.188,0,1,0-.32.2l.413.665a.188.188,0,0,0,.16.089" transform="translate(-77.389 -107.21)" fill="#00930b" stroke="#00930b" stroke-width="0.5"/>
      <path id="Path_7574" data-name="Path 7574" d="M88.89,269.112a.188.188,0,0,0-.254.081l-.358.7a.189.189,0,1,0,.335.172l.358-.7a.188.188,0,0,0-.081-.254" transform="translate(-83.88 -255.746)" fill="#00930b" stroke="#00930b" stroke-width="0.5"/>
      <path id="Path_7575" data-name="Path 7575" d="M170.761,109.988a.188.188,0,0,0,.254-.081l.358-.7a.189.189,0,1,0-.335-.172l-.358.7a.189.189,0,0,0,.081.254" transform="translate(-162.195 -103.534)" fill="#00930b" stroke="#00930b" stroke-width="0.5"/>
      <path id="Path_7576" data-name="Path 7576" d="M50.211,238.845l-.668.407a.189.189,0,0,0,.2.322l.668-.407a.189.189,0,0,0-.2-.322" transform="translate(-47 -226.974)" fill="#00930b" stroke="#00930b" stroke-width="0.5"/>
      <path id="Path_7577" data-name="Path 7577" d="M203.5,145.78l.668-.407a.189.189,0,1,0-.2-.322l-.668.407a.189.189,0,1,0,.2.322" transform="translate(-193.135 -137.83)" fill="#00930b" stroke="#00930b" stroke-width="0.5"/>
    </g>
  </g>
</svg>
