<svg xmlns="http://www.w3.org/2000/svg" width="28.693" height="25.75" viewBox="0 0 28.693 25.75">
  <g id="Map" transform="translate(-2.25 -3.25)">
    <g id="Group_14" data-name="Group 14" transform="translate(2.25 3.25)">
      <g id="Union" transform="translate(1.414 4.243)" fill="none">
        <path d="M3,10.1A1.1,1.1,0,0,1,4.1,9H7.046a1.1,1.1,0,1,1,0,2.207H4.1A1.1,1.1,0,0,1,3,10.1Z" stroke="none"/>
        <path d="M 4.103567123413086 9.800000190734863 C 3.936176776885986 9.800000190734863 3.799996852874756 9.936180114746094 3.799996852874756 10.10356998443604 C 3.799996852874756 10.27095985412598 3.936176776885986 10.40713977813721 4.103567123413086 10.40713977813721 L 7.046426773071289 10.40713977813721 C 7.21381664276123 10.40713977813721 7.349997043609619 10.27095985412598 7.349997043609619 10.10356998443604 C 7.349997043609619 9.936180114746094 7.21381664276123 9.800000190734863 7.046426773071289 9.800000190734863 L 4.103567123413086 9.800000190734863 M 4.103567123413086 9 L 7.046426773071289 9 C 7.655906677246094 9 8.149996757507324 9.49409008026123 8.149996757507324 10.10356998443604 C 8.149996757507324 10.71304988861084 7.655906677246094 11.20713996887207 7.046426773071289 11.20713996887207 L 4.103567123413086 11.20713996887207 C 3.494086742401123 11.20713996887207 2.999997138977051 10.71304988861084 2.999997138977051 10.10356998443604 C 2.999997138977051 9.49409008026123 3.494086742401123 9 4.103567123413086 9 Z" stroke="none" fill="#fff"/>
      </g>
      <g id="Union-2" data-name="Union" transform="translate(6.129 4.243)" fill="none">
        <path d="M14.1,9a1.1,1.1,0,0,0,0,2.207h2.943a1.1,1.1,0,1,0,0-2.207Z" stroke="none"/>
        <path d="M 14.10356712341309 9.800000190734863 C 13.93617630004883 9.800000190734863 13.79999732971191 9.936180114746094 13.79999732971191 10.10356998443604 C 13.79999732971191 10.27095985412598 13.93617630004883 10.40713977813721 14.10356712341309 10.40713977813721 L 17.04642677307129 10.40713977813721 C 17.21381759643555 10.40713977813721 17.34999656677246 10.27095985412598 17.34999656677246 10.10356998443604 C 17.34999656677246 9.936180114746094 17.21381759643555 9.800000190734863 17.04642677307129 9.800000190734863 L 14.10356712341309 9.800000190734863 M 14.10356712341309 9 L 17.04642677307129 9 C 17.65590667724609 9 18.14999771118164 9.49409008026123 18.14999771118164 10.10356998443604 C 18.14999771118164 10.71304988861084 17.65590667724609 11.20713996887207 17.04642677307129 11.20713996887207 L 14.10356712341309 11.20713996887207 C 13.49408721923828 11.20713996887207 12.99999618530273 10.71304988861084 12.99999618530273 10.10356998443604 C 12.99999618530273 9.49409008026123 13.49408721923828 9 14.10356712341309 9 Z" stroke="none" fill="#fff"/>
      </g>
      <g id="Union-3" data-name="Union" transform="translate(3.771 4.243)" fill="none">
        <path d="M8,10.1A1.1,1.1,0,0,1,9.1,9h2.943a1.1,1.1,0,1,1,0,2.207H9.1A1.1,1.1,0,0,1,8,10.1Z" stroke="none"/>
        <path d="M 9.103567123413086 9.800000190734863 C 8.936177253723145 9.800000190734863 8.799997329711914 9.936180114746094 8.799997329711914 10.10356998443604 C 8.799997329711914 10.27095985412598 8.936177253723145 10.40713977813721 9.103567123413086 10.40713977813721 L 12.04642677307129 10.40713977813721 C 12.21381664276123 10.40713977813721 12.34999656677246 10.27095985412598 12.34999656677246 10.10356998443604 C 12.34999656677246 9.936180114746094 12.21381664276123 9.800000190734863 12.04642677307129 9.800000190734863 L 9.103567123413086 9.800000190734863 M 9.103567123413086 9 L 12.04642677307129 9 C 12.65590667724609 9 13.14999675750732 9.49409008026123 13.14999675750732 10.10356998443604 C 13.14999675750732 10.71304988861084 12.65590667724609 11.20713996887207 12.04642677307129 11.20713996887207 L 9.103567123413086 11.20713996887207 C 8.494087219238281 11.20713996887207 7.999997138977051 10.71304988861084 7.999997138977051 10.10356998443604 C 7.999997138977051 9.49409008026123 8.494087219238281 9 9.103567123413086 9 Z" stroke="none" fill="#fff"/>
      </g>
      <g id="Union-4" data-name="Union" transform="translate(1.414 5.657)" fill="none">
        <path d="M4.1,12a1.1,1.1,0,0,0,0,2.207H7.046a1.1,1.1,0,0,0,0-2.207Z" stroke="none"/>
        <path d="M 4.103567123413086 12.79999923706055 C 3.936176776885986 12.79999923706055 3.799996852874756 12.93617916107178 3.799996852874756 13.10356903076172 C 3.799996852874756 13.27095890045166 3.936176776885986 13.40713882446289 4.103567123413086 13.40713882446289 L 7.046426773071289 13.40713882446289 C 7.21381664276123 13.40713882446289 7.349997043609619 13.27095890045166 7.349997043609619 13.10356903076172 C 7.349997043609619 12.93617916107178 7.21381664276123 12.79999923706055 7.046426773071289 12.79999923706055 L 4.103567123413086 12.79999923706055 M 4.103567123413086 11.99999904632568 L 7.046426773071289 11.99999904632568 C 7.655906677246094 11.99999904632568 8.149996757507324 12.49408912658691 8.149996757507324 13.10356903076172 C 8.149996757507324 13.71304893493652 7.655906677246094 14.20713901519775 7.046426773071289 14.20713901519775 L 4.103567123413086 14.20713901519775 C 3.494086742401123 14.20713901519775 2.999997138977051 13.71304893493652 2.999997138977051 13.10356903076172 C 2.999997138977051 12.49408912658691 3.494086742401123 11.99999904632568 4.103567123413086 11.99999904632568 Z" stroke="none" fill="#fff"/>
      </g>
      <g id="Union-5" data-name="Union" transform="translate(6.129 5.657)" fill="none">
        <path d="M13,13.1A1.1,1.1,0,0,1,14.1,12h2.943a1.1,1.1,0,1,1,0,2.207H14.1A1.1,1.1,0,0,1,13,13.1Z" stroke="none"/>
        <path d="M 14.10356712341309 12.79999923706055 C 13.93617630004883 12.79999923706055 13.79999732971191 12.93617916107178 13.79999732971191 13.10356903076172 C 13.79999732971191 13.27095890045166 13.93617630004883 13.40713882446289 14.10356712341309 13.40713882446289 L 17.04642677307129 13.40713882446289 C 17.21381759643555 13.40713882446289 17.34999656677246 13.27095890045166 17.34999656677246 13.10356903076172 C 17.34999656677246 12.93617916107178 17.21381759643555 12.79999923706055 17.04642677307129 12.79999923706055 L 14.10356712341309 12.79999923706055 M 14.10356712341309 11.99999904632568 L 17.04642677307129 11.99999904632568 C 17.65590667724609 11.99999904632568 18.14999771118164 12.49408912658691 18.14999771118164 13.10356903076172 C 18.14999771118164 13.71304893493652 17.65590667724609 14.20713901519775 17.04642677307129 14.20713901519775 L 14.10356712341309 14.20713901519775 C 13.49408721923828 14.20713901519775 12.99999618530273 13.71304893493652 12.99999618530273 13.10356903076172 C 12.99999618530273 12.49408912658691 13.49408721923828 11.99999904632568 14.10356712341309 11.99999904632568 Z" stroke="none" fill="#fff"/>
      </g>
      <g id="Union-6" data-name="Union" transform="translate(3.771 5.657)" fill="none">
        <path d="M9.1,12a1.1,1.1,0,0,0,0,2.207h2.943a1.1,1.1,0,0,0,0-2.207Z" stroke="none"/>
        <path d="M 9.103567123413086 12.79999923706055 C 8.936177253723145 12.79999923706055 8.799997329711914 12.93617916107178 8.799997329711914 13.10356903076172 C 8.799997329711914 13.27095890045166 8.936177253723145 13.40713882446289 9.103567123413086 13.40713882446289 L 12.04642677307129 13.40713882446289 C 12.21381664276123 13.40713882446289 12.34999656677246 13.27095890045166 12.34999656677246 13.10356903076172 C 12.34999656677246 12.93617916107178 12.21381664276123 12.79999923706055 12.04642677307129 12.79999923706055 L 9.103567123413086 12.79999923706055 M 9.103567123413086 11.99999904632568 L 12.04642677307129 11.99999904632568 C 12.65590667724609 11.99999904632568 13.14999675750732 12.49408912658691 13.14999675750732 13.10356903076172 C 13.14999675750732 13.71304893493652 12.65590667724609 14.20713901519775 12.04642677307129 14.20713901519775 L 9.103567123413086 14.20713901519775 C 8.494087219238281 14.20713901519775 7.999997138977051 13.71304893493652 7.999997138977051 13.10356903076172 C 7.999997138977051 12.49408912658691 8.494087219238281 11.99999904632568 9.103567123413086 11.99999904632568 Z" stroke="none" fill="#fff"/>
      </g>
      <g id="Union-7" data-name="Union" fill="none">
        <path d="M6.989,0a1.1,1.1,0,0,1,1.1,1.1v.368H20.6V1.1a1.1,1.1,0,1,1,2.207,0v.368h1.839a4.046,4.046,0,0,1,4.046,4.046V21.7a4.046,4.046,0,0,1-4.046,4.046H4.046A4.046,4.046,0,0,1,0,21.7V5.518A4.046,4.046,0,0,1,4.046,1.471H5.886V1.1A1.1,1.1,0,0,1,6.989,0ZM20.6,3.679v.368a1.1,1.1,0,1,0,2.207,0V3.679h1.839a1.839,1.839,0,0,1,1.839,1.839V8.461a.368.368,0,0,1-.368.368H2.575a.368.368,0,0,1-.368-.368V5.518A1.839,1.839,0,0,1,4.046,3.679H5.886v.368a1.1,1.1,0,0,0,2.207,0V3.679ZM2.207,11.01a2.6,2.6,0,0,0,.368.026H26.118a2.6,2.6,0,0,0,.368-.026V21.7a1.839,1.839,0,0,1-1.839,1.839H4.046A1.839,1.839,0,0,1,2.207,21.7Z" stroke="none"/>
        <path d="M 6.989280700683594 0.8000030517578125 C 6.821889877319336 0.8000030517578125 6.685710906982422 0.9361839294433594 6.685710906982422 1.103572845458984 L 6.685710906982422 2.27142333984375 L 4.046421051025391 2.27142333984375 C 2.256340026855469 2.27142333984375 0.8000011444091797 3.727764129638672 0.8000011444091797 5.517854690551758 L 0.8000011444091797 21.70354461669922 C 0.8000011444091797 23.49362373352051 2.256340026855469 24.94996452331543 4.046421051025391 24.94996452331543 L 24.64640045166016 24.94996452331543 C 26.43648147583008 24.94996452331543 27.89282035827637 23.49362373352051 27.89282035827637 21.70354461669922 L 27.89282035827637 5.517854690551758 C 27.89282035827637 3.727764129638672 26.43648147583008 2.27142333984375 24.64640045166016 2.27142333984375 L 22.00711059570312 2.27142333984375 L 22.00711059570312 1.103572845458984 C 22.00711059570312 0.9361839294433594 21.87092971801758 0.8000030517578125 21.70354080200195 0.8000030517578125 C 21.53615188598633 0.8000030517578125 21.39997100830078 0.9361839294433594 21.39997100830078 1.103572845458984 L 21.39997100830078 2.27142333984375 L 7.292840957641602 2.27142333984375 L 7.292840957641602 1.103572845458984 C 7.292840957641602 0.9361839294433594 7.156660079956055 0.8000030517578125 6.989280700683594 0.8000030517578125 M 6.989280700683594 4.349994659423828 C 7.156660079956055 4.349994659423828 7.292840957641602 4.213813781738281 7.292840957641602 4.046422958374023 L 7.292840957641602 2.878562927246094 L 21.39997100830078 2.878562927246094 L 21.39997100830078 4.046422958374023 C 21.39997100830078 4.213813781738281 21.53615188598633 4.349994659423828 21.70354080200195 4.349994659423828 C 21.87092971801758 4.349994659423828 22.00711059570312 4.213813781738281 22.00711059570312 4.046422958374023 L 22.00711059570312 2.878562927246094 L 24.64640045166016 2.878562927246094 C 26.10169982910156 2.878562927246094 27.28568077087402 4.062543869018555 27.28568077087402 5.517854690551758 L 27.28568077087402 8.460702896118164 C 27.28568077087402 9.104663848876953 26.76177978515625 9.628562927246094 26.11782073974609 9.628562927246094 L 2.575000762939453 9.628562927246094 C 1.931039810180664 9.628562927246094 1.407140731811523 9.104663848876953 1.407140731811523 8.460702896118164 L 1.407140731811523 5.517854690551758 C 1.407140731811523 4.062543869018555 2.591121673583984 2.878562927246094 4.046421051025391 2.878562927246094 L 6.685710906982422 2.878562927246094 L 6.685710906982422 4.046422958374023 C 6.685710906982422 4.213813781738281 6.821889877319336 4.349994659423828 6.989280700683594 4.349994659423828 M 26.11782073974609 10.23570346832275 C 26.2031307220459 10.23570346832275 26.28879165649414 10.22964382171631 26.37244033813477 10.21767425537109 L 27.28568077087402 10.08709335327148 L 27.28568077087402 21.70354461669922 C 27.28568077087402 23.15884399414062 26.10169982910156 24.34282302856445 24.64640045166016 24.34282302856445 L 4.046421051025391 24.34282302856445 C 2.591121673583984 24.34282302856445 1.407140731811523 23.15884399414062 1.407140731811523 21.70354461669922 L 1.407140731811523 10.08708381652832 L 2.320390701293945 10.21768379211426 C 2.404020309448242 10.22964382171631 2.489690780639648 10.23570346832275 2.575000762939453 10.23570346832275 L 26.11782073974609 10.23570346832275 M 6.989280700683594 3.814697265625e-06 C 7.598760604858398 3.814697265625e-06 8.092840194702148 0.4940834045410156 8.092840194702148 1.103572845458984 L 8.092840194702148 1.471424102783203 L 20.59997177124023 1.471424102783203 L 20.59997177124023 1.103572845458984 C 20.59997177124023 0.4940834045410156 21.09406089782715 3.814697265625e-06 21.70354080200195 3.814697265625e-06 C 22.31303024291992 3.814697265625e-06 22.80710983276367 0.4940834045410156 22.80710983276367 1.103572845458984 L 22.80710983276367 1.471424102783203 L 24.64640045166016 1.471424102783203 C 26.88117027282715 1.471424102783203 28.69282150268555 3.283073425292969 28.69282150268555 5.517854690551758 L 28.69282150268555 21.70354461669922 C 28.69282150268555 23.93832397460938 26.88117027282715 25.74996376037598 24.64640045166016 25.74996376037598 L 4.046421051025391 25.74996376037598 C 1.811641693115234 25.74996376037598 0 23.93832397460938 0 21.70354461669922 L 0 5.517854690551758 C 0 3.283073425292969 1.811641693115234 1.471424102783203 4.046421051025391 1.471424102783203 L 5.885711669921875 1.471424102783203 L 5.885711669921875 1.103572845458984 C 5.885711669921875 0.4940834045410156 6.379791259765625 3.814697265625e-06 6.989280700683594 3.814697265625e-06 Z M 6.989280700683594 5.149993896484375 C 6.379791259765625 5.149993896484375 5.885711669921875 4.655902862548828 5.885711669921875 4.046422958374023 L 5.885711669921875 3.678564071655273 L 4.046421051025391 3.678564071655273 C 3.030611038208008 3.678564071655273 2.20713996887207 4.502044677734375 2.20713996887207 5.517854690551758 L 2.20713996887207 8.460702896118164 C 2.20713996887207 8.663864135742188 2.371829986572266 8.828563690185547 2.575000762939453 8.828563690185547 L 26.11782073974609 8.828563690185547 C 26.32098007202148 8.828563690185547 26.48568153381348 8.663864135742188 26.48568153381348 8.460702896118164 L 26.48568153381348 5.517854690551758 C 26.48568153381348 4.502044677734375 25.66220092773438 3.678564071655273 24.64640045166016 3.678564071655273 L 22.80710983276367 3.678564071655273 L 22.80710983276367 4.046422958374023 C 22.80710983276367 4.655902862548828 22.31303024291992 5.149993896484375 21.70354080200195 5.149993896484375 C 21.09406089782715 5.149993896484375 20.59997177124023 4.655902862548828 20.59997177124023 4.046422958374023 L 20.59997177124023 3.678564071655273 L 8.092840194702148 3.678564071655273 L 8.092840194702148 4.046422958374023 C 8.092840194702148 4.655902862548828 7.598760604858398 5.149993896484375 6.989280700683594 5.149993896484375 Z M 26.11782073974609 11.03570365905762 L 2.575000762939453 11.03570365905762 C 2.450099945068359 11.03570365905762 2.327280044555664 11.02680397033691 2.20713996887207 11.00962352752686 L 2.20713996887207 21.70354461669922 C 2.20713996887207 22.71935272216797 3.030611038208008 23.54282379150391 4.046421051025391 23.54282379150391 L 24.64640045166016 23.54282379150391 C 25.66220092773438 23.54282379150391 26.48568153381348 22.71935272216797 26.48568153381348 21.70354461669922 L 26.48568153381348 11.00962352752686 C 26.36553001403809 11.02680397033691 26.24272155761719 11.03570365905762 26.11782073974609 11.03570365905762 Z" stroke="none" fill="#fff"/>
      </g>
    </g>
  </g>
</svg>
