<svg data-name="Component 2 – 1" xmlns="http://www.w3.org/2000/svg" width="34.681" height="30.476" viewBox="0 0 34.681 30.476">
    <defs>
        <clipPath id="aw3s47np5a">
            <path data-name="Rectangle 17210" style="fill:#0a47ac" d="M0 0h34.681v30.476H0z"/>
        </clipPath>
    </defs>
    <g data-name="Group 20303" style="clip-path:url(#aw3s47np5a)">
        <path data-name="Path 7430" d="M34.293 13.461 27.358 1.448A2.9 2.9 0 0 0 23.4.388L5.344 10.814H2.9A2.9 2.9 0 0 0 0 13.71v13.87a2.9 2.9 0 0 0 2.9 2.9h24.225a2.9 2.9 0 0 0 2.9-2.9v-8.309l3.212-1.855a2.9 2.9 0 0 0 1.06-3.956m-7-9.954 1.5 2.6-8.161 4.712h-5.999zm-3.353-2.178a1.813 1.813 0 0 1 2.474.663l.333.576-14.283 8.247H7.514zm4.992 26.252a1.813 1.813 0 0 1-1.811 1.811H2.9a1.813 1.813 0 0 1-1.815-1.811V13.71A1.813 1.813 0 0 1 2.9 11.9h24.225a1.813 1.813 0 0 1 1.811 1.811zm3.755-11.1-2.67 1.541V13.71a2.9 2.9 0 0 0-2.9-2.9H22.8l6.533-3.772L33.354 14a1.813 1.813 0 0 1-.663 2.474" transform="translate(0 -.001)" style="fill:#0a47ac"/>
        <path data-name="Path 7431" d="M64.935 248.119a2.421 2.421 0 0 0-1.555.565 2.425 2.425 0 1 0 0 3.721 2.425 2.425 0 1 0 1.555-4.286m-1.843 3.507a1.666 1.666 0 1 1 0-2.164 1.664 1.664 0 0 1 0 2.164m1.843.584a1.663 1.663 0 0 1-1.055-.378 2.419 2.419 0 0 0 0-2.576 1.666 1.666 0 1 1 1.055 2.954" transform="translate(-56.074 -234.225)" style="fill:#0a47ac"/>
        <path data-name="Path 7432" d="M339.3 380.2h-7.5a.271.271 0 0 0-.271.271v5.29a.271.271 0 0 0 .271.271h7.5a.271.271 0 0 0 .271-.271v-5.29a.271.271 0 0 0-.271-.271m-.271 1.741h-1.309v-1.2h1.311zm-1.854 0h-1.357v-1.2h1.357zm-1.9 0h-1.356v-1.2h1.356zm-3.21-1.2h1.311v1.47a.271.271 0 0 0 .271.271h5.38v1.266h-6.963zm0 3.549h1.311v1.2h-1.311zm1.854 0h1.356v1.2h-1.356zm1.9 0h1.357v1.2h-1.357zm3.21 1.2h-1.309v-1.2h1.311z" transform="translate(-312.961 -358.906)" style="fill:#0a47ac"/>
    </g>
</svg>
