<svg xmlns="http://www.w3.org/2000/svg" xmlns:xlink="http://www.w3.org/1999/xlink" width="94" height="94" viewBox="0 0 94 94">
  <defs>
    <clipPath id="clip-path">
      <rect id="Rectangle_17313" data-name="Rectangle 17313" width="40" height="40" transform="translate(-0.3 -0.3)" fill="#0a47ac"/>
    </clipPath>
  </defs>
  <g id="Group_20705" data-name="Group 20705" transform="translate(-929 -349)">
    <circle id="Ellipse_409" data-name="Ellipse 409" cx="47" cy="47" r="47" transform="translate(929 349)" fill="#0a47ac" opacity="0.029"/>
    <circle id="Ellipse_408" data-name="Ellipse 408" cx="34" cy="34" r="34" transform="translate(942 361)" fill="#0a47ac" opacity="0.051"/>
    <g id="Group_20704" data-name="Group 20704">
      <g id="Group_20483" data-name="Group 20483" transform="translate(957.363 374.367)">
        <g id="Group_20482" data-name="Group 20482" transform="translate(-0.063 -0.067)" clip-path="url(#clip-path)">
          <path id="Path_7578" data-name="Path 7578" d="M19.641,39.241h-.035A19.628,19.628,0,0,1,0,19.636V19.6A19.628,19.628,0,0,1,19.606,0h.035A19.628,19.628,0,0,1,39.246,19.6v.035A19.628,19.628,0,0,1,19.641,39.241M19.606,2.509A17.111,17.111,0,0,0,2.514,19.6v.035A17.111,17.111,0,0,0,19.606,36.727h.035A17.111,17.111,0,0,0,36.732,19.636V19.6A17.111,17.111,0,0,0,19.641,2.509Z" transform="translate(0.074 0.079)" fill="#0a47ac"/>
          <path id="Path_7579" data-name="Path 7579" d="M570.437,268.173h0a1.242,1.242,0,0,1-1.234-1.1l-1.664-14.56a2.723,2.723,0,1,1,5.439,0l-1.3,14.534a1.242,1.242,0,0,1-1.237,1.131" transform="translate(-550.561 -242.128)" fill="#0a47ac"/>
          <path id="Path_7580" data-name="Path 7580" d="M593.033,918.621a2.263,2.263,0,1,1-2.263-2.263,2.263,2.263,0,0,1,2.263,2.263" transform="translate(-570.909 -888.997)" fill="#0a47ac"/>
        </g>
      </g>
    </g>
  </g>
</svg>
