<svg xmlns="http://www.w3.org/2000/svg" width="19.5" height="19.5" viewBox="0 0 19.5 19.5">
  <g id="Group_20" data-name="Group 20" transform="translate(-2.25 -2.25)">
    <path id="Union" d="M2.75,0A2.75,2.75,0,0,0,0,2.75v3A2.75,2.75,0,0,0,2.75,8.5h3A2.75,2.75,0,0,0,8.5,5.75v-3A2.75,2.75,0,0,0,5.75,0ZM1.5,2.75A1.25,1.25,0,0,1,2.75,1.5h3A1.25,1.25,0,0,1,7,2.75v3A1.25,1.25,0,0,1,5.75,7h-3A1.25,1.25,0,0,1,1.5,5.75Z" transform="translate(2.25 2.25)" fill="#333"/>
    <path id="Union-2" data-name="Union" d="M2.75,11A2.75,2.75,0,0,0,0,13.75v3A2.75,2.75,0,0,0,2.75,19.5h3A2.75,2.75,0,0,0,8.5,16.75v-3A2.75,2.75,0,0,0,5.75,11ZM1.5,13.75A1.25,1.25,0,0,1,2.75,12.5h3A1.25,1.25,0,0,1,7,13.75v3A1.25,1.25,0,0,1,5.75,18h-3A1.25,1.25,0,0,1,1.5,16.75Z" transform="translate(2.25 2.25)" fill="#333"/>
    <path id="Union-3" data-name="Union" d="M11,13.75A2.75,2.75,0,0,1,13.75,11h3a2.75,2.75,0,0,1,2.75,2.75v3a2.75,2.75,0,0,1-2.75,2.75h-3A2.75,2.75,0,0,1,11,16.75Zm2.75-1.25a1.25,1.25,0,0,0-1.25,1.25v3A1.25,1.25,0,0,0,13.75,18h3A1.25,1.25,0,0,0,18,16.75v-3a1.25,1.25,0,0,0-1.25-1.25Z" transform="translate(2.25 2.25)" fill="#333"/>
    <path id="Union-4" data-name="Union" d="M13.75,0A2.75,2.75,0,0,0,11,2.75v3A2.75,2.75,0,0,0,13.75,8.5h3A2.75,2.75,0,0,0,19.5,5.75v-3A2.75,2.75,0,0,0,16.75,0ZM12.5,2.75A1.25,1.25,0,0,1,13.75,1.5h3A1.25,1.25,0,0,1,18,2.75v3A1.25,1.25,0,0,1,16.75,7h-3A1.25,1.25,0,0,1,12.5,5.75Z" transform="translate(2.25 2.25)" fill="#333"/>
  </g>
</svg>
