<svg id="delete" xmlns="http://www.w3.org/2000/svg" width="12.183" height="15" viewBox="0 0 12.183 15">
  <path id="Path_6150" data-name="Path 6150" d="M222.75,154.7a.351.351,0,0,0-.351.351v6.639a.351.351,0,1,0,.7,0v-6.639A.351.351,0,0,0,222.75,154.7Zm0,0" transform="translate(-215.086 -149.269)" fill="#1c1c1c"/>
  <path id="Path_6151" data-name="Path 6151" d="M104.75,154.7a.351.351,0,0,0-.351.351v6.639a.351.351,0,1,0,.7,0v-6.639A.351.351,0,0,0,104.75,154.7Zm0,0" transform="translate(-100.231 -149.269)" fill="#1c1c1c"/>
  <path id="Path_6152" data-name="Path 6152" d="M.995,4.464v8.655a1.938,1.938,0,0,0,.515,1.337A1.73,1.73,0,0,0,2.765,15H9.411a1.729,1.729,0,0,0,1.255-.543,1.938,1.938,0,0,0,.515-1.337V4.464a1.342,1.342,0,0,0-.344-2.639h-1.8V1.386A1.38,1.38,0,0,0,7.648,0H4.529A1.38,1.38,0,0,0,3.137,1.386v.439h-1.8A1.342,1.342,0,0,0,.995,4.464ZM9.411,14.3H2.765A1.113,1.113,0,0,1,1.7,13.119V4.5h8.782v8.624A1.113,1.113,0,0,1,9.411,14.3ZM3.84,1.386A.677.677,0,0,1,4.529.7H7.648a.677.677,0,0,1,.689.685v.439H3.84Zm-2.5,1.142h9.5a.632.632,0,1,1,0,1.265h-9.5a.632.632,0,1,1,0-1.265Zm0,0" transform="translate(0.003 0.001)" fill="#1c1c1c"/>
</svg>
