<svg xmlns="http://www.w3.org/2000/svg" width="11.371" height="14" viewBox="0 0 11.371 14">
    <path data-name="Path 6150" d="M222.726 154.7a.328.328 0 0 0-.328.328v6.2a.328.328 0 0 0 .656 0v-6.2a.328.328 0 0 0-.328-.328zm0 0" transform="translate(-215.573 -149.631)" style="fill:#1c1c1c"/>
    <path data-name="Path 6151" d="M104.726 154.7a.328.328 0 0 0-.328.328v6.2a.328.328 0 0 0 .656 0v-6.2a.328.328 0 0 0-.328-.328zm0 0" transform="translate(-100.509 -149.631)" style="fill:#1c1c1c"/>
    <path data-name="Path 6152" d="M.928 4.167v8.078a1.809 1.809 0 0 0 .481 1.248A1.615 1.615 0 0 0 2.58 14h6.2a1.614 1.614 0 0 0 1.171-.507 1.809 1.809 0 0 0 .481-1.248V4.167a1.252 1.252 0 0 0-.317-2.467H8.436v-.41A1.288 1.288 0 0 0 7.138 0H4.226a1.288 1.288 0 0 0-1.3 1.3v.4H1.249a1.252 1.252 0 0 0-.321 2.467zm7.856 9.176H2.58a1.038 1.038 0 0 1-1-1.1V4.2h8.2v8.049a1.038 1.038 0 0 1-.996 1.094zm-5.2-12.049a.632.632 0 0 1 .642-.64h2.912a.632.632 0 0 1 .643.639V1.7h-4.2zM1.249 2.359h8.865a.59.59 0 1 1 0 1.18H1.249a.59.59 0 1 1 0-1.18zm0 0" transform="translate(.003 .001)" style="fill:#1c1c1c"/>
</svg>
