<svg xmlns="http://www.w3.org/2000/svg" xmlns:xlink="http://www.w3.org/1999/xlink" width="44.273" height="56" viewBox="0 0 44.273 56">
  <defs>
    <clipPath id="clip-path">
      <rect id="Rectangle_17434" data-name="Rectangle 17434" width="44.273" height="56" transform="translate(0 0)" fill="#fff"/>
    </clipPath>
  </defs>
  <g id="Group_20570" data-name="Group 20570" transform="translate(0 0.003)">
    <g id="Group_20569" data-name="Group 20569" transform="translate(0 -0.003)" clip-path="url(#clip-path)">
      <path id="Path_7584" data-name="Path 7584" d="M191.949,22.339l.042.022a11.53,11.53,0,0,0,1.279.558l.18.064a11.863,11.863,0,0,0,7.97-.064l.019-.007a11.578,11.578,0,0,0,1.306-.573l.153-.08a11.822,11.822,0,1,0-10.948.08" transform="translate(-175.209 0.004)" fill="#fff"/>
      <path id="Path_7585" data-name="Path 7585" d="M523.338,634.26a.173.173,0,0,0-.006-.026.062.062,0,0,0,0-.01c0-.019-.009-.038-.015-.056s-.009-.032-.014-.048a.036.036,0,0,1,0-.008c0-.006,0-.012-.005-.018-.008-.026-.015-.049-.025-.074a.148.148,0,0,0-.008-.023l-.012-.033v0c0-.013-.01-.027-.016-.039s-.011-.028-.017-.04l-.03-.068-.016-.035c-.017-.034-.033-.067-.052-.1l-.042-.073c-.014-.024-.029-.048-.044-.072-.03-.047-.062-.093-.1-.137-.013-.017-.025-.034-.039-.05s-.019-.024-.029-.036-.038-.046-.059-.069l-.006-.007-.021-.023c-.019-.022-.039-.043-.06-.064l-.044-.044h0c-.027-.026-.054-.051-.083-.075a2.253,2.253,0,0,0-.282-.209c-.028-.018-.057-.035-.086-.052l-.044-.024-.05-.026c-.033-.017-.067-.034-.1-.049l-.1-.044-.054-.02c-.036-.013-.072-.025-.108-.036l-.012,0-.009,0-.034-.011-.034-.009-.011,0-.017,0-.043-.01-.043-.009-.035-.008-.052-.01-.058-.01-.07-.009-.04,0-.054,0-.026,0h-.014l-.041,0-.1,0H521l-.052,0-.062,0-.061.006c-.031,0-.062.006-.091.011l-.015,0-.058.009-.059.012-.038.008h-.017l-.008,0-.025.006-.012,0-.025.006c-.033.008-.064.016-.1.028l-.054.017-.054.019-.053.02c-.048.019-.1.04-.141.062-.015.007-.03.013-.044.022l-.019.009h0l-.051.026-.048.027-.049.029c-.031.019-.062.038-.091.058s-.085.06-.126.092c-.021.016-.042.032-.062.05s-.04.034-.059.051l-.026.023-.058.056a.145.145,0,0,0-.015.015.206.206,0,0,0-.022.022c-.011.01-.021.021-.03.032s-.029.031-.044.048l-.009.01c-.022.026-.044.052-.066.079,0,.006-.009.011-.013.018s-.024.029-.034.044l-.016.021-.017.024-.032.046h0c-.009.013-.018.028-.027.042l0,0-.042.068c-.015.026-.03.051-.044.077s-.035.066-.052.1l-.016.035-.03.068h0q-.011.025-.022.052l-.007.02a.061.061,0,0,0,0,.007v0l0,.011h0a.174.174,0,0,0-.007.021l0,.005h0l-.006.017c0,.007,0,.014-.007.021l-.018.053c-.011.036-.022.074-.031.111s-.017.068-.024.1l0,.011,0,.009c0,.018-.007.036-.01.054s-.006.034-.009.051,0,.035-.007.053c0,0,0,0,0,.007s0,.031-.005.046,0,.007,0,.01,0,.032,0,.048a.163.163,0,0,0,0,.027.007.007,0,0,0,0,.005v0a.051.051,0,0,0,0,.015.152.152,0,0,0,0,.019.081.081,0,0,0,0,.013c0,.035,0,.071,0,.107s0,.072,0,.107a.073.073,0,0,0,0,.012.172.172,0,0,0,0,.02.1.1,0,0,0,0,.014v0h0a.011.011,0,0,0,0,.007c0,.005,0,.01,0,.016s0,.038.005.057c0,.034.007.069.012.1a.111.111,0,0,0,0,.014.549.549,0,0,0,.009.058c0,.019.008.038.011.057s.008.038.013.056,0,.02.007.029.009.037.014.055a.028.028,0,0,1,0,0c0,.014.007.028.012.042.008.03.017.06.028.09a.328.328,0,0,0,.012.036l.021.056.007.02v0l0,.006a.1.1,0,0,0,.007.017l.009.021a.261.261,0,0,0,.012.025c.009.02.017.04.027.059s.021.046.034.069.016.032.025.047.02.038.031.056l.007.012.037.06c.008.013.017.027.026.039.026.042.055.083.085.122s.042.056.064.082v0l.031.036,0,0c.015.019.032.037.049.055s.042.044.064.066l0,0c.034.034.069.066.105.1l.011.01c.02.018.04.035.061.052s.068.054.1.08l.026.02h0c.017.012.034.024.051.035l.027.017c.017.012.036.023.054.033s.046.027.068.04l.042.023c.02.011.041.021.061.031a2.007,2.007,0,0,0,.265.111h0l.037.013.058.019.024.007.059.016.06.015h0l.043.009c.016,0,.031.007.046.009l.026.005.054.009.015,0,.045.006.029,0,.033,0,.053,0,.053,0h0c.04,0,.081,0,.121,0,.057,0,.113,0,.168-.006h.01a1.8,1.8,0,0,0,.2-.025h0l.017,0,.017,0c.06-.011.12-.025.179-.04s.092-.026.137-.04l.087-.031.085-.034c.034-.015.068-.03.1-.047h0l.05-.025,0,0,.011-.006.036-.019.012-.007.022-.012.052-.03.046-.029.044-.027.011-.008.039-.027.065-.048c.022-.016.043-.034.064-.05l.051-.043c.017-.014.035-.03.052-.046a.252.252,0,0,0,.025-.022l.044-.042c.023-.022.045-.044.066-.068l.03-.033.034-.039,0,0,.026-.031c.009-.01.018-.02.026-.031q.052-.065.1-.133c.018-.026.035-.052.052-.079.007-.009.013-.02.019-.03l.018-.03.007-.012c.011-.018.021-.037.031-.056s.017-.031.025-.047.023-.046.034-.069.018-.039.027-.059.009-.02.013-.031l.02-.047h0l.02-.052.007-.018c.011-.032.022-.065.032-.1l0-.007c.007-.021.013-.044.019-.066l.006-.021c0-.011.006-.023.009-.034s0-.008,0-.011l0-.018c0-.017.009-.034.012-.052,0,0,0,0,0-.005.007-.038.015-.076.02-.114,0-.016,0-.032.007-.048s0-.007,0-.01c0-.029.007-.058.01-.087,0,0,0,0,0-.006s0,0,0,0c.006-.066.009-.133.009-.2s0-.135-.009-.2c0,0,0,0,0,0s0,0,0-.005c0-.029-.005-.058-.01-.087,0,0,0-.007,0-.01s0-.031-.007-.048,0-.03-.007-.045-.008-.046-.013-.069l0-.009h0c0-.015-.007-.031-.011-.046m-2.263,2.366a1.841,1.841,0,1,1,1.841-1.841,1.842,1.842,0,0,1-1.841,1.841" transform="translate(-489.909 -597.297)" fill="#fff"/>
      <path id="Path_7586" data-name="Path 7586" d="M32.807,425.031a8.367,8.367,0,0,1,.487,10.191c.019.019.036.038.054.058a2.934,2.934,0,1,1-.739-.6l.035.021h0a7.507,7.507,0,0,0,1.318-4.262A7.749,7.749,0,0,0,29.92,423.7h0q-.606-.229-1.229-.421l-6.554,14.5-6.524-14.439a7.805,7.805,0,0,0-4.906,7.089,3.157,3.157,0,0,1,1.933,1.235,7.1,7.1,0,0,1,1.318,3.023l-.142.029,1.34,7.422a2.529,2.529,0,0,1-.366,1.824,2.57,2.57,0,0,1-1.71,1.137l-.135.024v0l.005.036a.221.221,0,0,1-.093.218l-.5.323a.2.2,0,0,1-.3-.149l-.151-.988a.2.2,0,0,1,.237-.244l.568.132a.2.2,0,0,1,.146.145l.139-.024a2.081,2.081,0,0,0,1.386-.917,1.968,1.968,0,0,0,.287-1.419l-1.341-7.429-.138.028a6.4,6.4,0,0,0-1.162-2.7,2.308,2.308,0,0,0-1.715-.976,2.306,2.306,0,0,0-1.714.976,6.408,6.408,0,0,0-1.163,2.7l-.168-.034L5.93,442.242a1.972,1.972,0,0,0,.288,1.419,2.082,2.082,0,0,0,1.386.917l.138.024a.206.206,0,0,1,.147-.145l.568-.132a.2.2,0,0,1,.237.244l-.152.988a.2.2,0,0,1-.3.149l-.5-.323a.22.22,0,0,1-.093-.218l.005-.036v0l-.135-.024a2.567,2.567,0,0,1-1.71-1.137,2.53,2.53,0,0,1-.366-1.824l1.341-7.429-.11-.022A7.064,7.064,0,0,1,8,431.666a3.179,3.179,0,0,1,1.878-1.225,8.43,8.43,0,0,1,2.444-5.858A22.139,22.139,0,0,0,0,444.43q0,.325.009.648a4.877,4.877,0,0,0,1.866,3.706,32.965,32.965,0,0,0,40.521,0,4.872,4.872,0,0,0,1.867-3.706c.007-.215.009-.432.009-.649a22.128,22.128,0,0,0-11.466-19.4" transform="translate(0 -399.746)" fill="#fff"/>
    </g>
  </g>
</svg>
