<svg id="Group_20318" data-name="Group 20318" xmlns="http://www.w3.org/2000/svg" xmlns:xlink="http://www.w3.org/1999/xlink" width="18.602" height="20.982" viewBox="0 0 18.602 20.982">
  <defs>
    <clipPath id="clip-path">
      <rect id="Rectangle_17226" data-name="Rectangle 17226" width="18.602" height="20.982" fill="none" stroke="#333" stroke-width="1.2"/>
    </clipPath>
  </defs>
  <g id="Group_20317" data-name="Group 20317" clip-path="url(#clip-path)">
    <path id="Path_7440" data-name="Path 7440" d="M.375,15.445v1.587A1.588,1.588,0,0,0,1.962,18.62H14.653a1.588,1.588,0,0,0,1.587-1.587V5.133L11.482.375H1.962A1.585,1.585,0,0,0,.375,1.959V15.445Z" transform="translate(0.993 0.993)" fill="none" stroke="#333" stroke-linecap="round" stroke-linejoin="round" stroke-width="1.2"/>
    <path id="Path_7441" data-name="Path 7441" d="M5.005,5.133H8.18L3.418.375V3.546A1.588,1.588,0,0,0,5.005,5.133Z" transform="translate(9.054 0.993)" fill="none" stroke="#333" stroke-linecap="round" stroke-linejoin="round" stroke-width="1.2"/>
    <line id="Line_1238" data-name="Line 1238" x2="3.175" transform="translate(5.335 5.335)" fill="none" stroke="#333" stroke-linecap="round" stroke-linejoin="round" stroke-width="1.2"/>
    <line id="Line_1239" data-name="Line 1239" x2="7.141" transform="translate(5.335 10.094)" fill="none" stroke="#333" stroke-linecap="round" stroke-linejoin="round" stroke-width="1.2"/>
    <line id="Line_1240" data-name="Line 1240" x2="7.141" transform="translate(5.335 14.854)" fill="none" stroke="#333" stroke-linecap="round" stroke-linejoin="round" stroke-width="1.2"/>
  </g>
</svg>
