<svg xmlns="http://www.w3.org/2000/svg" xmlns:xlink="http://www.w3.org/1999/xlink" width="15" height="15" viewBox="0 0 15 15">
  <defs>
    <clipPath id="clip-path">
      <rect id="Rectangle_17245" data-name="Rectangle 17245" width="15" height="15" fill="#2e4765"/>
    </clipPath>
  </defs>
  <g id="Group_20336" data-name="Group 20336" transform="translate(0 0)">
    <g id="Group_20333" data-name="Group 20333" transform="translate(0 0)" clip-path="url(#clip-path)">
      <path id="Path_7476" data-name="Path 7476" d="M14.608,2.436,12.564.392a1.339,1.339,0,0,0-1.893,0L8.4,2.663h0L.906,10.157h0l-.021.022-.008.01-.012.016-.008.012-.01.017-.007.012c0,.009-.009.018-.014.028l0,.01-.008.022,0,.011a.251.251,0,0,0-.007.027v.009l-.8,4.2A.375.375,0,0,0,.374,15a.355.355,0,0,0,.07-.007l4.2-.795h0l.006,0,.026-.006.011,0,.022-.008.011,0,.028-.013.012-.007.016-.01.012-.008.016-.012.01-.008.023-.021h0L13.7,5.238l.908-.909a1.34,1.34,0,0,0,0-1.893M12.072,5.805,9.2,2.929l.832-.832L12.9,4.973ZM4.766,13.11a4.7,4.7,0,0,0-1.112-1.764A4.7,4.7,0,0,0,1.89,10.234L8.665,3.459l2.877,2.876Zm-3.3-2.226a3.954,3.954,0,0,1,2.652,2.652l-3.271.619ZM14.078,3.8l-.643.643L10.558,1.566,11.2.923a.589.589,0,0,1,.832,0l2.044,2.044a.59.59,0,0,1,0,.832" transform="translate(0 0)" fill="#2e4765"/>
      <path id="Path_7477" data-name="Path 7477" d="M17.861,16.6a.375.375,0,0,0-.53,0l-4.543,4.543a.375.375,0,1,0,.53.53l4.543-4.543a.375.375,0,0,0,0-.53" transform="translate(-8.458 -11.001)" fill="#2e4765"/>
    </g>
  </g>
</svg>
