<svg xmlns="http://www.w3.org/2000/svg" width="79" height="79" viewBox="0 0 79 79">
  <g id="Group_20567" data-name="Group 20567" transform="translate(0 0)">
    <g id="Group_20568" data-name="Group 20568">
      <path id="Path_7582" data-name="Path 7582" d="M143.364,139.95l12.044-12.044c1.246-1.246,1.492-3.021.549-3.964s-2.718-.7-3.964.549l-12.044,12.044-12.044-12.044c-1.246-1.246-3.021-1.492-3.964-.549s-.7,2.718.549,3.964l12.044,12.044-12.044,12.044c-1.246,1.246-1.492,3.021-.549,3.964s2.718.7,3.964-.549l12.044-12.044,12.044,12.044c1.246,1.246,3.021,1.492,3.964.549s.7-2.718-.549-3.964Z" transform="translate(-100.449 -100.45)" fill="red"/>
      <path id="Path_7583" data-name="Path 7583" d="M39.5,79A39.51,39.51,0,0,1,24.124,3.106,39.51,39.51,0,0,1,54.876,75.9,39.256,39.256,0,0,1,39.5,79m0-74.327A34.827,34.827,0,1,0,74.327,39.5,34.867,34.867,0,0,0,39.5,4.674" transform="translate(0 -0.001)" fill="#999"/>
    </g>
  </g>
</svg>
