<svg xmlns="http://www.w3.org/2000/svg" width="500" height="500" viewBox="0 0 500 500">
  <g id="Group_20152" data-name="Group 20152" transform="translate(19707 22378)">
    <rect id="Rectangle_17087" data-name="Rectangle 17087" width="500" height="500" transform="translate(-19707 -22378)" fill="none"/>
    <path id="Path_718" data-name="Path 718" d="M285.051,253.978c-84.507,0-162.125-45.147-213.012-123.9A33.443,33.443,0,0,1,82.253,83.685a33.986,33.986,0,0,1,46.733,10.14c38.18,59.105,95.07,93,156.065,93h.058c61.228-.019,118.3-34.095,156.6-93.469a33.983,33.983,0,0,1,46.733-10.169,33.451,33.451,0,0,1,10.243,46.385C447.707,208.6,369.867,253.949,285.138,253.978Z" transform="translate(-19742.686 -22293.883)" fill="#333"/>
  </g>
</svg>
