<svg id="Group_15956" data-name="Group 15956" xmlns="http://www.w3.org/2000/svg" xmlns:xlink="http://www.w3.org/1999/xlink" width="30.049" height="30.766" viewBox="0 0 30.049 30.766">
  <defs>
    <clipPath id="clip-path">
      <rect id="Rectangle_1539" data-name="Rectangle 1539" width="30.05" height="30.766" transform="translate(0 0)" fill="none"/>
    </clipPath>
  </defs>
  <g id="Group_20077" data-name="Group 20077" transform="translate(0 0)" clip-path="url(#clip-path)">
    <path id="Path_4721" data-name="Path 4721" d="M1375.106,1110.526s.2,2.151.2,2.863c0,.752-.2,2.993-.2,2.993v.01a13.815,13.815,0,0,1-4.214,8.562l-4.965-3.738a9.414,9.414,0,0,0,1.072-.824,6.6,6.6,0,0,0,2.046-4h-8.38v-5.867h14.441Z" transform="translate(-1345.259 -1097.952)" fill="#4386f7"/>
    <path id="Path_4722" data-name="Path 4722" d="M167.906,4.028l-4.417,4.347a9.027,9.027,0,0,0-5.768-2.3,9.368,9.368,0,0,0-8.847,6.292l-5.041-3.8A15.294,15.294,0,0,1,167.9,4.019l.01.009" transform="translate(-142.203 -0.004)" fill="#ee4131"/>
    <path id="Path_4723" data-name="Path 4723" d="M165.947,1640.338l-.049.044a15.581,15.581,0,0,1-23.977-4.768l5.05-3.8a9.369,9.369,0,0,0,14.011,4.788Z" transform="translate(-140.314 -1613.336)" fill="#33a951"/>
    <path id="Path_4724" data-name="Path 4724" d="M6.657,766.417l-5.05,3.8a15.34,15.34,0,0,1,.022-13.713l5.041,3.8a9.418,9.418,0,0,0-.013,6.115Z" transform="translate(0 -747.94)" fill="#ffbe00"/>
  </g>
</svg>
