<svg xmlns="http://www.w3.org/2000/svg" width="21.071" height="20.676" viewBox="0 0 21.071 20.676">
  <g id="noun-home-1029450" transform="translate(-92.902 -92.703)">
    <g id="Homeicon" transform="translate(-601.918 -702.808)">
      <path id="Path_7396" data-name="Path 7396" d="M715.141,805v9.542a.9.9,0,0,1-.9.9h-5.825a.89.89,0,0,1-.889-.889V811.36a.814.814,0,0,0-.814-.814H704a.813.813,0,0,0-.814.814v3.187a.89.89,0,0,1-.889.889h-5.825a.9.9,0,0,1-.9-.9V805a.982.982,0,0,1,.336-.739l8.8-7.685a.981.981,0,0,1,1.291,0l8.8,7.685A.982.982,0,0,1,715.141,805Z" fill="none" stroke="#333" stroke-miterlimit="10" stroke-width="1.5"/>
    </g>
  </g>
</svg>
