<svg xmlns="http://www.w3.org/2000/svg" width="21" height="21" viewBox="0 0 21 21">
  <g id="Group_20702" data-name="Group 20702" transform="translate(-300 -336)">
    <rect id="Rectangle_17489" data-name="Rectangle 17489" width="21" height="21" rx="5" transform="translate(300 336)" fill="red"/>
    <circle id="Ellipse_434" data-name="Ellipse 434" cx="7.5" cy="7.5" r="7.5" transform="translate(303 339)" fill="#fff"/>
    <path id="Path_7611" data-name="Path 7611" d="M568.669,256.883h0a.485.485,0,0,1-.482-.43l-.651-5.692a1.065,1.065,0,1,1,2.126,0l-.51,5.682a.486.486,0,0,1-.484.442" transform="translate(-258.1 92.099)" fill="red"/>
    <path id="Path_7612" data-name="Path 7612" d="M590.276,917.243a.885.885,0,1,1-.885-.885.885.885,0,0,1,.885.885" transform="translate(-278.763 -566.862)" fill="red"/>
  </g>
</svg>
