<svg id="message" xmlns="http://www.w3.org/2000/svg" width="29.201" height="18.783" viewBox="0 0 29.201 18.783">
  <g id="Group_1016" data-name="Group 1016">
    <path id="Path_6112" data-name="Path 6112" d="M28,66.16H1.2a1.2,1.2,0,0,0-1.2,1.2V83.74a1.2,1.2,0,0,0,1.2,1.2H28a1.2,1.2,0,0,0,1.2-1.2V67.363A1.2,1.2,0,0,0,28,66.16ZM1.2,67.1H28a.258.258,0,0,1,.246.183L14.6,75.81.957,67.287A.258.258,0,0,1,1.2,67.1Zm-.258,1.26,9.813,6.129L.945,82.278ZM28.256,83.733a.258.258,0,0,1-.258.258H1.2a.258.258,0,0,1-.258-.258v-.252l10.664-8.428,2.74,1.713a.472.472,0,0,0,.5,0l2.74-1.713,10.664,8.428Zm0-1.455-9.838-7.76,9.838-6.1Z" transform="translate(0 -66.16)" fill="#fff"/>
  </g>
</svg>
