<svg xmlns="http://www.w3.org/2000/svg" width="24" height="29.25" viewBox="0 0 24 29.25">
  <g id="Group_79" data-name="Group 79" transform="translate(-1713 -72)">
    <path id="Icon_material-notifications-none" data-name="Icon material-notifications-none" d="M18,33a3.009,3.009,0,0,0,3-3H15A3.009,3.009,0,0,0,18,33Zm9-9V16.5c0-4.6-2.445-8.46-6.75-9.48V6a2.25,2.25,0,0,0-4.5,0V7.02C11.46,8.04,9,11.88,9,16.5V24L6,27v1.5H30V27Zm-3,1.5H12v-9c0-3.72,2.265-6.75,6-6.75s6,3.03,6,6.75Z" transform="translate(1707 68.25)" fill="rgba(46,71,101,0.8)"/>
  </g>
</svg>
