<svg xmlns="http://www.w3.org/2000/svg" width="21.5" height="21.5" viewBox="0 0 21.5 21.5">
  <g id="Union" fill="#333">
    <path d="M 10.75 21 C 9.509349822998047 21 8.5 19.99065017700195 8.5 18.75 C 8.5 17.74752044677734 9.17278003692627 16.85709953308105 10.13607978820801 16.58465003967285 L 10.5 16.48171997070312 L 10.5 16.10351943969727 L 10.5 14.5 L 10.5 14 L 10 14 L 2.75 14 C 2.060750007629395 14 1.5 13.43924999237061 1.5 12.75 L 1.5 4.474999904632568 L 1.5 4.066299915313721 L 1.099470019340515 3.984989881515503 C 0.7521100044250488 3.914479970932007 0.5 3.605370044708252 0.5 3.25 L 0.5 1.75 C 0.5 1.060750007629395 1.060750007629395 0.5 1.75 0.5 L 19.75 0.5 C 20.43925094604492 0.5 21 1.060750007629395 21 1.75 L 21 3.25 C 21 3.605370044708252 20.74789047241211 3.914479970932007 20.4005298614502 3.984989881515503 L 20 4.066299915313721 L 20 4.474999904632568 L 20 12.75 C 20 13.43924999237061 19.43925094604492 14 18.75 14 L 11.5 14 L 11 14 L 11 14.5 L 11 16.10351943969727 L 11 16.48171997070312 L 11.36392021179199 16.58465003967285 C 12.32721996307373 16.85709953308105 13 17.74752044677734 13 18.75 C 13 19.99065017700195 11.99065017700195 21 10.75 21 Z M 10.75 17 C 9.785050392150879 17 9 17.78504943847656 9 18.75 C 9 19.71495056152344 9.785050392150879 20.5 10.75 20.5 C 11.71494960784912 20.5 12.5 19.71495056152344 12.5 18.75 C 12.5 17.78504943847656 11.71494960784912 17 10.75 17 Z M 2 4 L 2 4.5 L 2 12.75 C 2 13.16355037689209 2.336450099945068 13.5 2.75 13.5 L 18.75 13.5 C 19.16354942321777 13.5 19.5 13.16355037689209 19.5 12.75 L 19.5 4.5 L 19.5 4 L 19 4 L 2.5 4 L 2 4 Z M 1.75 1 C 1.336449980735779 1 1 1.336449980735779 1 1.75 L 1 2.75 C 1 3.163549900054932 1.336449980735779 3.5 1.75 3.5 L 19.75 3.5 C 20.16354942321777 3.5 20.5 3.163549900054932 20.5 2.75 L 20.5 1.75 C 20.5 1.336449980735779 20.16354942321777 1 19.75 1 L 1.75 1 Z" stroke="none"/>
    <path d="M 1.75 0 L 19.75 0 C 20.71649932861328 0 21.5 0.7835006713867188 21.5 1.75 L 21.5 3.25 C 21.5 3.854740142822266 21.07056045532227 4.359180450439453 20.5 4.474990844726562 L 20.5 12.75 C 20.5 13.71649932861328 19.71649932861328 14.5 18.75 14.5 L 11.5 14.5 L 11.5 16.10351943969727 C 12.6542501449585 16.42997932434082 13.5 17.49122047424316 13.5 18.75 C 13.5 20.26877975463867 12.26877975463867 21.5 10.75 21.5 C 9.231220245361328 21.5 8 20.26877975463867 8 18.75 C 8 17.49122047424316 8.845749855041504 16.42997932434082 10 16.10351943969727 L 10 14.5 L 2.75 14.5 C 1.783500671386719 14.5 1 13.71649932861328 1 12.75 L 1 4.474990844726562 C 0.4294395446777344 4.359180450439453 0 3.854740142822266 0 3.25 L 0 1.75 C 0 0.7835006713867188 0.7835006713867188 0 1.75 0 Z M 19.75 3 C 19.88806915283203 3 20 2.888069152832031 20 2.75 L 20 1.75 C 20 1.611930847167969 19.88806915283203 1.5 19.75 1.5 L 1.75 1.5 C 1.611930847167969 1.5 1.5 1.611930847167969 1.5 1.75 L 1.5 2.75 C 1.5 2.888069152832031 1.611930847167969 3 1.75 3 L 19.75 3 Z M 18.75 13 C 18.88806915283203 13 19 12.88807010650635 19 12.75 L 19 4.5 L 2.5 4.5 L 2.5 12.75 C 2.5 12.88807010650635 2.611930847167969 13 2.75 13 L 18.75 13 Z M 10.75 20 C 11.4403600692749 20 12 19.44034957885742 12 18.75 C 12 18.05963897705078 11.4403600692749 17.5 10.75 17.5 C 10.0596399307251 17.5 9.5 18.05963897705078 9.5 18.75 C 9.5 19.44034957885742 10.0596399307251 20 10.75 20 Z" stroke="none" fill="#333"/>
  </g>
</svg>
