<svg xmlns="http://www.w3.org/2000/svg" width="21" height="21" viewBox="0 0 21 21">
  <g id="Group_20697" data-name="Group 20697" transform="translate(-694 -496)">
    <rect id="Rectangle_17482" data-name="Rectangle 17482" width="21" height="21" rx="5" transform="translate(694 496)" fill="#3a86ff"/>
    <circle id="Ellipse_432" data-name="Ellipse 432" cx="7.5" cy="7.5" r="7.5" transform="translate(697 499)" fill="#fff"/>
    <path id="Path_7579" data-name="Path 7579" d="M568.669,256.883h0a.485.485,0,0,1-.482-.43l-.651-5.692a1.065,1.065,0,1,1,2.126,0l-.51,5.682a.486.486,0,0,1-.484.442" transform="translate(135.901 252.099)" fill="#3a86ff"/>
    <path id="Path_7580" data-name="Path 7580" d="M590.276,917.243a.885.885,0,1,1-.885-.885.885.885,0,0,1,.885.885" transform="translate(115.237 -406.862)" fill="#3a86ff"/>
  </g>
</svg>
