<svg id="Phone" xmlns="http://www.w3.org/2000/svg" width="24" height="24" viewBox="0 0 24 24">
  <path id="Vector" d="M0,0H24V24H0Z" fill="none"/>
  <path id="Vector-2" data-name="Vector" d="M4.92,8.671a7.908,7.908,0,0,0,3.661,3.645.743.743,0,0,0,.734-.056L11.662,10.7a.75.75,0,0,1,.712-.065l4.391,1.882a.748.748,0,0,1,.45.778,4.5,4.5,0,0,1-4.464,3.93A12.75,12.75,0,0,1,0,4.47,4.5,4.5,0,0,1,3.93.005a.748.748,0,0,1,.778.45L6.592,4.85a.75.75,0,0,1-.062.706L4.97,7.939a.743.743,0,0,0-.05.732Z" transform="translate(3.75 3.03)" fill="none" stroke="#8c959f" stroke-linecap="round" stroke-linejoin="round" stroke-width="1.5"/>
</svg>
