<svg width="55" height="55" viewBox="0 0 55 55" fill="none" xmlns="http://www.w3.org/2000/svg">
<path d="M32.1127 5.00022C36.6988 5.48345 40.9826 7.51751 44.2557 10.766C47.5287 14.0145 49.595 18.2829 50.1127 22.8652M32.1127 14.0002C34.3256 14.4366 36.3563 15.528 37.9411 17.1329C39.5259 18.7378 40.5917 20.782 41.0002 23.0002M50.0002 38.5702V45.3202C50.0028 45.9468 49.8744 46.5671 49.6234 47.1413C49.3723 47.7154 49.0041 48.2308 48.5424 48.6544C48.0806 49.078 47.5355 49.4006 46.9419 49.6013C46.3483 49.8021 45.7193 49.8766 45.0952 49.8202C38.1716 49.0679 31.521 46.702 25.6777 42.9127C20.2413 39.4582 15.6322 34.8491 12.1777 29.4127C8.37517 23.5429 6.00876 16.86 5.27022 9.90522C5.21399 9.28302 5.28793 8.65593 5.48734 8.06387C5.68675 7.47182 6.00725 6.92777 6.42844 6.46637C6.84963 6.00496 7.36228 5.63631 7.93375 5.38389C8.50521 5.13147 9.12298 5.00081 9.74772 5.00022H16.4977C17.5897 4.98947 18.6482 5.37614 19.4762 6.08817C20.3041 6.80019 20.8449 7.78897 20.9977 8.87022C21.2826 11.0304 21.811 13.1514 22.5727 15.1927C22.8754 15.998 22.941 16.8733 22.7615 17.7147C22.5821 18.5561 22.1652 19.3285 21.5602 19.9402L18.7027 22.7977C21.9057 28.4307 26.5697 33.0947 32.2027 36.2977L35.0602 33.4402C35.672 32.8353 36.4443 32.4184 37.2857 32.2389C38.1272 32.0595 39.0024 32.125 39.8077 32.4277C41.8491 33.1895 43.9701 33.7178 46.1302 34.0027C47.2232 34.1569 48.2214 34.7074 48.9349 35.5496C49.6485 36.3917 50.0276 37.4668 50.0002 38.5702Z" stroke="#1BBEC3" stroke-width="2" stroke-linecap="round" stroke-linejoin="round"/>
</svg>
