<svg id="Group_20677" data-name="Group 20677" xmlns="http://www.w3.org/2000/svg" xmlns:xlink="http://www.w3.org/1999/xlink" width="30" height="30" viewBox="0 0 30 30">
  <defs>
    <clipPath id="clip-path">
      <rect id="Rectangle_17443" data-name="Rectangle 17443" width="30" height="30" fill="#fff" stroke="#fff" stroke-width="0.2"/>
    </clipPath>
  </defs>
  <g id="Group_20676" data-name="Group 20676" clip-path="url(#clip-path)">
    <path id="Path_7587" data-name="Path 7587" d="M319.111,285.858a2.5,2.5,0,0,0-2.5-2.5h-1.223V282.6a.34.34,0,1,0-.681,0v.762h-2.755V282.6a.34.34,0,1,0-.681,0v.762h-2.755V282.6a.34.34,0,1,0-.681,0v.762h-2.755V282.6a.34.34,0,1,0-.681,0v.762h-1.222a2.5,2.5,0,0,0-2.5,2.5v.99c0,.007,0,.014,0,.021v11.2a2.5,2.5,0,0,0,2.5,2.5h13.433a2.5,2.5,0,0,0,2.5-2.5V287.548c0-.007,0-.013,0-.02Zm-.681,1.651c0,.006,0,.013,0,.019v10.539a1.823,1.823,0,0,1-1.821,1.82H303.176a1.823,1.823,0,0,1-1.821-1.82v-10.2h15.354a.34.34,0,0,0,0-.681H301.356v-.3q0-.011,0-.022v-1.011a1.822,1.822,0,0,1,1.82-1.82H304.4v1.956a.34.34,0,1,0,.681,0v-1.956h2.755v1.956a.34.34,0,1,0,.681,0v-1.956h2.755v1.956a.34.34,0,0,0,.681,0v-1.956h2.755v1.956a.34.34,0,0,0,.681,0v-1.956h1.223a1.822,1.822,0,0,1,1.82,1.82Z" transform="translate(-294.893 -276.827)" fill="#fff" stroke="#fff" stroke-width="0.2"/>
    <path id="Path_7588" data-name="Path 7588" d="M930.3,651.076h-2.7a.771.771,0,0,0-.77.77v2.408a.771.771,0,0,0,.77.77h2.7a.771.771,0,0,0,.77-.77v-2.408a.771.771,0,0,0-.77-.77m.089,3.178a.089.089,0,0,1-.089.089h-2.7a.089.089,0,0,1-.089-.089v-2.408a.089.089,0,0,1,.089-.089h2.7a.089.089,0,0,1,.089.089Z" transform="translate(-909.008 -638.555)" fill="#fff" stroke="#fff" stroke-width="0.2"/>
    <path id="Path_7589" data-name="Path 7589" d="M673.248,651.076h-2.7a.771.771,0,0,0-.77.77v2.408a.771.771,0,0,0,.77.77h2.7a.771.771,0,0,0,.77-.77v-2.408a.771.771,0,0,0-.77-.77m.089,3.178a.089.089,0,0,1-.089.089h-2.7a.089.089,0,0,1-.089-.089v-2.408a.089.089,0,0,1,.089-.089h2.7a.089.089,0,0,1,.089.089Z" transform="translate(-656.898 -638.555)" fill="#fff" stroke="#fff" stroke-width="0.2"/>
    <path id="Path_7590" data-name="Path 7590" d="M416.187,651.076h-2.7a.771.771,0,0,0-.77.77v2.408a.771.771,0,0,0,.77.77h2.7a.771.771,0,0,0,.77-.77v-2.408a.771.771,0,0,0-.77-.77m.089,3.178a.089.089,0,0,1-.089.089h-2.7a.089.089,0,0,1-.089-.089v-2.408a.089.089,0,0,1,.089-.089h2.7a.089.089,0,0,1,.089.089Z" transform="translate(-404.78 -638.555)" fill="#fff" stroke="#fff" stroke-width="0.2"/>
    <path id="Path_7591" data-name="Path 7591" d="M416.187,893.405h-2.7a.771.771,0,0,0-.77.77v2.409a.771.771,0,0,0,.77.77h2.7a.771.771,0,0,0,.77-.77v-2.409a.771.771,0,0,0-.77-.77m.089,3.178a.089.089,0,0,1-.089.089h-2.7a.089.089,0,0,1-.089-.089v-2.409a.089.089,0,0,1,.089-.089h2.7a.089.089,0,0,1,.089.089Z" transform="translate(-404.78 -876.224)" fill="#fff" stroke="#fff" stroke-width="0.2"/>
    <path id="Path_7592" data-name="Path 7592" d="M673.248,893.405h-2.7a.771.771,0,0,0-.77.77v2.409a.77.77,0,0,0,.77.77h2.7a.771.771,0,0,0,.77-.77v-2.409a.771.771,0,0,0-.77-.77m.089,3.178a.089.089,0,0,1-.089.089h-2.7a.089.089,0,0,1-.089-.089v-2.409a.089.089,0,0,1,.089-.089h2.7a.089.089,0,0,1,.089.089Z" transform="translate(-656.898 -876.224)" fill="#fff" stroke="#fff" stroke-width="0.2"/>
    <path id="Path_7593" data-name="Path 7593" d="M213.757,386.753a.34.34,0,1,0-.592.335,14.334,14.334,0,0,1-19.53,19.532c-.18-.1-.36-.211-.536-.321a14.572,14.572,0,0,1-2.537-2.024l-.065-.065h1.45a.34.34,0,0,0,0-.681h-2.274a.34.34,0,0,0-.34.34v2.274a.34.34,0,1,0,.681,0v-1.456l.068.068a15.273,15.273,0,0,0,2.657,2.12c.185.115.372.228.561.335a15.015,15.015,0,0,0,20.459-20.459" transform="translate(-185.691 -379.146)" fill="#fff" stroke="#fff" stroke-width="0.2"/>
    <path id="Path_7594" data-name="Path 7594" d="M4.87,4.87A14.364,14.364,0,0,1,22.059,2.531c.163.089.338.193.536.318A14.566,14.566,0,0,1,25.13,4.87l.069.07H23.744a.34.34,0,0,0,0,.681h2.274a.34.34,0,0,0,.34-.34V3.006a.34.34,0,0,0-.681,0V4.457l-.067-.068a15.241,15.241,0,0,0-2.653-2.116c-.21-.132-.4-.242-.567-.336A15.012,15.012,0,0,0,1.934,22.392a.34.34,0,0,0,.592-.335A14.372,14.372,0,0,1,4.87,4.87" transform="translate(0 0)" fill="#fff" stroke="#fff" stroke-width="0.2"/>
  </g>
</svg>
