<svg xmlns="http://www.w3.org/2000/svg" width="20.53" height="20.53" viewBox="0 0 20.53 20.53">
  <g id="Group_11" data-name="Group 11" transform="translate(-1.735 -1.735)">
    <path id="Union" d="M10.265,6.515a3.75,3.75,0,1,0,3.75,3.75A3.75,3.75,0,0,0,10.265,6.515Zm-2.25,3.75a2.25,2.25,0,1,1,2.25,2.25A2.25,2.25,0,0,1,8.015,10.265Z" transform="translate(1.735 1.735)" fill="#333"/>
    <path id="Union-2" data-name="Union" d="M12.378,1.149a2.517,2.517,0,0,0-4.226,0l-.633.978a1.017,1.017,0,0,1-1.067.442L5.313,2.325A2.517,2.517,0,0,0,2.325,5.313l.244,1.139a1.017,1.017,0,0,1-.442,1.067l-.978.633a2.517,2.517,0,0,0,0,4.226l.978.633a1.017,1.017,0,0,1,.442,1.067l-.244,1.139A2.517,2.517,0,0,0,5.313,18.2l1.139-.244a1.017,1.017,0,0,1,1.067.442l.633.978a2.517,2.517,0,0,0,4.226,0l.633-.978a1.017,1.017,0,0,1,1.067-.442l1.139.244A2.517,2.517,0,0,0,18.2,15.216l-.244-1.139a1.017,1.017,0,0,1,.442-1.067l.978-.633a2.517,2.517,0,0,0,0-4.226L18.4,7.519a1.017,1.017,0,0,1-.442-1.067L18.2,5.313a2.517,2.517,0,0,0-2.988-2.988l-1.139.244a1.017,1.017,0,0,1-1.067-.442Zm-2.967.815a1.017,1.017,0,0,1,1.708,0l.633.978a2.517,2.517,0,0,0,2.64,1.094l1.139-.244A1.017,1.017,0,0,1,16.738,5l-.244,1.139a2.517,2.517,0,0,0,1.094,2.64l.978.633a1.017,1.017,0,0,1,0,1.708l-.978.633a2.517,2.517,0,0,0-1.094,2.64l.244,1.139a1.017,1.017,0,0,1-1.208,1.208l-1.139-.244a2.517,2.517,0,0,0-2.64,1.094l-.633.978a1.017,1.017,0,0,1-1.708,0l-.633-.978a2.517,2.517,0,0,0-2.64-1.094L5,16.738A1.017,1.017,0,0,1,3.792,15.53l.244-1.139a2.517,2.517,0,0,0-1.094-2.64l-.978-.633a1.017,1.017,0,0,1,0-1.708l.978-.633a2.517,2.517,0,0,0,1.094-2.64L3.792,5A1.017,1.017,0,0,1,5,3.792l1.139.244a2.517,2.517,0,0,0,2.64-1.094Z" transform="translate(1.735 1.735)" fill="#333"/>
  </g>
</svg>
