<svg xmlns="http://www.w3.org/2000/svg" width="14.521" height="9.878" viewBox="0 0 14.521 9.878">
  <g id="Group_1571" data-name="Group 1571" transform="translate(0.26 0.25)">
    <path id="Path_6016" data-name="Path 6016" d="M315.191,492.21a14.323,14.323,0,0,0-2.034-2.283,10.452,10.452,0,0,0-2.209-1.57,5.522,5.522,0,0,0-5.444,0,10.452,10.452,0,0,0-2.21,1.57,14.315,14.315,0,0,0-2.034,2.283.219.219,0,0,0,0,.236,14.307,14.307,0,0,0,2.034,2.283,10.453,10.453,0,0,0,2.21,1.57,5.523,5.523,0,0,0,5.444,0,10.454,10.454,0,0,0,2.209-1.57,14.315,14.315,0,0,0,2.034-2.283A.219.219,0,0,0,315.191,492.21Zm-2.2,2.233a6.235,6.235,0,0,1-9.538,0,14.645,14.645,0,0,1-1.907-2.115,14.639,14.639,0,0,1,1.907-2.115,6.235,6.235,0,0,1,9.538,0,14.641,14.641,0,0,1,1.907,2.115A14.647,14.647,0,0,1,312.994,494.443Z" transform="translate(-301.226 -487.639)" fill="#1c1c1c" stroke="#1c1c1c" stroke-width="0.5"/>
    <path id="Path_6017" data-name="Path 6017" d="M525.107,529.936a1.931,1.931,0,1,0,1.931,1.931A1.933,1.933,0,0,0,525.107,529.936Zm0,3.527a1.6,1.6,0,1,1,1.6-1.6A1.6,1.6,0,0,1,525.107,533.463Z" transform="translate(-518.136 -527.304)" fill="#1c1c1c" stroke="#1c1c1c" stroke-width="0.5"/>
  </g>
</svg>
