<svg xmlns="http://www.w3.org/2000/svg" width="20.224" height="20.1" viewBox="0 0 20.224 20.1">
    <g data-name="Group 4" transform="translate(.75 .75)">
        <path data-name="Path 7" d="M332.812 81.055h-2.982v5.277a11.271 11.271 0 0 0 2.687 2.787 6.9 6.9 0 0 0 3.3 1.14 6.772 6.772 0 0 0 3.38-1.14 7.325 7.325 0 0 0 2.122-2.787v-5.277h-2.782" transform="translate(-329.83 -81.055)" style="fill:none;stroke:#414851;stroke-width:1.5px"/>
        <path data-name="Path 8" d="M335.833 90.259s-.2 5.836 0 6.265a6.317 6.317 0 0 0 2.346 2.264 7.118 7.118 0 0 0 3.557.868 6.264 6.264 0 0 0 5.568-3.133c.093-.355 0-6.265 0-6.265" transform="translate(-329.83 -81.055)" style="stroke-linecap:round;fill:none;stroke:#414851;stroke-width:1.5px"/>
        <circle data-name="Ellipse 3" cx="2" cy="2" r="2" transform="translate(15.474 5.945)" style="fill:#414851"/>
    </g>
</svg>
