<svg xmlns="http://www.w3.org/2000/svg" width="20.2" height="18.083" viewBox="0 0 20.2 18.083">
  <g id="Group_20320" data-name="Group 20320" transform="translate(0.25 0.25)">
    <g id="Group_20321" data-name="Group 20321" transform="translate(0 0)">
      <path id="Path_7448" data-name="Path 7448" d="M19.065,15.82a1.141,1.141,0,0,1-1.146,1.134H1.781A1.142,1.142,0,0,1,.635,15.82V5.668l.007.005.027.022.036.028.029.022.037.026A.275.275,0,0,0,.8,5.79l.037.025.031.019.04.023.031.016L.987,5.9l.029.014.061.028.014.005.076.03.027.009L1.243,6l.033.01.048.014.034.008.047.011.035.007.049.009.035.005.052.007.033,0,.058,0,.029,0,.087,0H17.919l.087,0,.028,0,.058,0,.033,0,.051-.007.035-.005.049-.009.035-.007.048-.011.034-.008.048-.014L18.457,6l.052-.017.027-.009.076-.03.011,0,.064-.029.027-.013.046-.023.03-.016.042-.023.03-.019L18.9,5.79l.03-.02.038-.027.028-.02.038-.03.026-.02.007-.005ZM1.781,3.185H5.842V4.318a.318.318,0,0,0,.636,0V3.185h6.358V4.318a.317.317,0,0,0,.635,0V3.185h4.449A1.132,1.132,0,0,1,18.26,5.4a1.159,1.159,0,0,1-.34.051H1.781a1.134,1.134,0,1,1,0-2.267m4.7-1.259a1.305,1.305,0,0,1,1.31-1.3h3.737a1.306,1.306,0,0,1,1.311,1.3v.629H6.478Zm11.442.629H13.471V1.927A1.938,1.938,0,0,0,11.525,0H7.788A1.939,1.939,0,0,0,5.842,1.927v.629H1.781A1.774,1.774,0,0,0,0,4.318v11.5a1.774,1.774,0,0,0,1.781,1.762H17.919A1.773,1.773,0,0,0,19.7,15.82V4.318a1.773,1.773,0,0,0-1.781-1.762" transform="translate(0)" fill="#333" stroke="#333" stroke-linecap="round" stroke-width="0.5"/>
    </g>
  </g>
</svg>
