<svg xmlns="http://www.w3.org/2000/svg" width="12.423" height="12.423" viewBox="0 0 12.423 12.423">
  <g id="Group_20695" data-name="Group 20695" transform="translate(0.15 0.15)">
    <g id="Group_20696" data-name="Group 20696">
      <path id="Path_7614" data-name="Path 7614" d="M22.5,34a.505.505,0,1,0,.506.5A.5.5,0,0,0,22.5,34" transform="translate(-16.444 -25.413)" fill="#0a47ac" stroke="#0a47ac" stroke-width="0.3"/>
      <path id="Path_7615" data-name="Path 7615" d="M17.273,10A2.108,2.108,0,0,0,15,12.147a.379.379,0,1,0,.758,0,1.33,1.33,0,0,1,1.515-1.389c1.084,0,1.515.6,1.515,1.263,0,1.255-2.021,1.389-2.021,2.778a.505.505,0,1,0,1.01,0c0-1.01,1.768-1.2,1.768-2.778A2.086,2.086,0,0,0,17.273,10" transform="translate(-11.212 -7.474)" fill="#0a47ac" stroke="#0a47ac" stroke-width="0.3"/>
      <path id="Path_7616" data-name="Path 7616" d="M6.062,0a6.062,6.062,0,1,0,6.062,6.062A6.068,6.068,0,0,0,6.062,0m0,11.668a5.607,5.607,0,1,1,5.607-5.607,5.613,5.613,0,0,1-5.607,5.607" fill="#0a47ac" stroke="#0a47ac" stroke-width="0.3"/>
    </g>
  </g>
</svg>
