<svg xmlns="http://www.w3.org/2000/svg" width="15.092" height="16.595" viewBox="0 0 15.092 16.595">
  <g id="Group_20700" data-name="Group 20700" transform="translate(0.151 0.151)">
    <g id="Group_20701" data-name="Group 20701" transform="translate(0 0.004)">
      <path id="Path_7618" data-name="Path 7618" d="M7.362,1.457V.429A.424.424,0,0,0,6.727.062L3.555,1.893a.424.424,0,0,0,0,.734L6.727,4.459a.424.424,0,0,0,.636-.367V3.063A5.805,5.805,0,1,1,1.6,9.582a.806.806,0,0,0-.8-.713h0a.806.806,0,0,0-.8.907,7.427,7.427,0,0,0,8.96,6.335A7.323,7.323,0,0,0,14.6,10.473,7.425,7.425,0,0,0,7.362,1.457" transform="translate(0 -0.004)" fill="#333" stroke="#333" stroke-width="0.3"/>
    </g>
  </g>
</svg>
