<svg xmlns="http://www.w3.org/2000/svg" width="30.519" height="30.518" viewBox="0 0 30.519 30.518">
    <g data-name="Component 3 – 1">
        <g data-name="Group 20312">
            <path data-name="Path 7426" d="M2.287 29.518A2.212 2.212 0 0 1 0 27.232V10.394a2.212 2.212 0 0 1 2.287-2.287h.279a.208.208 0 0 0 .176-.1L7.651.194a.416.416 0 0 1 .6-.11l4.1 3.106a.207.207 0 0 0 .125.042h.034a.208.208 0 0 0 .138-.088l1.167-1.714a.418.418 0 0 1 .28-.178.436.436 0 0 1 .064 0 .414.414 0 0 1 .256.089l8.538 6.726a.208.208 0 0 0 .129.044h1.031a2.212 2.212 0 0 1 2.287 2.283v3.742a.208.208 0 0 0 .208.208H29.1a.416.416 0 0 1 .416.416v7.484a.416.416 0 0 1-.416.416h-2.492a.208.208 0 0 0-.208.208v4.365a2.212 2.212 0 0 1-2.287 2.287zm0-20.58a1.364 1.364 0 0 0-1.455 1.456v16.838a1.364 1.364 0 0 0 1.455 1.455h21.827a1.364 1.364 0 0 0 1.455-1.455v-4.366a.208.208 0 0 0-.208-.208h-3.742a4.158 4.158 0 1 1 0-8.315h3.742a.208.208 0 0 0 .208-.208v-3.741a1.364 1.364 0 0 0-1.455-1.455zm19.333 6.236a3.326 3.326 0 1 0 0 6.652h6.86a.208.208 0 0 0 .208-.208v-6.235a.208.208 0 0 0-.208-.208zM14.3 2.359h-.032a.207.207 0 0 0-.14.089L13.3 3.661a.208.208 0 0 0 .047.282l5.442 4.121a.207.207 0 0 0 .125.042h2.15a.208.208 0 0 0 .129-.371L14.427 2.4a.209.209 0 0 0-.129-.044m-3.762 2.226a.412.412 0 0 1 .244.079l4.684 3.406a.207.207 0 0 0 .122.04h1.267a.208.208 0 0 0 .125-.373L8.3 1.158a.208.208 0 0 0-.125-.042.213.213 0 0 0-.037 0 .209.209 0 0 0-.139.094L3.863 7.789a.208.208 0 0 0 .176.318h1.02a.207.207 0 0 0 .176-.1l1.617-2.584a.419.419 0 0 1 .26-.185.407.407 0 0 1 .088-.01.418.418 0 0 1 .222.064 2.035 2.035 0 0 0 1.089.308 2.093 2.093 0 0 0 1.688-.85.419.419 0 0 1 .337-.171m-3.1 1.662a.207.207 0 0 0-.176.1l-.9 1.448a.208.208 0 0 0 .176.318h6.936a.208.208 0 0 0 .122-.376l-2.85-2.068a.207.207 0 0 0-.263.015 2.961 2.961 0 0 1-1.981.758 2.794 2.794 0 0 1-.992-.179.2.2 0 0 0-.074-.014" style="fill:#576b83;stroke:#576b83" transform="translate(.5 .5)"/>
            <path data-name="Path 7427" d="M146.287 121.572a2.287 2.287 0 1 1 2.287-2.287 2.289 2.289 0 0 1-2.287 2.287m0-3.742a1.455 1.455 0 1 0 1.455 1.455 1.457 1.457 0 0 0-1.455-1.455" transform="translate(-123.544 -100.285)" style="fill:#576b83;stroke:#576b83"/>
            <path data-name="Path 7428" d="M22.916 77.33a.416.416 0 1 1 0-.832h19.332a.416.416 0 0 1 0 .832z" transform="translate(-18.882 -65.397)" style="stroke-width:.2px;fill:#576b83;stroke:#576b83"/>
            <path data-name="Path 7429" d="M22.916 189.83a.416.416 0 0 1 0-.832h19.332a.416.416 0 0 1 0 .832z" transform="translate(-18.882 -162.307)" style="stroke-width:.2px;fill:#576b83;stroke:#576b83"/>
        </g>
    </g>
</svg>
