<svg data-name="Component 1 – 1" xmlns="http://www.w3.org/2000/svg" width="30" height="30" viewBox="0 0 30 30">
    <defs>
        <clipPath id="0czmbfpria">
            <path data-name="Rectangle 17209" style="fill:#0a47ac;stroke:#0a47ac;stroke-width:.3px" d="M0 0h30v30H0z"/>
        </clipPath>
    </defs>
    <g data-name="Group 20300" style="clip-path:url(#0czmbfpria)">
        <path data-name="Path 7426" d="M2.324 30A2.248 2.248 0 0 1 0 27.676V10.563a2.248 2.248 0 0 1 2.324-2.324h.284a.212.212 0 0 0 .179-.1L7.776.2a.422.422 0 0 1 .612-.115l4.168 3.157a.211.211 0 0 0 .127.043h.034a.211.211 0 0 0 .141-.09l1.182-1.739a.424.424 0 0 1 .285-.181.443.443 0 0 1 .065 0 .421.421 0 0 1 .261.09l8.677 6.836a.212.212 0 0 0 .131.045h1.048a2.248 2.248 0 0 1 2.324 2.324v3.8a.211.211 0 0 0 .211.211h2.535A.423.423 0 0 1 30 15v7.606a.423.423 0 0 1-.423.423h-2.535a.211.211 0 0 0-.211.211v4.437A2.248 2.248 0 0 1 24.507 30zm0-20.915a1.386 1.386 0 0 0-1.479 1.478v17.113a1.386 1.386 0 0 0 1.479 1.479h22.183a1.386 1.386 0 0 0 1.479-1.479v-4.437a.211.211 0 0 0-.211-.211h-3.8a4.225 4.225 0 1 1 0-8.451h3.8a.211.211 0 0 0 .211-.211v-3.8a1.386 1.386 0 0 0-1.479-1.479zm19.648 6.338a3.38 3.38 0 1 0 0 6.761h6.972a.211.211 0 0 0 .211-.211v-6.339a.211.211 0 0 0-.211-.211zM14.532 2.4H14.5a.211.211 0 0 0-.142.09l-.836 1.231a.211.211 0 0 0 .047.287L19.1 8.2a.211.211 0 0 0 .127.043h2.185a.211.211 0 0 0 .131-.377l-6.879-5.42a.212.212 0 0 0-.131-.045m-3.825 2.256a.419.419 0 0 1 .248.081l4.76 3.462a.21.21 0 0 0 .124.04h1.287a.211.211 0 0 0 .127-.38L8.43 1.177a.211.211 0 0 0-.13-.043.217.217 0 0 0-.038 0 .212.212 0 0 0-.141.1l-4.2 6.683a.211.211 0 0 0 .179.324h1.041a.211.211 0 0 0 .179-.1l1.644-2.63a.426.426 0 0 1 .264-.188.414.414 0 0 1 .094-.011.425.425 0 0 1 .225.065 2.068 2.068 0 0 0 1.1.316 2.127 2.127 0 0 0 1.715-.864.425.425 0 0 1 .342-.174M7.556 6.346a.211.211 0 0 0-.179.1l-.92 1.471a.211.211 0 0 0 .179.323h7.049a.211.211 0 0 0 .124-.382l-2.89-2.1a.211.211 0 0 0-.267.015 3.01 3.01 0 0 1-2.013.771 2.84 2.84 0 0 1-1.008-.182.207.207 0 0 0-.075-.014" style="fill:#0a47ac;stroke:#0a47ac;stroke-width:.3px"/>
        <path data-name="Path 7427" d="M146.324 121.647a2.324 2.324 0 1 1 2.324-2.324 2.327 2.327 0 0 1-2.324 2.324m0-3.8a1.479 1.479 0 1 0 1.479 1.479 1.48 1.48 0 0 0-1.479-1.479" transform="translate(-123.718 -100.52)" style="fill:#0a47ac;stroke:#0a47ac;stroke-width:.3px"/>
        <path data-name="Path 7428" d="M22.923 77.344a.423.423 0 1 1 0-.845H42.57a.423.423 0 0 1 0 .845z" transform="translate(-19.331 -65.724)" style="fill:#0a47ac;stroke:#0a47ac;stroke-width:.3px"/>
        <path data-name="Path 7429" d="M22.923 189.844a.423.423 0 0 1 0-.845H42.57a.423.423 0 0 1 0 .845z" transform="translate(-19.331 -162.379)" style="fill:#0a47ac;stroke:#0a47ac;stroke-width:.3px"/>
    </g>
</svg>
