<svg width="44" height="44" viewBox="0 0 44 44" fill="none" xmlns="http://www.w3.org/2000/svg">
<path d="M36.4803 29.332H14.4803C12.7753 29.332 11.9228 29.332 11.2225 29.519C10.2899 29.7691 9.43956 30.2603 8.75698 30.9432C8.0744 31.6261 7.58362 32.4767 7.33398 33.4094" stroke="#1BBEC3" stroke-width="2"/>
<path d="M14.6673 12.8327H29.334M14.6673 19.2493H23.834M18.334 40.3327C13.1493 40.3327 10.5552 40.3327 8.94548 38.7212C7.33398 37.1115 7.33398 34.5173 7.33398 29.3327V14.666C7.33398 9.48135 7.33398 6.88718 8.94548 5.27752C10.5552 3.66602 13.1493 3.66602 18.334 3.66602H25.6673C30.852 3.66602 33.4462 3.66602 35.0558 5.27752C36.6673 6.88718 36.6673 9.48135 36.6673 14.666M25.6673 40.3327C30.852 40.3327 33.4462 40.3327 35.0558 38.7212C36.6673 37.1115 36.6673 34.5173 36.6673 29.3327V21.9993" stroke="#1BBEC3" stroke-width="2" stroke-linecap="round"/>
</svg>
