<svg width="44" height="44" viewBox="0 0 44 44" fill="none" xmlns="http://www.w3.org/2000/svg">
<g clip-path="url(#clip0_979_10802)">
<path d="M27.8652 24.1172V29.332" stroke="#EB8337" stroke-width="2" stroke-linecap="round" stroke-linejoin="round"/>
<path d="M16.1328 29.3359V34.5508" stroke="#EB8337" stroke-width="2" stroke-linecap="round" stroke-linejoin="round"/>
<path d="M27.8661 29.3354C27.8661 26.0954 25.2395 23.4688 21.9995 23.4688C20.342 23.4688 18.845 24.1561 17.7781 25.2613M16.1328 29.3354C16.1328 32.5755 18.7594 35.2021 21.9995 35.2021C23.582 35.2021 25.0183 34.5755 26.0736 33.5568" stroke="#EB8337" stroke-width="2" stroke-linecap="round" stroke-linejoin="round"/>
<path d="M34.3247 5.57031H9.68128C5.14454 5.57031 1.4668 9.24806 1.4668 13.7848V34.321C1.4668 38.8577 5.14454 42.5355 9.68128 42.5355H34.3247C38.8614 42.5355 42.5392 38.8577 42.5392 34.321V13.7848C42.5392 9.24806 38.8614 5.57031 34.3247 5.57031Z" stroke="#EB8337" stroke-width="2" stroke-linecap="round" stroke-linejoin="round"/>
<path d="M13.7885 1.46875V9.68323M30.2175 1.46875V9.68323M1.4668 17.8977H42.5392" stroke="#EB8337" stroke-width="2" stroke-linecap="round" stroke-linejoin="round"/>
</g>
<defs>
<clipPath id="clip0_979_10802">
<rect width="44" height="44" fill="white"/>
</clipPath>
</defs>
</svg>
