<svg width="44" height="44" viewBox="0 0 44 44" fill="none" xmlns="http://www.w3.org/2000/svg">
<g clip-path="url(#clip0_979_10923)">
<path d="M9.42941 22.0009V13.7352C9.45396 12.1104 9.79886 10.5065 10.4444 9.01522C11.0899 7.52399 12.0233 6.17478 13.1911 5.04491C14.3589 3.91503 15.7382 3.0267 17.25 2.4308C18.7617 1.83491 20.3762 1.54317 22.0008 1.5723C23.6255 1.54317 25.24 1.83491 26.7517 2.4308C28.2635 3.0267 29.6428 3.91503 30.8106 5.04491C31.9784 6.17478 32.9118 7.52399 33.5573 9.01522C34.2028 10.5065 34.5477 12.1104 34.5723 13.7352V22.0009M28.2866 38.5009C29.9536 38.5009 31.5524 37.8386 32.7312 36.6598C33.91 35.481 34.5723 33.8822 34.5723 32.2152V25.1437M28.2866 38.5009C28.2866 39.5428 27.8726 40.542 27.1359 41.2788C26.3991 42.0155 25.3999 42.4294 24.358 42.4294H19.6437C18.6018 42.4294 17.6025 42.0155 16.8658 41.2788C16.129 40.542 15.7151 39.5428 15.7151 38.5009C15.7151 37.4589 16.129 36.4597 16.8658 35.7229C17.6025 34.9862 18.6018 34.5723 19.6437 34.5723H24.358C25.3999 34.5723 26.3991 34.9862 27.1359 35.7229C27.8726 36.4597 28.2866 37.4589 28.2866 38.5009ZM4.71512 17.2866H7.85798C8.27475 17.2866 8.67445 17.4521 8.96915 17.7468C9.26385 18.0415 9.42941 18.4412 9.42941 18.858V28.2866C9.42941 28.7034 9.26385 29.1031 8.96915 29.3978C8.67445 29.6925 8.27475 29.858 7.85798 29.858H4.71512C3.88159 29.858 3.08219 29.5269 2.49279 28.9375C1.90339 28.3481 1.57227 27.5487 1.57227 26.7152V20.4294C1.57227 19.5959 1.90339 18.7965 2.49279 18.2071C3.08219 17.6177 3.88159 17.2866 4.71512 17.2866ZM39.2866 29.858H36.1437C35.7269 29.858 35.3272 29.6925 35.0325 29.3978C34.7378 29.1031 34.5723 28.7034 34.5723 28.2866V18.858C34.5723 18.4412 34.7378 18.0415 35.0325 17.7468C35.3272 17.4521 35.7269 17.2866 36.1437 17.2866H39.2866C40.1201 17.2866 40.9195 17.6177 41.5089 18.2071C42.0983 18.7965 42.4294 19.5959 42.4294 20.4294V26.7152C42.4294 27.5487 42.0983 28.3481 41.5089 28.9375C40.9195 29.5269 40.1201 29.858 39.2866 29.858Z" stroke="#1BBEC3" stroke-width="2" stroke-linecap="round" stroke-linejoin="round"/>
</g>
<defs>
<clipPath id="clip0_979_10923">
<rect width="44" height="44" fill="white"/>
</clipPath>
</defs>
</svg>
