<svg width="44" height="44" viewBox="0 0 44 44" fill="none" xmlns="http://www.w3.org/2000/svg">
<path d="M31.1673 4.58398H7.33398C6.60464 4.58398 5.90517 4.87372 5.38944 5.38944C4.87372 5.90517 4.58398 6.60464 4.58398 7.33398V31.1673C4.58398 31.8967 4.87372 32.5961 5.38944 33.1119C5.90517 33.6276 6.60464 33.9173 7.33398 33.9173H31.1673C31.8967 33.9173 32.5961 33.6276 33.1119 33.1119C33.6276 32.5961 33.9173 31.8967 33.9173 31.1673V7.33398C33.9173 6.60464 33.6276 5.90517 33.1119 5.38944C32.5961 4.87372 31.8967 4.58398 31.1673 4.58398Z" stroke="#1BBEC3" stroke-width="2" stroke-linejoin="round"/>
<path d="M40.3346 11.9199V38.5014C40.3346 38.9877 40.1415 39.454 39.7977 39.7978C39.4538 40.1416 38.9875 40.3348 38.5013 40.3348H11.9207M11.918 18.7803L17.418 23.8448L26.5846 14.4105" stroke="#1BBEC3" stroke-width="2" stroke-linecap="round" stroke-linejoin="round"/>
</svg>
