<svg width="44" height="44" viewBox="0 0 44 44" fill="none" xmlns="http://www.w3.org/2000/svg">
<path d="M16.8067 33.6111H27.1911M22 2.5V4.72222M36.1422 8.35778L34.5711 9.92889M42 22.5H39.7778M4.22222 22.5H2M9.42889 9.92889L7.85778 8.35778M14.1422 30.3578C12.5886 28.8037 11.5307 26.8239 11.1022 24.6687C10.6737 22.5134 10.8939 20.2795 11.735 18.2494C12.576 16.2192 14.0002 14.4841 15.8273 13.2633C17.6545 12.0425 19.8026 11.391 22 11.391C24.1974 11.391 26.3455 12.0425 28.1727 13.2633C29.9998 14.4841 31.424 16.2192 32.2651 18.2494C33.1061 20.2795 33.3263 22.5134 32.8978 24.6687C32.4693 26.8239 31.4114 28.8037 29.8578 30.3578L28.64 31.5733C27.9438 32.2697 27.3916 33.0963 27.0149 34.0061C26.6381 34.9158 26.4443 35.8909 26.4444 36.8756V38.0556C26.4444 39.2343 25.9762 40.3648 25.1427 41.1983C24.3092 42.0317 23.1787 42.5 22 42.5C20.8213 42.5 19.6908 42.0317 18.8573 41.1983C18.0238 40.3648 17.5556 39.2343 17.5556 38.0556V36.8756C17.5556 34.8867 16.7644 32.9778 15.36 31.5733L14.1422 30.3578Z" stroke="#1BBEC3" stroke-width="2" stroke-linecap="round" stroke-linejoin="round"/>
</svg>
