<svg width="24" height="25" viewBox="0 0 24 25" fill="none" xmlns="http://www.w3.org/2000/svg">
<path d="M4 7.5V9.5H20V7.5C20 6.96957 19.7893 6.46086 19.4142 6.08579C19.0391 5.71071 18.5304 5.5 18 5.5H6C5.46957 5.5 4.96086 5.71071 4.58579 6.08579C4.21071 6.46086 4 6.96957 4 7.5Z" fill="#1BBEC3"/>
<path d="M16 5.5H18C18.5304 5.5 19.0391 5.71071 19.4142 6.08579C19.7893 6.46086 20 6.96957 20 7.5V9.5H4V7.5C4 6.96957 4.21071 6.46086 4.58579 6.08579C4.96086 5.71071 5.46957 5.5 6 5.5H8M16 5.5V3.5M16 5.5H8M8 5.5V3.5M4 10V19.5C4 20.0304 4.21071 20.5391 4.58579 20.9142C4.96086 21.2893 5.46957 21.5 6 21.5H18C18.5304 21.5 19.0391 21.2893 19.4142 20.9142C19.7893 20.5391 20 20.0304 20 19.5V10" stroke="#1BBEC3" stroke-width="2" stroke-linecap="round" stroke-linejoin="round"/>
</svg>
